{
.appVersion = "3315";
.formatVersion = 3;
DisplayStrings = (
"Weit hinten, hinter den Wortbergen, fern der Länder Vokalien und Konsonantien leben die Blindtexte. Abgeschieden wohnen Sie in Buchstabhausen an der Küste des Semantik, eines großen Sprachozeans. Ein kleines Bächlein namens Duden fließt durch ihren Ort und versorgt sie mit den nötigen Regelialien. Es ist ein paradiesmatisches Land, in dem einem gebratene Satzteile in den Mund fliegen. Nicht einmal von der allmächtigen Interpunktion werden die Blindtexte beherrscht – ein geradezu unorthographisches Leben. Eines Tages aber beschloß eine kleine Zeile Blindtext, ihr Name war Lorem Ipsum, hinaus zu gehen in die weite Grammatik. Der große Oxmox riet ihr davon ab, da es dort wimmele von bösen Kommata, wilden Fragezeichen und hinterhältigen Semikoli, doch das Blindtextchen ließ sich nicht beirren. Es packte seine sieben Versalien, schob sich sein Initial in den Gürtel und machte sich auf den Weg. Als es die ersten Hügel des Kursivgebirges erklommen hatte, warf es einen letzten Blick zurück auf die Skyline seiner Heimatstadt Buchstabhausen, die Headline von Alphabetdorf und die Subline seiner eigenen Straße, der Zeilengasse. Wehmütig lief ihm eine rethorische Frage über die Wange, dann setzte es seinen Weg fort. Unterwegs traf es eine Copy. Die Copy warnte das Blindtextchen, da, wo sie herkäme wäre sie zigmal umgeschrieben worden und alles, was von ihrem Ursprung noch übrig wäre, sei das Wort \"und\" und das Blindtextchen solle umkehren und wieder in sein eigenes, sicheres Land zurückkehren. Doch alles Gutzureden konnte es nicht überzeugen und so dauerte es nicht lange, bis ihm ein paar heimtückische Werbetexter auflauerten, es mit Longe und Parole betrunken machten und es dann in ihre Agentur schleppten, wo sie es für ihre Projekte wieder und wieder mißbrauchten. Und wenn es nicht umgeschrieben wurde, dann benutzen Sie es immernoch. "
);
axes = (
{
name = Weight;
tag = wght;
}
);

glyphs = (
{
glyphname = A;
kernLeft = A;
kernRight = A;
lastChange = "2024-08-03 06:52:24 +0000";
layers = (
{
anchors = (
{
name = bottom;
pos = (260,0);
},
{
name = ogonek;
pos = (468,10);
},
{
name = top;
pos = (260,800);
}
);
layerId = m01;
shapes = (
{
closed = 1;
nodes = (
(152,0,l),
(185,146,l),
(335,146,l),
(368,0,l),
(520,0,l),
(350,800,l),
(170,800,l),
(0,0,l)
);
},
{
closed = 1;
nodes = (
(260,588,l),
(322,271,l),
(198,271,l)
);
}
);
width = 520;
},
{
anchors = (
{
name = bottom;
pos = (283,0);
},
{
name = ogonek;
pos = (509,10);
},
{
name = top;
pos = (283,800);
}
);
background = {
shapes = (
{
closed = 1;
nodes = (
(175,0,l),
(208,146,l),
(358,146,l),
(391,0,l),
(543,0,l),
(373,800,l),
(193,800,l),
(23,0,l)
);
},
{
closed = 1;
nodes = (
(283,588,l),
(345,271,l),
(221,271,l)
);
}
);
};
layerId = m002;
shapes = (
{
closed = 1;
nodes = (
(43,0,l),
(103,196,l),
(461,196,l),
(522,0,l),
(532,0,l),
(286,800,l),
(276,800,l),
(33,0,l)
);
},
{
closed = 1;
nodes = (
(281,779,l),
(458,206,l),
(106,206,l)
);
}
);
width = 565;
}
);
unicode = 65;
},
{
glyphname = AE;
lastChange = "2024-08-02 09:10:40 +0000";
layers = (
{
anchors = (
{
name = bottom;
pos = (524,0);
},
{
name = top;
pos = (531,800);
}
);
layerId = m002;
shapes = (
{
closed = 1;
nodes = (
(846,0,l),
(846,10,l),
(524,10,l),
(524,0,l)
);
},
{
closed = 1;
nodes = (
(846,790,l),
(846,800,l),
(524,800,l),
(524,790,l)
);
},
{
closed = 1;
nodes = (
(826,405,l),
(826,415,l),
(524,415,l),
(524,405,l)
);
},
{
closed = 1;
nodes = (
(43,0,l),
(163,196,l),
(521,196,l),
(521,0,l),
(531,0,l),
(531,800,l),
(520,800,l),
(33,0,l)
);
},
{
closed = 1;
nodes = (
(521,782,l),
(521,206,l),
(169,206,l)
);
}
);
width = 936;
},
{
anchors = (
{
name = bottom;
pos = (430,0);
},
{
name = top;
pos = (430,800);
}
);
layerId = m01;
shapes = (
{
closed = 1;
nodes = (
(703,0,l),
(703,140,l),
(430,140,l),
(430,0,l)
);
},
{
closed = 1;
nodes = (
(703,660,l),
(703,800,l),
(430,800,l),
(430,660,l)
);
},
{
closed = 1;
nodes = (
(683,340,l),
(683,480,l),
(410,480,l),
(410,340,l)
);
},
{
closed = 1;
nodes = (
(152,0,l),
(214,146,l),
(366,146,l),
(366,0,l),
(513,0,l),
(513,800,l),
(326,800,l),
(0,0,l)
);
},
{
closed = 1;
nodes = (
(375,588,l),
(375,271,l),
(251,271,l)
);
}
);
width = 743;
}
);
metricLeft = A;
metricRight = E;
unicode = 198;
},
{
glyphname = B;
kernLeft = H;
kernRight = O;
lastChange = "2024-08-02 07:37:23 +0000";
layers = (
{
anchors = (
{
name = bottom;
pos = (258,0);
},
{
name = center;
pos = (129,200);
},
{
name = top;
pos = (258,800);
}
);
layerId = m01;
shapes = (
{
closed = 1;
nodes = (
(237,468,l),
(185,468,l),
(185,665,l),
(227,665,l),
(227,800,l),
(40,800,l),
(40,0,l),
(237,0,l),
(237,135,l),
(186,137,l),
(187,343,l),
(237,343,l)
);
},
{
closed = 1;
nodes = (
(227,393,l),
(394,393,o),
(475,452,o),
(475,572,cs),
(475,725,o),
(394,800,o),
(227,800,c),
(227,665,l),
(286,665,o),
(315,634,o),
(315,572,cs),
(315,502,o),
(286,468,o),
(227,468,c)
);
},
{
closed = 1;
nodes = (
(299,343,o),
(330,304,o),
(330,223,cs),
(330,164,o),
(299,135,o),
(237,135,c),
(237,0,l),
(407,0,o),
(490,73,o),
(490,223,cs),
(490,354,o),
(407,418,o),
(237,418,c),
(237,343,l)
);
}
);
width = 515;
},
{
anchors = (
{
name = bottom;
pos = (283,0);
},
{
name = center;
pos = (141,200);
},
{
name = top;
pos = (283,800);
}
);
background = {
shapes = (
{
closed = 1;
nodes = (
(277,468,l),
(225,468,l),
(225,665,l),
(267,665,l),
(267,800,l),
(80,800,l),
(80,0,l),
(277,0,l),
(277,135,l),
(226,137,l),
(227,343,l),
(277,343,l)
);
},
{
closed = 1;
nodes = (
(267,393,l),
(434,393,o),
(515,452,o),
(515,572,cs),
(515,725,o),
(434,800,o),
(267,800,c),
(267,665,l),
(326,665,o),
(355,634,o),
(355,572,cs),
(355,502,o),
(326,468,o),
(267,468,c)
);
},
{
closed = 1;
nodes = (
(339,343,o),
(370,304,o),
(370,223,cs),
(370,164,o),
(339,135,o),
(277,135,c),
(277,0,l),
(447,0,o),
(530,73,o),
(530,223,cs),
(530,354,o),
(447,418,o),
(277,418,c),
(277,343,l)
);
}
);
};
layerId = m002;
shapes = (
{
closed = 1;
nodes = (
(257,410,l),
(100,410,l),
(100,790,l),
(247,790,l),
(247,800,l),
(90,800,l),
(90,0,l),
(257,0,l),
(257,10,l),
(99,10,l),
(100,400,l),
(257,400,l)
);
},
{
closed = 1;
nodes = (
(257,400,l),
(424,400,o),
(495,452,o),
(495,572,cs),
(495,732,o),
(421,800,o),
(247,800,c),
(247,790,l),
(414,790,o),
(485,725,o),
(485,572,cs),
(485,459,o),
(417,410,o),
(257,410,c)
);
},
{
closed = 1;
nodes = (
(427,400,o),
(500,347,o),
(500,223,cs),
(500,74,o),
(427,10,o),
(257,10,c),
(257,0,l),
(434,0,o),
(510,67,o),
(510,223,cs),
(510,354,o),
(434,410,o),
(257,410,c),
(257,400,l)
);
}
);
width = 565;
}
);
metricLeft = N;
metricRight = O;
unicode = 66;
},
{
glyphname = C;
kernLeft = O;
kernRight = C;
lastChange = "2024-08-02 07:37:23 +0000";
layers = (
{
anchors = (
{
name = bottom;
pos = (250,0);
},
{
name = top;
pos = (250,800);
}
);
layerId = m01;
shapes = (
{
closed = 1;
nodes = (
(474,564,l),
(474,732,o),
(397,814,o),
(259,814,cs),
(109,814,o),
(25,685,o),
(25,422,cs),
(25,132,o),
(109,-10,o),
(259,-10,cs),
(395,-10,o),
(472,71,o),
(472,237,c),
(319,237,l),
(319,169,o),
(293,135,o),
(259,135,cs),
(219,135,o),
(190,229,o),
(190,422,cs),
(190,588,o),
(219,669,o),
(259,669,cs),
(293,669,o),
(320,634,o),
(320,564,c)
);
}
);
width = 499;
},
{
anchors = (
{
name = bottom;
pos = (268,0);
},
{
name = top;
pos = (268,800);
}
);
background = {
shapes = (
{
closed = 1;
nodes = (
(494,564,l),
(494,732,o),
(417,814,o),
(279,814,cs),
(129,814,o),
(45,685,o),
(45,422,cs),
(45,132,o),
(129,-10,o),
(279,-10,cs),
(415,-10,o),
(492,71,o),
(492,237,c),
(339,237,l),
(339,169,o),
(313,135,o),
(279,135,cs),
(239,135,o),
(210,229,o),
(210,422,cs),
(210,588,o),
(239,669,o),
(279,669,cs),
(313,669,o),
(340,634,o),
(340,564,c)
);
}
);
};
layerId = m002;
shapes = (
{
closed = 1;
nodes = (
(481,614,l),
(471,745,o),
(398,809,o),
(289,809,cs),
(132,809,o),
(55,682,o),
(55,422,cs),
(55,132,o),
(132,-10,o),
(289,-10,cs),
(397,-10,o),
(469,55,o),
(479,187,c),
(469,187,l),
(459,61,o),
(390,0,o),
(289,0,cs),
(139,0,o),
(65,139,o),
(65,422,cs),
(65,675,o),
(139,799,o),
(289,799,cs),
(391,799,o),
(461,738,o),
(471,614,c)
);
}
);
width = 536;
}
);
metricLeft = O;
metricRight = O;
unicode = 67;
},
{
glyphname = D;
kernLeft = H;
kernRight = O;
lastChange = "2024-08-02 07:37:23 +0000";
layers = (
{
anchors = (
{
name = bottom;
pos = (260,0);
},
{
name = center;
pos = (130,400);
},
{
name = top;
pos = (260,800);
}
);
layerId = m01;
shapes = (
{
closed = 1;
nodes = (
(247,135,l),
(185,135,l),
(185,665,l),
(247,665,l),
(247,800,l),
(40,800,l),
(40,0,l),
(247,0,l)
);
},
{
closed = 1;
nodes = (
(247,0,l),
(414,0,o),
(495,139,o),
(495,422,cs),
(495,676,o),
(414,800,o),
(247,800,c),
(247,665,l),
(306,665,o),
(335,585,o),
(335,422,cs),
(335,229,o),
(306,135,o),
(247,135,c)
);
}
);
width = 520;
},
{
anchors = (
{
name = bottom;
pos = (290,0);
},
{
name = center;
pos = (145,400);
},
{
name = top;
pos = (290,800);
}
);
background = {
shapes = (
{
closed = 1;
nodes = (
(287,135,l),
(225,135,l),
(225,665,l),
(287,665,l),
(287,800,l),
(80,800,l),
(80,0,l),
(287,0,l)
);
},
{
closed = 1;
nodes = (
(287,0,l),
(454,0,o),
(535,139,o),
(535,422,cs),
(535,676,o),
(454,800,o),
(287,800,c),
(287,665,l),
(346,665,o),
(375,585,o),
(375,422,cs),
(375,229,o),
(346,135,o),
(287,135,c)
);
}
);
};
layerId = m002;
shapes = (
{
closed = 1;
nodes = (
(287,10,l),
(100,10,l),
(100,790,l),
(287,790,l),
(287,800,l),
(90,800,l),
(90,0,l),
(287,0,l)
);
},
{
closed = 1;
nodes = (
(287,0,l),
(447,0,o),
(525,139,o),
(525,422,cs),
(525,676,o),
(447,800,o),
(287,800,c),
(287,790,l),
(440,790,o),
(515,669,o),
(515,422,cs),
(515,145,o),
(440,10,o),
(287,10,c)
);
}
);
width = 580;
}
);
metricLeft = N;
metricRight = O;
unicode = 68;
},
{
glyphname = E;
kernLeft = H;
kernRight = H;
lastChange = "2024-08-02 07:37:23 +0000";
layers = (
{
anchors = (
{
name = bottom;
pos = (213,0);
},
{
name = ogonek;
pos = (383,10);
},
{
name = top;
pos = (213,800);
},
{
name = topleft;
pos = (20,800);
}
);
layerId = m01;
shapes = (
{
closed = 1;
nodes = (
(195,800,l),
(40,800,l),
(40,0,l),
(195,0,l)
);
},
{
closed = 1;
nodes = (
(385,0,l),
(385,140,l),
(112,140,l),
(112,0,l)
);
},
{
closed = 1;
nodes = (
(385,660,l),
(385,800,l),
(112,800,l),
(112,660,l)
);
},
{
closed = 1;
nodes = (
(365,340,l),
(365,480,l),
(92,480,l),
(92,340,l)
);
}
);
width = 425;
},
{
anchors = (
{
name = bottom;
pos = (253,0);
},
{
name = ogonek;
pos = (455,10);
},
{
name = top;
pos = (253,800);
},
{
name = topleft;
pos = (20,800);
}
);
background = {
shapes = (
{
closed = 1;
nodes = (
(235,800,l),
(80,800,l),
(80,0,l),
(235,0,l)
);
},
{
closed = 1;
nodes = (
(425,0,l),
(425,140,l),
(152,140,l),
(152,0,l)
);
},
{
closed = 1;
nodes = (
(425,660,l),
(425,800,l),
(152,800,l),
(152,660,l)
);
},
{
closed = 1;
nodes = (
(405,340,l),
(405,480,l),
(132,480,l),
(132,340,l)
);
}
);
};
layerId = m002;
shapes = (
{
closed = 1;
nodes = (
(100,800,l),
(90,800,l),
(90,0,l),
(100,0,l)
);
},
{
closed = 1;
nodes = (
(415,0,l),
(415,10,l),
(93,10,l),
(93,0,l)
);
},
{
closed = 1;
nodes = (
(415,790,l),
(415,800,l),
(93,800,l),
(93,790,l)
);
},
{
closed = 1;
nodes = (
(395,405,l),
(395,415,l),
(93,415,l),
(93,405,l)
);
}
);
width = 505;
}
);
metricLeft = N;
metricRight = N;
unicode = 69;
},
{
glyphname = Schwa;
lastChange = "2024-08-02 09:15:30 +0000";
layers = (
{
anchors = (
{
name = bottom;
pos = (287,0);
},
{
name = top;
pos = (279,801);
}
);
layerId = m002;
shapes = (
{
closed = 1;
nodes = (
(160,811,o),
(87,743,o),
(77,620,c),
(87,620,l),
(97,736,o),
(165,801,o),
(279,801,cs),
(431,801,o),
(511,651,o),
(511,380,cs),
(511,136,o),
(431,0,o),
(287,0,cs),
(144,0,o),
(65,137,o),
(65,383,c),
(514,383,l),
(514,393,l),
(55,393,l),
(55,388,o),
(55,386,o),
(55,381,cs),
(55,130,o),
(138,-10,o),
(287,-10,cs),
(437,-10,o),
(521,129,o),
(521,380,cs),
(521,657,o),
(438,811,o),
(279,811,cs)
);
}
);
width = 576;
},
{
anchors = (
{
name = bottom;
pos = (296,0);
},
{
name = top;
pos = (294,800);
}
);
layerId = m01;
shapes = (
{
closed = 1;
nodes = (
(148,812,o),
(63,729,o),
(41,559,c),
(191,559,l),
(201,638,o),
(237,677,o),
(299,677,cs),
(377,677,o),
(415,579,o),
(415,380,cs),
(415,205,o),
(375,120,o),
(294,120,cs),
(213,120,o),
(173,187,o),
(173,325,c),
(469,325,l),
(469,455,l),
(29,455,l),
(26,431,o),
(25,406,o),
(25,380,cs),
(30,118,o),
(118,-10,o),
(294,-10,cs),
(476,-10,o),
(565,118,o),
(565,380,cs),
(565,670,o),
(478,812,o),
(299,812,cs)
);
}
);
width = 590;
}
);
metricLeft = O;
metricRight = O;
unicode = 399;
},
{
glyphname = F;
kernLeft = H;
kernRight = V;
lastChange = "2024-08-02 07:37:23 +0000";
layers = (
{
anchors = (
{
name = bottom;
pos = (213,0);
},
{
name = top;
pos = (213,800);
}
);
layerId = m01;
shapes = (
{
closed = 1;
nodes = (
(195,800,l),
(40,800,l),
(40,0,l),
(195,0,l)
);
},
{
closed = 1;
nodes = (
(385,660,l),
(385,800,l),
(112,800,l),
(112,660,l)
);
},
{
closed = 1;
nodes = (
(365,340,l),
(365,480,l),
(92,480,l),
(92,340,l)
);
}
);
width = 425;
},
{
anchors = (
{
name = bottom;
pos = (253,0);
},
{
name = top;
pos = (253,800);
}
);
layerId = m002;
shapes = (
{
closed = 1;
nodes = (
(100,800,l),
(90,800,l),
(90,0,l),
(100,0,l)
);
},
{
closed = 1;
nodes = (
(415,790,l),
(415,800,l),
(93,800,l),
(93,790,l)
);
},
{
closed = 1;
nodes = (
(395,405,l),
(395,415,l),
(93,415,l),
(93,405,l)
);
}
);
width = 505;
}
);
metricLeft = N;
metricRight = N;
unicode = 70;
},
{
glyphname = G;
kernLeft = O;
kernRight = O;
lastChange = "2024-08-03 06:39:19 +0000";
layers = (
{
anchors = (
{
name = bottom;
pos = (269,0);
},
{
name = top;
pos = (269,800);
}
);
layerId = m01;
shapes = (
{
closed = 1;
nodes = (
(509,564,l),
(509,732,o),
(439,814,o),
(286,814,cs),
(111,814,o),
(25,685,o),
(25,422,cs),
(25,132,o),
(111,-10,o),
(286,-10,cs),
(438,-10,o),
(512,92,o),
(512,300,c),
(376,300,l),
(376,189,o),
(346,135,o),
(286,135,cs),
(222,135,o),
(190,229,o),
(190,422,cs),
(190,588,o),
(222,669,o),
(286,669,cs),
(338,669,o),
(359,634,o),
(359,564,c)
);
},
{
closed = 1;
nodes = (
(512,300,l),
(512,430,l),
(296,430,l),
(296,300,l)
);
}
);
width = 537;
},
{
anchors = (
{
name = bottom;
pos = (290,0);
},
{
name = top;
pos = (290,800);
}
);
background = {
shapes = (
{
closed = 1;
nodes = (
(529,564,l),
(529,732,o),
(459,814,o),
(306,814,cs),
(131,814,o),
(45,685,o),
(45,422,cs),
(45,132,o),
(131,-10,o),
(306,-10,cs),
(458,-10,o),
(532,92,o),
(532,300,c),
(396,300,l),
(396,189,o),
(366,135,o),
(306,135,cs),
(242,135,o),
(210,229,o),
(210,422,cs),
(210,588,o),
(242,669,o),
(306,669,cs),
(358,669,o),
(379,634,o),
(379,564,c)
);
},
{
closed = 1;
nodes = (
(532,300,l),
(532,430,l),
(316,430,l),
(316,300,l)
);
}
);
};
layerId = m002;
shapes = (
{
closed = 1;
nodes = (
(507,614,l),
(501,746,o),
(421,810,o),
(306,810,cs),
(137,810,o),
(55,683,o),
(55,422,cs),
(55,132,o),
(137,-10,o),
(306,-10,cs),
(451,-10,o),
(537,112,o),
(522,360,c),
(512,360,l),
(527,118,o),
(444,0,o),
(306,0,cs),
(144,0,o),
(65,139,o),
(65,422,cs),
(65,676,o),
(144,800,o),
(306,800,cs),
(414,800,o),
(491,739,o),
(497,614,c)
);
},
{
closed = 1;
nodes = (
(522,360,l),
(522,370,l),
(336,370,l),
(336,360,l)
);
}
);
width = 579;
}
);
metricLeft = O;
metricRight = O;
unicode = 71;
},
{
glyphname = H;
kernLeft = H;
kernRight = H;
lastChange = "2024-08-03 06:37:18 +0000";
layers = (
{
anchors = (
{
name = bottom;
pos = (260,0);
},
{
name = center;
pos = (260,600);
},
{
name = top;
pos = (260,800);
},
{
name = topleft;
pos = (20,800);
}
);
layerId = m01;
shapes = (
{
closed = 1;
nodes = (
(200,0,l),
(200,336,l),
(320,336,l),
(320,0,l),
(480,0,l),
(480,800,l),
(320,800,l),
(320,471,l),
(200,471,l),
(200,800,l),
(40,800,l),
(40,0,l)
);
}
);
width = 520;
},
{
anchors = (
{
name = bottom;
pos = (290,0);
},
{
name = center;
pos = (290,601);
},
{
name = top;
pos = (290,800);
},
{
name = topleft;
pos = (20,800);
}
);
background = {
shapes = (
{
closed = 1;
nodes = (
(230,2,l),
(230,336,l),
(350,336,l),
(350,4,l),
(510,4,l),
(510,800,l),
(350,800,l),
(350,471,l),
(230,471,l),
(230,802,l),
(70,802,l),
(70,2,l)
);
}
);
};
layerId = m002;
shapes = (
{
closed = 1;
nodes = (
(100,0,l),
(100,398,l),
(480,398,l),
(480,0,l),
(490,0,l),
(490,801,l),
(480,801,l),
(480,408,l),
(100,408,l),
(100,801,l),
(90,801,l),
(90,0,l)
);
}
);
width = 580;
}
);
metricLeft = N;
metricRight = N;
unicode = 72;
},
{
glyphname = I;
kernLeft = H;
kernRight = H;
lastChange = "2024-08-03 06:39:44 +0000";
layers = (
{
anchors = (
{
name = bottom;
pos = (118,0);
},
{
name = ogonek;
pos = (212,10);
},
{
name = top;
pos = (118,800);
},
{
name = topleft;
pos = (20,800);
}
);
layerId = m01;
shapes = (
{
closed = 1;
nodes = (
(40,800,l),
(40,0,l),
(195,0,l),
(195,800,l)
);
}
);
width = 235;
},
{
anchors = (
{
name = bottom;
pos = (118,0);
},
{
name = ogonek;
pos = (212,10);
},
{
name = top;
pos = (118,800);
},
{
name = topleft;
pos = (20,800);
}
);
layerId = m002;
shapes = (
{
closed = 1;
nodes = (
(112,800,l),
(112,0,l),
(122,0,l),
(122,800,l)
);
}
);
width = 235;
}
);
unicode = 73;
},
{
glyphname = J;
kernLeft = H;
kernRight = H;
lastChange = "2024-08-02 07:37:23 +0000";
layers = (
{
anchors = (
{
name = bottom;
pos = (120,0);
},
{
name = top;
pos = (120,800);
}
);
layerId = m01;
shapes = (
{
closed = 1;
nodes = (
(40,800,l),
(40,0,l),
(200,0,l),
(200,800,l)
);
},
{
closed = 1;
nodes = (
(109,-216,o),
(200,-127,o),
(200,0,c),
(40,0,l),
(40,-50,o),
(15,-86,o),
(-20,-86,c),
(-20,-216,l)
);
}
);
width = 240;
},
{
anchors = (
{
name = bottom;
pos = (120,0);
},
{
name = top;
pos = (120,800);
}
);
layerId = m002;
shapes = (
{
closed = 1;
nodes = (
(115,800,l),
(115,-110,l),
(125,-110,l),
(125,800,l)
);
},
{
closed = 1;
nodes = (
(87,-203,o),
(125,-155,o),
(125,-110,c),
(115,-110,l),
(115,-150,o),
(82,-193,o),
(40,-208,c),
(40,-218,l)
);
}
);
width = 240;
}
);
unicode = 74;
},
{
glyphname = K;
kernLeft = H;
kernRight = C;
lastChange = "2024-08-02 07:37:23 +0000";
layers = (
{
anchors = (
{
name = bottom;
pos = (280,0);
},
{
name = top;
pos = (280,800);
}
);
layerId = m01;
shapes = (
{
closed = 1;
nodes = (
(40,800,l),
(40,0,l),
(195,0,l),
(195,800,l)
);
},
{
closed = 1;
nodes = (
(371,800,l),
(181,429,l),
(352,429,l),
(541,800,l)
);
},
{
closed = 1;
nodes = (
(352,429,l),
(162,429,l),
(371,0,l),
(560,0,l)
);
}
);
width = 560;
},
{
anchors = (
{
name = bottom;
pos = (242,0);
},
{
name = top;
pos = (242,800);
}
);
background = {
shapes = (
{
closed = 1;
nodes = (
(80,800,l),
(80,0,l),
(235,0,l),
(235,800,l)
);
},
{
closed = 1;
nodes = (
(411,800,l),
(221,429,l),
(392,429,l),
(581,800,l)
);
},
{
closed = 1;
nodes = (
(392,429,l),
(202,429,l),
(411,0,l),
(600,0,l)
);
}
);
};
layerId = m002;
shapes = (
{
closed = 1;
nodes = (
(90,800,l),
(90,0,l),
(100,0,l),
(100,800,l)
);
},
{
closed = 1;
nodes = (
(440,800,l),
(91,429,l),
(105,429,l),
(455,800,l)
);
},
{
closed = 1;
nodes = (
(104,429,l),
(91,429,l),
(451,0,l),
(463,0,l)
);
}
);
width = 483;
}
);
metricLeft = N;
unicode = 75;
},
{
glyphname = L;
kernLeft = H;
kernRight = A;
lastChange = "2024-08-03 06:40:12 +0000";
layers = (
{
anchors = (
{
name = bottom;
pos = (203,0);
},
{
name = center;
pos = (203,400);
},
{
name = top;
pos = (203,800);
},
{
name = topright;
pos = (385,800);
}
);
layerId = m01;
shapes = (
{
closed = 1;
nodes = (
(195,800,l),
(40,800,l),
(40,0,l),
(195,0,l)
);
},
{
closed = 1;
nodes = (
(385,0,l),
(385,140,l),
(40,140,l),
(40,0,l)
);
}
);
width = 405;
},
{
anchors = (
{
name = bottom;
pos = (203,0);
},
{
name = center;
pos = (203,400);
},
{
name = top;
pos = (203,800);
},
{
name = topright;
pos = (385,800);
}
);
layerId = m002;
shapes = (
{
closed = 1;
nodes = (
(70,800,l),
(60,800,l),
(60,0,l),
(70,0,l)
);
},
{
closed = 1;
nodes = (
(355,0,l),
(355,10,l),
(60,10,l),
(60,0,l)
);
}
);
width = 405;
}
);
unicode = 76;
},
{
glyphname = M;
kernLeft = A;
kernRight = A;
lastChange = "2024-08-02 07:37:23 +0000";
layers = (
{
anchors = (
{
name = bottom;
pos = (345,0);
},
{
name = top;
pos = (345,800);
}
);
layerId = m01;
shapes = (
{
closed = 1;
nodes = (
(25,0,l),
(165,0,l),
(182,540,l),
(161,540,l),
(280,0,l),
(410,0,l),
(217,800,l),
(57,800,l)
);
},
{
closed = 1;
nodes = (
(279,0,l),
(409,0,l),
(538,540,l),
(517,540,l),
(525,0,l),
(665,0,l),
(643,800,l),
(483,800,l)
);
}
);
width = 690;
},
{
anchors = (
{
name = bottom;
pos = (362,0);
},
{
name = top;
pos = (362,800);
}
);
layerId = m002;
shapes = (
{
closed = 1;
nodes = (
(33,0,l),
(43,0,l),
(140,789,l),
(134,789,l),
(358,0,l),
(368,0,l),
(141,800,l),
(131,800,l)
);
},
{
closed = 1;
nodes = (
(358,0,l),
(368,0,l),
(597,789,l),
(591,789,l),
(680,0,l),
(690,0,l),
(600,800,l),
(590,800,l)
);
}
);
width = 723;
}
);
unicode = 77;
},
{
glyphname = N;
kernLeft = H;
kernRight = H;
lastChange = "2024-08-02 07:37:23 +0000";
layers = (
{
anchors = (
{
name = bottom;
pos = (260,0);
},
{
name = top;
pos = (260,800);
}
);
layerId = m01;
shapes = (
{
closed = 1;
nodes = (
(170,800,l),
(40,800,l),
(40,0,l),
(180,0,l)
);
},
{
closed = 1;
nodes = (
(350,0,l),
(480,0,l),
(480,800,l),
(340,800,l)
);
},
{
closed = 1;
nodes = (
(330,0,l),
(480,0,l),
(185,800,l),
(60,800,l)
);
}
);
width = 520;
},
{
anchors = (
{
name = bottom;
pos = (308,0);
},
{
name = top;
pos = (308,800);
}
);
background = {
shapes = (
{
closed = 1;
nodes = (
(218,802,l),
(88,802,l),
(88,2,l),
(228,2,l)
);
},
{
closed = 1;
nodes = (
(398,4,l),
(528,4,l),
(528,800,l),
(388,800,l)
);
},
{
closed = 1;
nodes = (
(378,4,l),
(528,4,l),
(233,800,l),
(108,800,l)
);
}
);
};
layerId = m002;
shapes = (
{
closed = 1;
nodes = (
(100,800,l),
(90,800,l),
(90,0,l),
(100,0,l)
);
},
{
closed = 1;
nodes = (
(516,0,l),
(526,0,l),
(526,800,l),
(516,800,l)
);
},
{
closed = 1;
nodes = (
(515,0,l),
(526,0,l),
(101,800,l),
(90,800,l)
);
}
);
width = 616;
}
);
unicode = 78;
},
{
glyphname = O;
kernLeft = O;
kernRight = O;
lastChange = "2024-08-03 06:37:49 +0000";
layers = (
{
anchors = (
{
name = bottom;
pos = (265,0);
},
{
name = center;
pos = (265,400);
},
{
name = ogonek;
pos = (477,10);
},
{
name = top;
pos = (265,800);
},
{
name = topleft;
pos = (20,800);
},
{
name = topright;
pos = (510,800);
}
);
layerId = m01;
shapes = (
{
closed = 1;
nodes = (
(426,-10,o),
(505,120,o),
(505,422,cs),
(505,696,o),
(426,814,o),
(264,814,cs),
(104,814,o),
(25,696,o),
(25,422,cs),
(25,120,o),
(104,-10,o),
(264,-10,cs)
);
},
{
closed = 1;
nodes = (
(219,135,o),
(190,221,o),
(190,422,cs),
(190,595,o),
(219,669,o),
(264,669,cs),
(310,669,o),
(340,595,o),
(340,422,cs),
(340,221,o),
(310,135,o),
(264,135,cs)
);
}
);
width = 530;
},
{
anchors = (
{
name = bottom;
pos = (295,0);
},
{
name = center;
pos = (295,400);
},
{
name = ogonek;
pos = (531,10);
},
{
name = top;
pos = (295,800);
},
{
name = topleft;
pos = (20,800);
},
{
name = topright;
pos = (570,800);
}
);
background = {
shapes = (
{
closed = 1;
nodes = (
(456,-10,o),
(535,120,o),
(535,422,cs),
(535,696,o),
(456,814,o),
(294,814,cs),
(134,814,o),
(55,696,o),
(55,422,cs),
(55,120,o),
(134,-10,o),
(294,-10,cs)
);
},
{
closed = 1;
nodes = (
(249,135,o),
(220,221,o),
(220,422,cs),
(220,595,o),
(249,669,o),
(294,669,cs),
(340,669,o),
(370,595,o),
(370,422,cs),
(370,221,o),
(340,135,o),
(294,135,cs)
);
}
);
};
layerId = m002;
shapes = (
{
closed = 1;
nodes = (
(456,-10,o),
(535,132,o),
(535,422,cs),
(535,685,o),
(456,814,o),
(294,814,cs),
(134,814,o),
(55,685,o),
(55,422,cs),
(55,132,o),
(134,-10,o),
(294,-10,cs)
);
},
{
closed = 1;
nodes = (
(140,0,o),
(65,139,o),
(65,422,cs),
(65,678,o),
(140,804,o),
(294,804,cs),
(449,804,o),
(525,678,o),
(525,422,cs),
(525,139,o),
(449,0,o),
(294,0,cs)
);
}
);
width = 590;
}
);
unicode = 79;
},
{
glyphname = Oslash;
lastChange = "2024-08-03 06:47:39 +0000";
layers = (
{
anchors = (
{
name = bottom;
pos = (300,0);
},
{
name = top;
pos = (300,800);
}
);
layerId = m002;
shapes = (
{
ref = O;
},
{
closed = 1;
nodes = (
(146,0,l),
(157,0,l),
(457,800,l),
(446,800,l)
);
}
);
width = 590;
},
{
anchors = (
{
name = bottom;
pos = (300,0);
},
{
name = top;
pos = (300,800);
}
);
layerId = m01;
shapes = (
{
ref = O;
},
{
closed = 1;
nodes = (
(75,0,l),
(149,0,l),
(449,800,l),
(375,800,l)
);
}
);
width = 530;
}
);
unicode = 216;
},
{
glyphname = P;
kernLeft = H;
kernRight = V;
lastChange = "2024-08-02 07:37:23 +0000";
layers = (
{
anchors = (
{
name = bottom;
pos = (250,0);
},
{
name = top;
pos = (250,800);
}
);
layerId = m01;
shapes = (
{
closed = 1;
nodes = (
(227,435,l),
(185,435,l),
(185,665,l),
(227,665,l),
(227,800,l),
(40,800,l),
(40,0,l),
(185,0,l),
(187,300,l),
(227,300,l)
);
},
{
closed = 1;
nodes = (
(227,300,l),
(394,300,o),
(475,389,o),
(475,572,cs),
(475,725,o),
(394,800,o),
(227,800,c),
(227,665,l),
(286,665,o),
(315,634,o),
(315,572,cs),
(315,480,o),
(286,435,o),
(227,435,c)
);
}
);
width = 500;
},
{
anchors = (
{
name = bottom;
pos = (250,0);
},
{
name = top;
pos = (250,800);
}
);
background = {
shapes = (
{
closed = 1;
nodes = (
(247,435,l),
(205,435,l),
(205,665,l),
(247,665,l),
(247,800,l),
(60,800,l),
(60,0,l),
(205,0,l),
(207,300,l),
(247,300,l)
);
},
{
closed = 1;
nodes = (
(247,300,l),
(414,300,o),
(495,389,o),
(495,572,cs),
(495,725,o),
(414,800,o),
(247,800,c),
(247,665,l),
(306,665,o),
(335,634,o),
(335,572,cs),
(335,480,o),
(306,435,o),
(247,435,c)
);
}
);
};
layerId = m002;
shapes = (
{
closed = 1;
nodes = (
(227,372,l),
(100,372,l),
(100,790,l),
(227,790,l),
(227,800,l),
(90,800,l),
(90,0,l),
(98,0,l),
(100,362,l),
(227,362,l)
);
},
{
closed = 1;
nodes = (
(227,362,l),
(373,362,o),
(445,431,o),
(445,572,cs),
(445,725,o),
(373,800,o),
(227,800,c),
(227,790,l),
(367,790,o),
(435,718,o),
(435,572,cs),
(435,438,o),
(367,372,o),
(227,372,c)
);
}
);
width = 500;
}
);
metricLeft = N;
metricRight = O;
unicode = 80;
},
{
glyphname = Q;
kernLeft = O;
kernRight = O;
lastChange = "2024-08-03 06:39:04 +0000";
layers = (
{
anchors = (
{
name = bottom;
pos = (265,0);
},
{
name = top;
pos = (265,800);
}
);
layerId = m01;
shapes = (
{
closed = 1;
nodes = (
(426,-10,o),
(505,120,o),
(505,422,cs),
(505,696,o),
(426,814,o),
(264,814,cs),
(104,814,o),
(25,696,o),
(25,422,cs),
(25,120,o),
(104,-10,o),
(264,-10,cs)
);
},
{
closed = 1;
nodes = (
(219,135,o),
(190,221,o),
(190,422,cs),
(190,595,o),
(219,669,o),
(264,669,cs),
(310,669,o),
(340,595,o),
(340,422,cs),
(340,221,o),
(310,135,o),
(264,135,cs)
);
},
{
closed = 1;
nodes = (
(479,-86,l),
(452,-86,o),
(344,-58,o),
(334,0,c),
(194,0,l),
(232,-144,o),
(345,-216,o),
(479,-216,c)
);
}
);
width = 530;
},
{
anchors = (
{
name = bottom;
pos = (295,0);
},
{
name = top;
pos = (295,800);
}
);
layerId = m002;
shapes = (
{
closed = 1;
nodes = (
(456,-10,o),
(535,132,o),
(535,422,cs),
(535,685,o),
(456,814,o),
(294,814,cs),
(134,814,o),
(55,685,o),
(55,422,cs),
(55,132,o),
(134,-10,o),
(294,-10,cs)
);
},
{
closed = 1;
nodes = (
(140,0,o),
(65,139,o),
(65,422,cs),
(65,678,o),
(140,804,o),
(294,804,cs),
(449,804,o),
(525,678,o),
(525,422,cs),
(525,139,o),
(449,0,o),
(294,0,cs)
);
},
{
closed = 1;
nodes = (
(428,-152,l),
(341,-152,o),
(299,-103,o),
(299,-4,c),
(289,-4,l),
(289,-110,o),
(335,-162,o),
(428,-162,c)
);
}
);
width = 590;
}
);
metricLeft = O;
metricRight = O;
unicode = 81;
},
{
glyphname = R;
kernLeft = H;
kernRight = C;
lastChange = "2024-08-02 07:37:23 +0000";
layers = (
{
anchors = (
{
name = bottom;
pos = (259,0);
},
{
name = top;
pos = (259,800);
}
);
layerId = m01;
shapes = (
{
closed = 1;
nodes = (
(227,435,l),
(185,435,l),
(185,665,l),
(227,665,l),
(227,800,l),
(40,800,l),
(40,0,l),
(185,0,l),
(187,300,l),
(227,300,l)
);
},
{
closed = 1;
nodes = (
(227,300,l),
(394,300,o),
(475,389,o),
(475,572,cs),
(475,725,o),
(394,800,o),
(227,800,c),
(227,665,l),
(286,665,o),
(315,634,o),
(315,572,cs),
(315,480,o),
(286,435,o),
(227,435,c)
);
},
{
closed = 1;
nodes = (
(335,0,l),
(492,0,l),
(372,409,l),
(215,409,l)
);
}
);
width = 517;
},
{
anchors = (
{
name = bottom;
pos = (261,0);
},
{
name = top;
pos = (261,800);
}
);
background = {
shapes = (
{
closed = 1;
nodes = (
(267,435,l),
(225,435,l),
(225,665,l),
(267,665,l),
(267,800,l),
(80,800,l),
(80,0,l),
(225,0,l),
(227,300,l),
(267,300,l)
);
},
{
closed = 1;
nodes = (
(267,300,l),
(434,300,o),
(515,389,o),
(515,572,cs),
(515,725,o),
(434,800,o),
(267,800,c),
(267,665,l),
(326,665,o),
(355,634,o),
(355,572,cs),
(355,480,o),
(326,435,o),
(267,435,c)
);
},
{
closed = 1;
nodes = (
(375,0,l),
(532,0,l),
(412,409,l),
(255,409,l)
);
}
);
};
layerId = m002;
shapes = (
{
closed = 1;
nodes = (
(226,372,l),
(100,372,l),
(100,790,l),
(226,790,l),
(226,800,l),
(90,800,l),
(90,0,l),
(99,0,l),
(101,362,l),
(226,362,l)
);
},
{
closed = 1;
nodes = (
(226,362,l),
(393,362,o),
(465,425,o),
(465,572,cs),
(465,732,o),
(393,800,o),
(226,800,c),
(226,790,l),
(386,790,o),
(455,725,o),
(455,572,cs),
(455,432,o),
(386,372,o),
(226,372,c)
);
},
{
closed = 1;
nodes = (
(455,0,l),
(466,0,l),
(318,375,l),
(307,375,l)
);
}
);
width = 521;
}
);
metricLeft = N;
metricRight = O;
unicode = 82;
},
{
glyphname = S;
kernLeft = O;
kernRight = C;
lastChange = "2024-08-02 07:37:23 +0000";
layers = (
{
anchors = (
{
name = bottom;
pos = (240,0);
},
{
name = top;
pos = (240,800);
}
);
layerId = m01;
shapes = (
{
closed = 1;
nodes = (
(379,-10,o),
(447,62,o),
(447,210,cs),
(447,425,o),
(185,469,o),
(185,589,cs),
(185,650,o),
(199,680,o),
(229,680,cs),
(270,680,o),
(290,644,o),
(290,569,c),
(443,569,l),
(443,734,o),
(376,815,o),
(239,815,cs),
(101,815,o),
(33,741,o),
(33,589,cs),
(33,374,o),
(296,330,o),
(296,210,cs),
(296,153,o),
(281,125,o),
(250,125,cs),
(206,125,o),
(185,160,o),
(185,230,c),
(35,230,l),
(35,69,o),
(102,-10,o),
(240,-10,cs)
);
}
);
width = 480;
},
{
anchors = (
{
name = bottom;
pos = (230,0);
},
{
name = top;
pos = (230,800);
}
);
background = {
shapes = (
{
closed = 1;
nodes = (
(369,-10,o),
(437,62,o),
(437,210,cs),
(437,425,o),
(175,469,o),
(175,589,cs),
(175,650,o),
(189,680,o),
(219,680,cs),
(260,680,o),
(280,644,o),
(280,569,c),
(433,569,l),
(433,734,o),
(366,815,o),
(229,815,cs),
(91,815,o),
(23,741,o),
(23,589,cs),
(23,374,o),
(286,330,o),
(286,210,cs),
(286,153,o),
(271,125,o),
(240,125,cs),
(196,125,o),
(175,160,o),
(175,230,c),
(25,230,l),
(25,69,o),
(92,-10,o),
(230,-10,cs)
);
}
);
};
layerId = m002;
shapes = (
{
closed = 1;
nodes = (
(362,-10,o),
(427,56,o),
(427,190,cs),
(427,414,o),
(43,394,o),
(43,609,cs),
(43,741,o),
(104,805,o),
(229,805,cs),
(353,805,o),
(403,741,o),
(413,609,c),
(421,609,l),
(411,747,o),
(358,815,o),
(229,815,cs),
(97,815,o),
(33,747,o),
(33,609,cs),
(33,385,o),
(417,405,o),
(417,190,cs),
(417,62,o),
(356,0,o),
(230,0,cs),
(107,0,o),
(57,62,o),
(47,190,c),
(37,190,l),
(47,56,o),
(100,-10,o),
(230,-10,cs)
);
}
);
width = 460;
}
);
unicode = 83;
},
{
glyphname = Germandbls;
lastChange = "2024-08-02 08:43:23 +0000";
layers = (
{
anchors = (
{
name = bottom;
pos = (254,0);
},
{
name = top;
pos = (254,850);
}
);
layerId = m002;
shapes = (
{
closed = 1;
nodes = (
(140,0,l),
(140,650,l),
(130,650,l),
(130,0,l)
);
},
{
closed = 1;
nodes = (
(136,640,l),
(136,650,l),
(100,650,l),
(100,640,l)
);
},
{
closed = 1;
nodes = (
(140,650,l),
(140,789,l),
(130,800,l),
(130,650,l)
);
},
{
closed = 1;
nodes = (
(364,-18,o),
(458,46,o),
(451,160,cs),
(438,366,o),
(287,292,o),
(287,430,c),
(276,430,l),
(276,285,o),
(428,358,o),
(441,160,cs),
(448,53,o),
(357,-8,o),
(267,0,c),
(267,-10,l)
);
},
{
closed = 1;
nodes = (
(287,430,l),
(287,602,o),
(404,492,o),
(404,690,cs),
(404,782,o),
(346,800,o),
(247,800,c),
(130,800,l),
(140,789,l),
(246,789,l),
(340,789,o),
(394,778,o),
(394,690,cs),
(394,499,o),
(276,609,o),
(276,430,c)
);
}
);
width = 506;
},
{
anchors = (
{
name = bottom;
pos = (300,0);
},
{
name = top;
pos = (300,800);
}
);
layerId = m01;
shapes = (
{
closed = 1;
nodes = (
(210,0,l),
(210,650,l),
(70,650,l),
(70,0,l)
);
},
{
closed = 1;
nodes = (
(205,520,l),
(205,650,l),
(40,650,l),
(40,520,l)
);
},
{
closed = 1;
nodes = (
(210,650,l),
(210,670,l),
(70,800,l),
(70,650,l)
);
},
{
closed = 1;
nodes = (
(451,-10,o),
(531,70,o),
(531,215,cs),
(531,376,o),
(426,324,o),
(426,390,c),
(286,390,l),
(286,297,o),
(391,319,o),
(391,215,cs),
(391,157,o),
(361,125,o),
(307,125,c),
(307,-10,l)
);
},
{
closed = 1;
nodes = (
(426,390,l),
(424,456,o),
(494,449,o),
(494,610,cs),
(494,732,o),
(410,800,o),
(260,800,c),
(70,800,l),
(210,670,l),
(260,670,l),
(320,670,o),
(354,649,o),
(354,610,cs),
(354,506,o),
(286,483,o),
(286,390,c)
);
}
);
width = 556;
}
);
metricRight = O;
unicode = 7838;
},
{
glyphname = T;
kernLeft = V;
kernRight = V;
lastChange = "2024-08-03 06:40:09 +0000";
layers = (
{
anchors = (
{
name = bottom;
pos = (218,0);
},
{
name = center;
pos = (218,400);
},
{
name = top;
pos = (218,800);
}
);
layerId = m01;
shapes = (
{
closed = 1;
nodes = (
(140,800,l),
(140,0,l),
(295,0,l),
(295,800,l)
);
},
{
closed = 1;
nodes = (
(10,660,l),
(150,660,l),
(150,800,l),
(10,800,l)
);
},
{
closed = 1;
nodes = (
(285,660,l),
(425,660,l),
(425,800,l),
(285,800,l)
);
}
);
width = 435;
},
{
anchors = (
{
name = bottom;
pos = (221,0);
},
{
name = center;
pos = (221,400);
},
{
name = top;
pos = (221,800);
}
);
background = {
shapes = (
{
closed = 1;
nodes = (
(143,800,l),
(143,0,l),
(298,0,l),
(298,800,l)
);
},
{
closed = 1;
nodes = (
(13,660,l),
(153,660,l),
(153,800,l),
(13,800,l)
);
},
{
closed = 1;
nodes = (
(288,660,l),
(428,660,l),
(428,800,l),
(288,800,l)
);
}
);
};
layerId = m002;
shapes = (
{
closed = 1;
nodes = (
(215,800,l),
(215,0,l),
(225,0,l),
(225,800,l)
);
},
{
closed = 1;
nodes = (
(33,790,l),
(215,790,l),
(215,800,l),
(33,800,l)
);
},
{
closed = 1;
nodes = (
(225,790,l),
(408,790,l),
(408,800,l),
(225,800,l)
);
}
);
width = 441;
}
);
unicode = 84;
},
{
glyphname = U;
kernLeft = H;
kernRight = H;
lastChange = "2024-08-02 16:34:29 +0000";
layers = (
{
anchors = (
{
name = bottom;
pos = (260,0);
},
{
name = ogonek;
pos = (400,10);
},
{
name = top;
pos = (260,800);
},
{
name = topright;
pos = (500,800);
}
);
layerId = m01;
shapes = (
{
closed = 1;
nodes = (
(407,-10,o),
(480,73,o),
(480,242,c),
(325,242,l),
(325,170,o),
(303,135,o),
(259,135,cs),
(216,135,o),
(195,170,o),
(195,242,c),
(40,242,l),
(40,73,o),
(112,-10,o),
(259,-10,cs)
);
},
{
closed = 1;
nodes = (
(195,242,l),
(195,800,l),
(40,800,l),
(40,242,l)
);
},
{
closed = 1;
nodes = (
(480,242,l),
(480,800,l),
(325,800,l),
(325,242,l)
);
}
);
width = 520;
},
{
anchors = (
{
name = bottom;
pos = (305,0);
},
{
name = ogonek;
pos = (549,10);
},
{
name = top;
pos = (305,800);
},
{
name = topright;
pos = (590,800);
}
);
background = {
shapes = (
{
closed = 1;
nodes = (
(447,-10,o),
(520,73,o),
(520,242,c),
(80,242,l),
(80,73,o),
(152,-10,o),
(299,-10,cs)
);
},
{
closed = 1;
nodes = (
(256,135,o),
(235,170,o),
(235,242,c),
(365,242,l),
(365,170,o),
(343,135,o),
(299,135,cs)
);
},
{
closed = 1;
nodes = (
(80,800,l),
(80,242,l),
(235,242,l),
(235,800,l)
);
},
{
closed = 1;
nodes = (
(365,800,l),
(365,242,l),
(520,242,l),
(520,800,l)
);
}
);
};
layerId = m002;
shapes = (
{
closed = 1;
nodes = (
(427,-10,o),
(520,73,o),
(520,242,c),
(510,242,l),
(510,79,o),
(421,0,o),
(299,0,cs),
(179,0,o),
(100,80,o),
(100,242,c),
(90,242,l),
(90,73,o),
(172,-10,o),
(299,-10,cs)
);
},
{
closed = 1;
nodes = (
(100,242,l),
(100,800,l),
(90,800,l),
(90,242,l)
);
},
{
closed = 1;
nodes = (
(520,242,l),
(520,800,l),
(510,801,l),
(510,242,l)
);
}
);
width = 610;
}
);
metricLeft = N;
metricRight = N;
unicode = 85;
},
{
glyphname = V;
kernLeft = V;
kernRight = V;
lastChange = "2024-08-03 06:37:37 +0000";
layers = (
{
anchors = (
{
name = bottom;
pos = (260,0);
},
{
name = top;
pos = (260,800);
}
);
layerId = m01;
shapes = (
{
closed = 1;
nodes = (
(152,800,l),
(0,800,l),
(170,0,l),
(350,0,l),
(520,800,l),
(368,800,l),
(260,212,l)
);
}
);
width = 520;
},
{
anchors = (
{
name = bottom;
pos = (251,0);
},
{
name = top;
pos = (251,800);
}
);
layerId = m002;
shapes = (
{
closed = 1;
nodes = (
(43,800,l),
(33,800,l),
(246,0,l),
(256,0,l),
(469,800,l),
(459,800,l),
(251,17,l)
);
}
);
width = 502;
}
);
unicode = 86;
},
{
glyphname = W;
kernLeft = W;
kernRight = W;
lastChange = "2024-08-03 06:33:44 +0000";
layers = (
{
anchors = (
{
name = bottom;
pos = (350,0);
},
{
name = top;
pos = (350,800);
}
);
layerId = m01;
shapes = (
{
closed = 1;
nodes = (
(282,0,l),
(415,800,l),
(285,800,l),
(206,260,l),
(217,260,l),
(150,800,l),
(0,800,l),
(142,0,l)
);
},
{
closed = 1;
nodes = (
(568,0,l),
(700,800,l),
(550,800,l),
(492,260,l),
(503,260,l),
(414,800,l),
(284,800,l),
(428,0,l)
);
}
);
width = 700;
},
{
anchors = (
{
name = bottom;
pos = (384,0);
},
{
name = top;
pos = (384,800);
}
);
layerId = m002;
shapes = (
{
closed = 1;
nodes = (
(200,0,l),
(392,800,l),
(381,800,l),
(193,18,l),
(196,18,l),
(43,800,l),
(33,800,l),
(190,0,l)
);
},
{
closed = 1;
nodes = (
(576,0,l),
(734,800,l),
(724,800,l),
(570,18,l),
(573,18,l),
(392,800,l),
(381,800,l),
(566,0,l)
);
}
);
width = 767;
}
);
unicode = 87;
},
{
glyphname = X;
kernLeft = X;
kernRight = X;
lastChange = "2024-08-03 06:32:56 +0000";
layers = (
{
anchors = (
{
name = bottom;
pos = (265,0);
},
{
name = top;
pos = (265,800);
}
);
background = {
shapes = (
{
closed = 1;
nodes = (
(153,800,l),
(1,800,l),
(184,370,l),
(339,370,l),
(521,800,l),
(369,800,l),
(261,542,l)
);
},
{
closed = 1;
nodes = (
(368,0,l),
(520,0,l),
(337,430,l),
(182,430,l),
(0,0,l),
(152,0,l),
(260,258,l)
);
}
);
};
layerId = m01;
shapes = (
{
closed = 1;
nodes = (
(530,0,l),
(163,800,l),
(1,800,l),
(368,0,l)
);
},
{
closed = 1;
nodes = (
(152,0,l),
(293,315,l),
(305,315,l),
(521,800,l),
(369,800,l),
(239,514,l),
(227,514,l),
(0,0,l)
);
}
);
width = 530;
},
{
anchors = (
{
name = bottom;
pos = (259,0);
},
{
name = top;
pos = (259,800);
}
);
background = {
shapes = (
{
closed = 1;
nodes = (
(152,800,l),
(0,800,l),
(183,370,l),
(338,370,l),
(520,800,l),
(368,800,l),
(260,542,l)
);
},
{
closed = 1;
nodes = (
(367,0,l),
(519,0,l),
(336,430,l),
(181,430,l),
(-1,0,l),
(151,0,l),
(259,258,l)
);
}
);
};
layerId = m002;
shapes = (
{
closed = 1;
nodes = (
(482,0,l),
(48,800,l),
(37,800,l),
(471,0,l)
);
},
{
closed = 1;
nodes = (
(46,0,l),
(259,397,l),
(261,397,l),
(474,800,l),
(462,800,l),
(257,410,l),
(255,410,l),
(35,0,l)
);
}
);
width = 517;
}
);
unicode = 88;
},
{
glyphname = Y;
kernLeft = V;
kernRight = V;
lastChange = "2024-08-03 06:40:19 +0000";
layers = (
{
anchors = (
{
name = bottom;
pos = (260,0);
},
{
name = top;
pos = (260,800);
},
{
name = topleft;
pos = (20,800);
}
);
layerId = m01;
shapes = (
{
closed = 1;
nodes = (
(152,800,l),
(0,800,l),
(183,310,l),
(338,310,l),
(520,800,l),
(368,800,l),
(260,482,l)
);
},
{
closed = 1;
nodes = (
(183,310,l),
(183,0,l),
(338,0,l),
(338,310,l)
);
}
);
width = 520;
},
{
anchors = (
{
name = bottom;
pos = (242,0);
},
{
name = top;
pos = (242,800);
},
{
name = topleft;
pos = (20,800);
}
);
layerId = m002;
shapes = (
{
closed = 1;
nodes = (
(44,800,l),
(33,800,l),
(237,360,l),
(247,360,l),
(451,800,l),
(440,800,l),
(242,373,l)
);
},
{
closed = 1;
nodes = (
(237,360,l),
(237,0,l),
(247,0,l),
(247,360,l)
);
}
);
width = 484;
}
);
unicode = 89;
},
{
glyphname = Z;
kernLeft = H;
kernRight = H;
lastChange = "2024-08-02 07:37:23 +0000";
layers = (
{
anchors = (
{
name = bottom;
pos = (220,0);
},
{
name = center;
pos = (220,400);
},
{
name = top;
pos = (220,800);
}
);
layerId = m01;
shapes = (
{
closed = 1;
nodes = (
(415,-1,l),
(415,149,l),
(199,149,l),
(415,675,l),
(415,800,l),
(25,800,l),
(25,650,l),
(237,650,l),
(25,124,l),
(25,-1,l)
);
}
);
width = 440;
},
{
anchors = (
{
name = bottom;
pos = (220,0);
},
{
name = center;
pos = (220,400);
},
{
name = top;
pos = (220,800);
}
);
background = {
shapes = (
{
closed = 1;
nodes = (
(415,-1,l),
(415,149,l),
(199,149,l),
(415,675,l),
(415,800,l),
(25,800,l),
(25,650,l),
(237,650,l),
(25,124,l),
(25,-1,l)
);
}
);
};
layerId = m002;
shapes = (
{
closed = 1;
nodes = (
(405,0,l),
(405,10,l),
(48,10,l),
(405,795,l),
(405,800,l),
(35,800,l),
(35,790,l),
(392,790,l),
(35,5,l),
(35,0,l)
);
}
);
width = 440;
}
);
unicode = 90;
},
{
glyphname = Saltillo;
lastChange = "2024-08-02 16:19:42 +0000";
layers = (
{
layerId = m002;
shapes = (
{
closed = 1;
nodes = (
(154,558,l),
(153,850,l),
(148,850,l),
(149,558,l)
);
}
);
width = 302;
},
{
layerId = m01;
shapes = (
{
closed = 1;
nodes = (
(153,558,l),
(180,850,l),
(77,850,l),
(105,558,l)
);
}
);
width = 257;
}
);
unicode = 42891;
},
{
glyphname = a;
lastChange = "2024-08-03 06:40:45 +0000";
layers = (
{
anchors = (
{
name = bottom;
pos = (235,0);
},
{
name = ogonek;
pos = (423,10);
},
{
name = top;
pos = (252,650);
}
);
background = {
shapes = (
{
closed = 1;
nodes = (
(308,650,l),
(308,212,l),
(308,167,o),
(285,138,o),
(248,138,cs),
(211,138,o),
(188,167,o),
(188,212,cs),
(188,650,l),
(28,650,l),
(28,162,l),
(28,56,o),
(82,-10,o),
(168,-10,cs),
(248,-10,o),
(311,37,o),
(321,109,c),
(314,125,l),
(314,0,l),
(468,0,l),
(468,650,l)
);
}
);
};
layerId = m01;
shapes = (
{
closed = 1;
nodes = (
(237,-10,o),
(276,11,o),
(304,55,c),
(304,0,l),
(429,0,l),
(430,450,ls),
(430,591,o),
(363,660,o),
(227,660,cs),
(91,660,o),
(25,591,o),
(25,450,c),
(155,450,l),
(155,510,o),
(179,535,o),
(227,535,cs),
(263,535,o),
(280,510,o),
(280,450,cs),
(280,391,l),
(102,391,o),
(15,324,o),
(15,187,cs),
(15,55,o),
(71,-10,o),
(185,-10,cs)
);
},
{
closed = 1;
nodes = (
(175,113,o),
(155,137,o),
(155,187,cs),
(155,250,o),
(196,281,o),
(280,281,c),
(279,187,ls),
(278,137,o),
(258,113,o),
(217,113,cs)
);
}
);
width = 470;
},
{
anchors = (
{
name = bottom;
pos = (233,0);
},
{
name = ogonek;
pos = (419,10);
},
{
name = top;
pos = (233,650);
}
);
background = {
shapes = (
{
closed = 1;
nodes = (
(232,-10,o),
(271,11,o),
(299,55,c),
(299,0,l),
(424,0,l),
(425,450,ls),
(425,591,o),
(358,660,o),
(222,660,cs),
(86,660,o),
(20,591,o),
(20,450,c),
(150,450,l),
(150,510,o),
(174,540,o),
(222,540,cs),
(258,540,o),
(275,510,o),
(275,450,cs),
(275,391,l),
(97,391,o),
(10,324,o),
(10,187,cs),
(10,55,o),
(66,-10,o),
(180,-10,cs)
);
},
{
closed = 1;
nodes = (
(170,113,o),
(150,137,o),
(150,187,cs),
(150,250,o),
(191,281,o),
(275,281,c),
(274,187,ls),
(273,137,o),
(253,113,o),
(212,113,cs)
);
}
);
};
layerId = m002;
shapes = (
{
closed = 1;
nodes = (
(285,-10,o),
(346,17,o),
(364,60,c),
(364,0,l),
(374,0,l),
(375,480,ls),
(375,591,o),
(320,660,o),
(232,660,cs),
(132,660,o),
(65,591,o),
(70,480,c),
(80,480,l),
(75,584,o),
(139,650,o),
(232,650,cs),
(314,650,o),
(365,584,o),
(365,480,cs),
(365,346,l),
(175,346,o),
(55,273,o),
(55,157,cs),
(55,54,o),
(113,-10,o),
(206,-10,cs)
);
},
{
closed = 1;
nodes = (
(119,0,o),
(65,61,o),
(65,157,cs),
(65,267,o),
(181,336,o),
(365,336,c),
(364,107,ls),
(364,41,o),
(303,0,o),
(206,0,cs)
);
}
);
width = 465;
}
);
metricLeft = o;
metricRight = n;
unicode = 97;
},
{
glyphname = ae;
lastChange = "2024-08-02 16:02:36 +0000";
layers = (
{
anchors = (
{
name = bottom;
pos = (233,0);
},
{
name = ogonek;
pos = (393,10);
},
{
name = top;
pos = (382,650);
}
);
layerId = m002;
shapes = (
{
closed = 1;
nodes = (
(637,-10,o),
(722,41,o),
(731,146,c),
(721,146,l),
(713,48,o),
(633,0,o),
(566,0,cs),
(434,0,o),
(375,112,o),
(375,342,cs),
(375,549,o),
(434,650,o),
(556,650,cs),
(676,650,o),
(735,548,o),
(735,341,c),
(373,341,l),
(373,331,l),
(745,331,l),
(745,335,o),
(745,337,o),
(745,341,cs),
(745,555,o),
(683,660,o),
(556,660,cs),
(428,660,o),
(368,556,o),
(368,342,cs),
(368,106,o),
(426,-10,o),
(564,-10,cs)
);
},
{
closed = 1;
nodes = (
(285,-10,o),
(346,17,o),
(364,60,c),
(371,75,l),
(372,480,ls),
(372,591,o),
(320,660,o),
(232,660,cs),
(132,660,o),
(65,591,o),
(70,480,c),
(80,480,l),
(75,584,o),
(139,650,o),
(232,650,cs),
(314,650,o),
(365,584,o),
(365,480,cs),
(365,341,l),
(175,341,o),
(55,268,o),
(55,152,cs),
(55,49,o),
(113,-10,o),
(206,-10,cs)
);
},
{
closed = 1;
nodes = (
(119,0,o),
(65,61,o),
(65,157,cs),
(65,267,o),
(181,331,o),
(365,331,c),
(364,104,ls),
(364,38,o),
(303,0,o),
(206,0,cs)
);
}
);
width = 800;
},
{
anchors = (
{
name = bottom;
pos = (300,0);
},
{
name = ogonek;
pos = (343,10);
},
{
name = top;
pos = (362,650);
}
);
layerId = m01;
shapes = (
{
closed = 1;
nodes = (
(614,-10,o),
(683,58,o),
(701,196,c),
(554,196,l),
(548,148,o),
(528,125,o),
(491,125,cs),
(437,125,o),
(420,196,o),
(420,342,cs),
(420,468,o),
(437,530,o),
(491,530,cs),
(544,530,o),
(565,484,o),
(565,391,c),
(348,391,l),
(348,281,l),
(707,281,l),
(709,302,o),
(710,322,o),
(710,342,cs),
(706,556,o),
(634,660,o),
(491,660,cs),
(336,660,o),
(320,556,o),
(320,342,cs),
(320,106,o),
(336,-10,o),
(491,-10,cs)
);
},
{
closed = 1;
nodes = (
(237,-10,o),
(276,11,o),
(304,55,c),
(379,170,l),
(380,450,ls),
(381,591,o),
(363,660,o),
(227,660,cs),
(91,660,o),
(25,591,o),
(25,450,c),
(155,450,l),
(155,510,o),
(179,535,o),
(227,535,cs),
(263,535,o),
(280,510,o),
(280,450,cs),
(280,391,l),
(102,391,o),
(15,324,o),
(15,187,cs),
(15,55,o),
(71,-10,o),
(185,-10,cs)
);
},
{
closed = 1;
nodes = (
(175,113,o),
(155,137,o),
(155,187,cs),
(155,250,o),
(196,281,o),
(280,281,c),
(279,187,ls),
(278,137,o),
(258,113,o),
(217,113,cs)
);
}
);
width = 725;
}
);
metricRight = e;
unicode = 230;
},
{
glyphname = b;
lastChange = "2024-08-02 07:37:23 +0000";
layers = (
{
anchors = (
{
name = bottom;
pos = (255,0);
},
{
name = center;
pos = (128,680);
},
{
name = top;
pos = (255,650);
}
);
layerId = m01;
shapes = (
{
closed = 1;
nodes = (
(40,850,l),
(40,0,l),
(190,0,l),
(190,850,l)
);
},
{
closed = 1;
nodes = (
(437,-10,o),
(495,106,o),
(495,342,cs),
(495,556,o),
(437,660,o),
(319,660,cs),
(192,660,o),
(135,556,o),
(135,342,cs),
(135,106,o),
(192,-10,o),
(319,-10,cs)
);
},
{
closed = 1;
nodes = (
(230,115,o),
(200,190,o),
(200,342,cs),
(200,465,o),
(230,525,o),
(270,525,cs),
(310,525,o),
(340,465,o),
(340,342,cs),
(340,190,o),
(310,115,o),
(270,115,cs)
);
}
);
width = 510;
},
{
anchors = (
{
name = bottom;
pos = (270,0);
},
{
name = center;
pos = (135,680);
},
{
name = top;
pos = (270,650);
}
);
background = {
shapes = (
{
closed = 1;
nodes = (
(80,850,l),
(80,0,l),
(230,0,l),
(230,850,l)
);
},
{
closed = 1;
nodes = (
(477,-10,o),
(535,106,o),
(535,342,cs),
(535,556,o),
(477,660,o),
(359,660,cs),
(232,660,o),
(175,556,o),
(175,342,cs),
(175,106,o),
(232,-10,o),
(359,-10,cs)
);
},
{
closed = 1;
nodes = (
(270,115,o),
(240,190,o),
(240,342,cs),
(240,465,o),
(270,525,o),
(310,525,cs),
(350,525,o),
(380,465,o),
(380,342,cs),
(380,190,o),
(350,115,o),
(310,115,cs)
);
}
);
};
layerId = m002;
shapes = (
{
closed = 1;
nodes = (
(90,850,l),
(90,0,l),
(100,0,l),
(100,850,l)
);
},
{
closed = 1;
nodes = (
(426,-10,o),
(485,106,o),
(485,342,cs),
(485,556,o),
(426,660,o),
(305,660,cs),
(161,660,o),
(90,556,o),
(90,342,cs),
(90,106,o),
(161,-10,o),
(305,-10,cs)
);
},
{
closed = 1;
nodes = (
(167,0,o),
(100,112,o),
(100,342,cs),
(100,549,o),
(167,650,o),
(305,650,cs),
(419,650,o),
(475,549,o),
(475,342,cs),
(475,112,o),
(419,0,o),
(305,0,cs)
);
}
);
width = 540;
}
);
metricLeft = n;
metricRight = o;
unicode = 98;
},
{
glyphname = c;
lastChange = "2024-08-03 06:25:41 +0000";
layers = (
{
anchors = (
{
name = bottom;
pos = (230,0);
},
{
name = top;
pos = (230,650);
}
);
layerId = m01;
shapes = (
{
closed = 1;
nodes = (
(445,410,l),
(445,578,o),
(377,660,o),
(237,660,cs),
(88,660,o),
(15,556,o),
(15,344,cs),
(15,106,o),
(88,-10,o),
(237,-10,cs),
(375,-10,o),
(442,66,o),
(442,220,c),
(289,220,l),
(289,156,o),
(272,125,o),
(237,125,cs),
(195,125,o),
(175,196,o),
(175,342,cs),
(175,465,o),
(195,525,o),
(237,525,cs),
(276,525,o),
(295,487,o),
(295,410,c)
);
}
);
width = 460;
},
{
anchors = (
{
name = bottom;
pos = (239,0);
},
{
name = top;
pos = (239,650);
}
);
background = {
shapes = (
{
closed = 1;
nodes = (
(530,410,l),
(530,578,o),
(462,660,o),
(322,660,cs),
(173,660,o),
(100,556,o),
(100,344,cs),
(100,106,o),
(173,-10,o),
(322,-10,cs),
(460,-10,o),
(527,66,o),
(527,220,c),
(374,220,l),
(374,156,o),
(357,125,o),
(322,125,cs),
(280,125,o),
(260,196,o),
(260,342,cs),
(260,465,o),
(280,525,o),
(322,525,cs),
(361,525,o),
(380,487,o),
(380,410,c)
);
}
);
};
layerId = m002;
shapes = (
{
closed = 1;
nodes = (
(423,460,l),
(415,594,o),
(345,660,o),
(247,660,cs),
(118,660,o),
(55,556,o),
(55,344,cs),
(55,106,o),
(118,-10,o),
(247,-10,cs),
(333,-10,o),
(411,49,o),
(419,170,c),
(409,170,l),
(401,56,o),
(326,0,o),
(247,0,cs),
(125,0,o),
(65,112,o),
(65,342,cs),
(65,549,o),
(125,650,o),
(247,650,cs),
(339,650,o),
(405,588,o),
(413,460,c)
);
}
);
width = 478;
}
);
metricLeft = o;
metricRight = o;
unicode = 99;
},
{
glyphname = d;
lastChange = "2024-08-02 16:47:19 +0000";
layers = (
{
anchors = (
{
name = bottom;
pos = (255,0);
},
{
name = center;
pos = (383,680);
},
{
name = top;
pos = (255,650);
},
{
name = topright;
pos = (450,850);
}
);
layerId = m01;
shapes = (
{
closed = 1;
nodes = (
(320,0,l),
(470,0,l),
(470,850,l),
(320,850,l)
);
},
{
closed = 1;
nodes = (
(318,-10,o),
(375,106,o),
(375,342,cs),
(375,556,o),
(318,660,o),
(191,660,cs),
(73,660,o),
(15,556,o),
(15,342,cs),
(15,106,o),
(73,-10,o),
(191,-10,cs)
);
},
{
closed = 1;
nodes = (
(200,125,o),
(170,196,o),
(170,342,cs),
(170,465,o),
(200,525,o),
(240,525,cs),
(280,525,o),
(310,465,o),
(310,342,cs),
(310,196,o),
(280,125,o),
(240,125,cs)
);
}
);
width = 510;
},
{
anchors = (
{
name = bottom;
pos = (270,0);
},
{
name = center;
pos = (405,680);
},
{
name = top;
pos = (270,650);
},
{
name = topright;
pos = (460,850);
}
);
layerId = m002;
shapes = (
{
closed = 1;
nodes = (
(440,0,l),
(450,0,l),
(450,850,l),
(440,850,l)
);
},
{
closed = 1;
nodes = (
(379,-10,o),
(450,106,o),
(450,342,cs),
(450,556,o),
(379,660,o),
(235,660,cs),
(114,660,o),
(55,556,o),
(55,342,cs),
(55,106,o),
(114,-10,o),
(235,-10,cs)
);
},
{
closed = 1;
nodes = (
(121,0,o),
(65,112,o),
(65,342,cs),
(65,549,o),
(121,650,o),
(235,650,cs),
(373,650,o),
(440,549,o),
(440,342,cs),
(440,112,o),
(373,0,o),
(235,0,cs)
);
}
);
width = 540;
}
);
metricLeft = o;
metricRight = n;
unicode = 100;
},
{
glyphname = eth;
lastChange = "2024-08-03 06:42:41 +0000";
layers = (
{
anchors = (
{
name = bottom;
pos = (334,0);
},
{
name = top;
pos = (334,850);
}
);
layerId = m002;
shapes = (
{
closed = 1;
nodes = (
(418,475,o),
(354,513,o),
(262,513,c),
(123,513,o),
(55,436,o),
(55,280,cs),
(55,85,o),
(123,-10,o),
(262,-10,cs),
(400,-10,o),
(467,85,o),
(467,280,c),
(457,280,l),
(457,92,o),
(393,0,o),
(262,0,cs),
(130,0,o),
(65,92,o),
(65,280,cs),
(65,429,o),
(130,502,o),
(262,502,cs),
(357,502,o),
(421,461,o),
(456,377,c),
(456,396,l)
);
},
{
closed = 1;
nodes = (
(467,600,o),
(360,776,o),
(141,817,c),
(138,808,l),
(350,769,o),
(455,595,o),
(457,280,c),
(509,280,o),
(415,280,o),
(467,280,cs)
);
},
{
angle = 30;
pos = (415,277);
ref = hyphen;
}
);
width = 557;
},
{
anchors = (
{
name = bottom;
pos = (276,0);
},
{
name = top;
pos = (276,850);
}
);
layerId = m01;
shapes = (
{
closed = 1;
nodes = (
(307,518,o),
(275,533,o),
(242,533,c),
(90,533,o),
(15,450,o),
(15,280,cs),
(15,85,o),
(83,-10,o),
(222,-10,cs),
(359,-10,o),
(427,85,o),
(427,280,c),
(278,280,l),
(278,159,o),
(273,100,o),
(222,100,cs),
(170,100,o),
(164,159,o),
(164,280,cs),
(164,376,o),
(176,423,o),
(242,423,cs),
(281,423,o),
(313,409,o),
(340,381,c),
(338,487,l)
);
},
{
closed = 1;
nodes = (
(427,600,o),
(320,776,o),
(101,817,c),
(83,711,l),
(225,677,o),
(276,535,o),
(278,280,c),
(330,280,o),
(375,280,o),
(427,280,cs)
);
},
{
angle = 30;
pos = (209,458);
ref = hyphen;
scale = (1,0.3813);
}
);
width = 467;
}
);
metricLeft = o;
metricRight = n;
unicode = 240;
},
{
glyphname = e;
lastChange = "2024-08-02 16:34:39 +0000";
layers = (
{
anchors = (
{
name = bottom;
pos = (235,0);
},
{
name = ogonek;
pos = (353,0);
},
{
name = top;
pos = (235,650);
}
);
layerId = m01;
shapes = (
{
closed = 1;
nodes = (
(359,-10,o),
(428,58,o),
(446,196,c),
(299,196,l),
(293,148,o),
(273,125,o),
(236,125,cs),
(182,125,o),
(165,196,o),
(165,342,cs),
(165,468,o),
(182,530,o),
(236,530,cs),
(289,530,o),
(310,484,o),
(310,391,c),
(93,391,l),
(93,281,l),
(452,281,l),
(454,302,o),
(455,322,o),
(455,342,cs),
(451,556,o),
(379,660,o),
(236,660,cs),
(81,660,o),
(15,556,o),
(15,342,cs),
(15,106,o),
(81,-10,o),
(236,-10,cs)
);
}
);
width = 470;
},
{
anchors = (
{
name = bottom;
pos = (245,0);
},
{
name = ogonek;
pos = (441,10);
},
{
name = top;
pos = (245,650);
}
);
background = {
shapes = (
{
closed = 1;
nodes = (
(444,-10,o),
(513,58,o),
(531,196,c),
(384,196,l),
(378,148,o),
(358,125,o),
(321,125,cs),
(267,125,o),
(250,196,o),
(250,342,cs),
(250,468,o),
(267,530,o),
(321,530,cs),
(374,530,o),
(395,484,o),
(395,391,c),
(178,391,l),
(178,281,l),
(537,281,l),
(539,302,o),
(540,322,o),
(540,342,cs),
(536,556,o),
(464,660,o),
(321,660,cs),
(166,660,o),
(100,556,o),
(100,342,cs),
(100,106,o),
(166,-10,o),
(321,-10,cs)
);
}
);
};
layerId = m002;
shapes = (
{
closed = 1;
nodes = (
(329,-10,o),
(412,41,o),
(421,146,c),
(411,146,l),
(403,48,o),
(323,0,o),
(256,0,cs),
(124,0,o),
(65,112,o),
(65,342,cs),
(65,549,o),
(124,650,o),
(246,650,cs),
(366,650,o),
(425,548,o),
(425,341,c),
(63,341,l),
(63,331,l),
(435,331,l),
(435,335,o),
(435,337,o),
(435,341,cs),
(435,555,o),
(373,660,o),
(246,660,cs),
(118,660,o),
(55,556,o),
(55,342,cs),
(55,106,o),
(118,-10,o),
(256,-10,cs)
);
}
);
width = 490;
}
);
metricLeft = o;
metricRight = o;
unicode = 101;
},
{
glyphname = schwa;
lastChange = "2024-08-02 09:11:46 +0000";
layers = (
{
anchors = (
{
name = bottom;
pos = (300,0);
},
{
name = top;
pos = (300,650);
}
);
layerId = m002;
shapes = (
{
closed = 1;
nodes = (
(161,660,o),
(78,609,o),
(69,504,c),
(79,504,l),
(87,602,o),
(167,650,o),
(234,650,cs),
(366,650,o),
(425,538,o),
(425,308,cs),
(425,101,o),
(366,0,o),
(244,0,cs),
(124,0,o),
(65,102,o),
(65,309,c),
(427,309,l),
(427,319,l),
(55,319,l),
(55,315,o),
(55,313,o),
(55,309,cs),
(55,95,o),
(117,-10,o),
(244,-10,cs),
(372,-10,o),
(435,94,o),
(435,308,cs),
(435,544,o),
(372,660,o),
(234,660,cs)
);
}
);
width = 490;
},
{
anchors = (
{
name = bottom;
pos = (300,0);
},
{
name = top;
pos = (300,650);
}
);
layerId = m01;
shapes = (
{
closed = 1;
nodes = (
(111,660,o),
(42,592,o),
(24,454,c),
(171,454,l),
(177,502,o),
(197,525,o),
(234,525,cs),
(288,525,o),
(305,454,o),
(305,308,cs),
(305,182,o),
(288,120,o),
(234,120,cs),
(181,120,o),
(160,166,o),
(160,259,c),
(377,259,l),
(377,369,l),
(18,369,l),
(16,348,o),
(15,328,o),
(15,308,cs),
(19,94,o),
(91,-10,o),
(234,-10,cs),
(389,-10,o),
(455,94,o),
(455,308,cs),
(455,544,o),
(389,660,o),
(234,660,cs)
);
}
);
width = 470;
}
);
metricLeft = o;
metricRight = o;
unicode = 601;
},
{
glyphname = f;
lastChange = "2024-08-03 06:41:02 +0000";
layers = (
{
anchors = (
{
name = bottom;
pos = (143,0);
},
{
name = top;
pos = (143,850);
}
);
layerId = m01;
shapes = (
{
closed = 1;
nodes = (
(210,0,l),
(210,650,l),
(60,650,l),
(60,0,l)
);
},
{
closed = 1;
nodes = (
(285,520,l),
(285,650,l),
(0,650,l),
(0,520,l)
);
},
{
closed = 1;
nodes = (
(210,645,l),
(210,695,o),
(223,719,o),
(250,719,c),
(262,719,o),
(274,718,o),
(285,716,c),
(285,851,l),
(261,857,o),
(233,860,o),
(200,860,cs),
(106,860,o),
(60,789,o),
(60,645,c)
);
}
);
width = 285;
},
{
anchors = (
{
name = bottom;
pos = (143,0);
},
{
name = top;
pos = (143,850);
}
);
background = {
shapes = (
{
closed = 1;
nodes = (
(210,0,l),
(210,650,l),
(60,650,l),
(60,0,l)
);
},
{
closed = 1;
nodes = (
(285,520,l),
(285,650,l),
(0,650,l),
(0,520,l)
);
},
{
closed = 1;
nodes = (
(210,645,l),
(210,695,o),
(223,719,o),
(250,719,c),
(262,719,o),
(274,718,o),
(285,716,c),
(285,851,l),
(261,857,o),
(233,860,o),
(200,860,cs),
(106,860,o),
(60,789,o),
(60,645,c)
);
}
);
};
layerId = m002;
shapes = (
{
closed = 1;
nodes = (
(140,0,l),
(140,650,l),
(130,650,l),
(130,0,l)
);
},
{
closed = 1;
nodes = (
(255,640,l),
(255,650,l),
(30,650,l),
(30,640,l)
);
},
{
closed = 1;
nodes = (
(140,650,l),
(140,780,o),
(170,844,o),
(230,844,cs),
(231,844,o),
(252,844,o),
(255,844,c),
(255,854,l),
(253,855,o),
(245,855,o),
(230,855,cs),
(163,855,o),
(130,788,o),
(130,650,c)
);
}
);
width = 285;
}
);
unicode = 102;
},
{
glyphname = g;
lastChange = "2024-08-02 07:37:23 +0000";
layers = (
{
anchors = (
{
name = bottom;
pos = (255,-200);
},
{
name = top;
pos = (255,650);
}
);
layerId = m01;
shapes = (
{
closed = 1;
nodes = (
(316,-33,l),
(316,-79,o),
(293,-101,o),
(246,-101,cs),
(200,-101,o),
(177,-68,o),
(177,-41,c),
(36,-41,l),
(36,-145,o),
(105,-216,o),
(246,-216,cs),
(396,-216,o),
(470,-155,o),
(470,-31,cs),
(469,650,l),
(321,650,l)
);
},
{
closed = 1;
nodes = (
(328,0,o),
(395,112,o),
(395,342,cs),
(395,556,o),
(328,660,o),
(191,660,cs),
(73,660,o),
(15,556,o),
(15,342,cs),
(15,112,o),
(73,0,o),
(191,0,cs)
);
},
{
closed = 1;
nodes = (
(193,125,o),
(170,196,o),
(170,342,cs),
(170,465,o),
(193,525,o),
(240,525,cs),
(287,525,o),
(310,465,o),
(310,342,cs),
(310,196,o),
(287,125,o),
(240,125,cs)
);
}
);
width = 510;
},
{
anchors = (
{
name = bottom;
pos = (270,-200);
},
{
name = top;
pos = (270,650);
}
);
background = {
shapes = (
{
closed = 1;
nodes = (
(401,-33,l),
(401,-79,o),
(378,-101,o),
(331,-101,cs),
(285,-101,o),
(262,-68,o),
(262,-41,c),
(121,-41,l),
(121,-145,o),
(190,-216,o),
(331,-216,cs),
(481,-216,o),
(555,-155,o),
(555,-31,cs),
(554,650,l),
(406,650,l)
);
},
{
closed = 1;
nodes = (
(413,0,o),
(480,112,o),
(480,342,cs),
(480,556,o),
(413,660,o),
(276,660,cs),
(158,660,o),
(100,556,o),
(100,342,cs),
(100,112,o),
(158,0,o),
(276,0,cs)
);
},
{
closed = 1;
nodes = (
(278,125,o),
(255,196,o),
(255,342,cs),
(255,465,o),
(278,525,o),
(325,525,cs),
(372,525,o),
(395,465,o),
(395,342,cs),
(395,196,o),
(372,125,o),
(325,125,cs)
);
}
);
};
layerId = m002;
shapes = (
{
closed = 1;
nodes = (
(440,-32,ls),
(440,-145,o),
(380,-200,o),
(256,-200,cs),
(164,-200,o),
(104,-167,o),
(94,-91,c),
(84,-91,l),
(94,-174,o),
(156,-210,o),
(256,-210,cs),
(386,-210,o),
(450,-152,o),
(450,-32,cs),
(449,650,l),
(439,650,l)
);
},
{
closed = 1;
nodes = (
(376,-10,o),
(449,106,o),
(449,342,cs),
(449,556,o),
(376,660,o),
(246,660,cs),
(111,660,o),
(55,556,o),
(55,342,cs),
(55,106,o),
(111,-10,o),
(246,-10,cs)
);
},
{
closed = 1;
nodes = (
(118,0,o),
(65,112,o),
(65,342,cs),
(65,549,o),
(118,650,o),
(246,650,cs),
(369,650,o),
(439,549,o),
(439,342,cs),
(439,112,o),
(369,0,o),
(246,0,cs)
);
}
);
width = 540;
}
);
metricLeft = o;
metricRight = n;
unicode = 103;
},
{
glyphname = h;
lastChange = "2024-08-02 16:37:08 +0000";
layers = (
{
anchors = (
{
name = bottom;
pos = (260,0);
},
{
name = center;
pos = (130,680);
},
{
name = top;
pos = (118,850);
}
);
background = {
shapes = (
{
closed = 1;
nodes = (
(200,0,l),
(200,438,l),
(200,483,o),
(223,512,o),
(260,512,cs),
(297,512,o),
(320,483,o),
(320,438,cs),
(320,0,l),
(480,0,l),
(480,488,l),
(480,594,o),
(426,660,o),
(340,660,cs),
(260,660,o),
(197,613,o),
(187,541,c),
(194,525,l),
(194,650,l),
(40,650,l),
(40,0,l)
);
}
);
};
layerId = m01;
shapes = (
{
closed = 1;
nodes = (
(200,0,l),
(200,145,o),
(200,394,o),
(200,438,cs),
(200,486,o),
(221,512,o),
(260,512,cs),
(299,512,o),
(320,486,o),
(320,438,cs),
(320,0,l),
(480,0,l),
(480,150,o),
(480,404,o),
(480,489,cs),
(480,599,o),
(430,660,o),
(340,660,cs),
(257,660,o),
(202,617,o),
(187,541,c),
(197,525,l),
(197,850,l),
(40,850,l),
(40,0,l)
);
}
);
width = 520;
},
{
anchors = (
{
name = bottom;
pos = (280,0);
},
{
name = center;
pos = (140,680);
},
{
name = top;
pos = (280,850);
}
);
background = {
shapes = (
{
closed = 1;
nodes = (
(240,0,l),
(240,145,o),
(240,394,o),
(240,438,cs),
(240,486,o),
(261,512,o),
(300,512,cs),
(339,512,o),
(360,486,o),
(360,438,cs),
(360,0,l),
(520,0,l),
(520,150,o),
(520,404,o),
(520,489,cs),
(520,599,o),
(470,660,o),
(380,660,cs),
(297,660,o),
(242,617,o),
(227,541,c),
(237,525,l),
(237,850,l),
(80,850,l),
(80,0,l)
);
}
);
};
layerId = m002;
shapes = (
{
closed = 1;
nodes = (
(100,0,l),
(100,146,o),
(100,399,o),
(100,438,cs),
(100,580,o),
(162,650,o),
(290,650,cs),
(404,650,o),
(460,589,o),
(460,464,cs),
(460,0,l),
(470,0,l),
(470,151,o),
(470,388,o),
(470,464,cs),
(470,596,o),
(411,660,o),
(290,660,cs),
(167,660,o),
(103,601,o),
(95,479,c),
(100,455,l),
(100,850,l),
(90,850,l),
(90,0,l)
);
}
);
width = 560;
}
);
metricLeft = n;
metricRight = n;
unicode = 104;
},
{
glyphname = i;
lastChange = "2024-08-02 16:36:48 +0000";
layers = (
{
anchors = (
{
name = bottom;
pos = (120,0);
}
);
layerId = m01;
shapes = (
{
ref = idotless;
},
{
pos = (-28,0);
ref = dotaccentcomb;
}
);
width = 240;
},
{
anchors = (
{
name = bottom;
pos = (120,0);
}
);
background = {
shapes = (
{
closed = 1;
nodes = (
(40,651,l),
(40,0,l),
(200,0,l),
(200,651,l)
);
},
{
closed = 1;
nodes = (
(37,716,l),
(203,716,l),
(203,850,l),
(37,850,l)
);
}
);
};
layerId = m002;
shapes = (
{
ref = idotless;
},
{
pos = (-38,0);
ref = dotaccentcomb;
}
);
width = 234;
}
);
unicode = 105;
},
{
glyphname = idotless;
lastChange = "2024-08-02 07:45:21 +0000";
layers = (
{
anchors = (
{
name = bottom;
pos = (112,0);
},
{
name = ogonek;
pos = (112,0);
},
{
name = top;
pos = (112,650);
}
);
layerId = m002;
shapes = (
{
closed = 1;
nodes = (
(112,650,l),
(112,0,l),
(122,0,l),
(122,650,l)
);
}
);
width = 234;
},
{
anchors = (
{
name = bottom;
pos = (126,0);
},
{
name = ogonek;
pos = (130,0);
},
{
name = top;
pos = (122,650);
}
);
layerId = m01;
shapes = (
{
closed = 1;
nodes = (
(40,651,l),
(40,0,l),
(200,0,l),
(200,651,l)
);
}
);
width = 240;
}
);
unicode = 305;
},
{
glyphname = jdotless;
lastChange = "2024-08-02 07:47:04 +0000";
layers = (
{
anchors = (
{
name = bottom;
pos = (115,-200);
},
{
name = top;
pos = (121,650);
}
);
layerId = m002;
shapes = (
{
closed = 1;
nodes = (
(115,650,l),
(115,0,l),
(125,0,l),
(125,650,l)
);
},
{
closed = 1;
nodes = (
(94,-205,o),
(125,-138,o),
(125,0,c),
(115,0,l),
(115,-131,o),
(87,-195,o),
(30,-195,c),
(30,-205,l)
);
}
);
width = 237;
},
{
anchors = (
{
name = bottom;
pos = (107,-200);
},
{
name = top;
pos = (121,650);
}
);
layerId = m01;
shapes = (
{
closed = 1;
nodes = (
(40,651,l),
(40,0,l),
(200,0,l),
(200,651,l)
);
},
{
closed = 1;
nodes = (
(134,-216,o),
(200,-145,o),
(200,0,c),
(40,0,l),
(40,-58,o),
(27,-86,o),
(0,-86,c),
(0,-216,l)
);
}
);
width = 237;
}
);
unicode = 567;
},
{
glyphname = k;
lastChange = "2024-08-03 06:41:39 +0000";
layers = (
{
anchors = (
{
name = bottom;
pos = (270,0);
},
{
name = top;
pos = (270,850);
}
);
layerId = m01;
shapes = (
{
closed = 1;
nodes = (
(40,850,l),
(40,0,l),
(195,0,l),
(195,850,l)
);
},
{
closed = 1;
nodes = (
(331,650,l),
(181,349,l),
(342,349,l),
(501,650,l)
);
},
{
closed = 1;
nodes = (
(342,349,l),
(152,349,l),
(341,0,l),
(540,0,l)
);
}
);
width = 520;
},
{
anchors = (
{
name = bottom;
pos = (233,0);
},
{
name = top;
pos = (233,850);
}
);
background = {
shapes = (
{
closed = 1;
nodes = (
(40,800,l),
(40,0,l),
(195,0,l),
(195,800,l)
);
},
{
closed = 1;
nodes = (
(331,650,l),
(181,349,l),
(342,349,l),
(501,650,l)
);
},
{
closed = 1;
nodes = (
(342,349,l),
(152,349,l),
(341,0,l),
(540,0,l)
);
}
);
};
layerId = m002;
shapes = (
{
closed = 1;
nodes = (
(72,850,l),
(70,0,l),
(80,0,l),
(82,850,l)
);
},
{
closed = 1;
nodes = (
(398,650,l),
(73,348,l),
(84,348,l),
(409,650,l)
);
},
{
closed = 1;
nodes = (
(84,348,l),
(73,348,l),
(434,0,l),
(445,0,l)
);
}
);
width = 465;
}
);
unicode = 107;
},
{
glyphname = l;
lastChange = "2024-08-02 16:47:40 +0000";
layers = (
{
anchors = (
{
name = bottom;
pos = (118,0);
},
{
name = center;
pos = (118,325);
},
{
name = top;
pos = (118,850);
},
{
name = topright;
pos = (175,850);
}
);
layerId = m01;
shapes = (
{
closed = 1;
nodes = (
(40,850,l),
(40,0,l),
(195,0,l),
(195,850,l)
);
}
);
width = 235;
},
{
anchors = (
{
name = bottom;
pos = (118,0);
},
{
name = center;
pos = (118,325);
},
{
name = top;
pos = (118,850);
},
{
name = topright;
pos = (215,850);
}
);
background = {
shapes = (
{
closed = 1;
nodes = (
(40,850,l),
(40,0,l),
(195,0,l),
(195,850,l)
);
}
);
};
layerId = m002;
shapes = (
{
closed = 1;
nodes = (
(112,850,l),
(112,0,l),
(122,0,l),
(122,850,l)
);
}
);
width = 235;
}
);
unicode = 108;
},
{
glyphname = m;
lastChange = "2024-08-03 11:59:34 +0000";
layers = (
{
anchors = (
{
name = bottom;
pos = (400,0);
},
{
name = top;
pos = (400,650);
}
);
layerId = m01;
shapes = (
{
closed = 1;
nodes = (
(200,0,l),
(200,438,l),
(200,486,o),
(221,512,o),
(260,512,cs),
(299,512,o),
(320,486,o),
(320,438,cs),
(320,0,l),
(475,0,l),
(475,510,l),
(474,606,o),
(426,660,o),
(340,660,cs),
(268,660,o),
(216,628,o),
(194,570,c),
(194,650,l),
(40,650,l),
(40,0,l)
);
},
{
closed = 1;
nodes = (
(760,0,l),
(760,509,l),
(760,606,o),
(710,660,o),
(620,660,cs),
(523,660,o),
(461,615,o),
(446,535,c),
(475,438,l),
(475,486,o),
(498,512,o),
(540,512,cs),
(579,512,o),
(600,486,o),
(600,438,cs),
(600,0,l)
);
}
);
width = 798;
},
{
anchors = (
{
name = bottom;
pos = (431,0);
},
{
name = top;
pos = (431,650);
}
);
background = {
shapes = (
{
closed = 1;
nodes = (
(200,0,l),
(200,145,o),
(200,394,o),
(200,438,cs),
(200,486,o),
(221,512,o),
(260,512,cs),
(299,512,o),
(320,486,o),
(320,438,cs),
(320,0,l),
(475,0,l),
(475,510,l),
(474,606,o),
(426,660,o),
(340,660,cs),
(268,660,o),
(216,628,o),
(194,570,c),
(194,650,l),
(40,650,l),
(40,0,l)
);
},
{
closed = 1;
nodes = (
(475,438,l),
(475,486,o),
(498,512,o),
(540,512,cs),
(579,512,o),
(600,486,o),
(600,438,cs),
(600,0,l),
(760,0,l),
(760,150,o),
(760,424,o),
(760,509,cs),
(760,606,o),
(710,660,o),
(620,660,cs),
(523,660,o),
(461,615,o),
(446,535,c)
);
}
);
};
layerId = m002;
shapes = (
{
closed = 1;
nodes = (
(100,0,l),
(100,470,l),
(100,591,o),
(158,650,o),
(276,650,cs),
(379,650,o),
(430,591,o),
(430,470,cs),
(430,0,l),
(440,0,l),
(440,470,l),
(440,598,o),
(386,660,o),
(276,660,cs),
(178,660,o),
(120,621,o),
(100,541,c),
(100,650,l),
(90,650,l),
(91,0,l)
);
},
{
closed = 1;
nodes = (
(771,0,l),
(771,470,l),
(771,598,o),
(717,660,o),
(607,660,cs),
(508,660,o),
(450,621,o),
(431,542,c),
(431,470,l),
(431,591,o),
(489,650,o),
(607,650,cs),
(710,650,o),
(761,591,o),
(761,470,cs),
(761,0,l)
);
}
);
width = 861;
}
);
metricLeft = n;
metricRight = n;
unicode = 109;
},
{
glyphname = n;
lastChange = "2024-08-03 06:31:51 +0000";
layers = (
{
anchors = (
{
name = bottom;
pos = (260,0);
},
{
name = top;
pos = (260,650);
}
);
background = {
shapes = (
{
closed = 1;
nodes = (
(417,-10,o),
(485,96,o),
(485,342,cs),
(485,565,o),
(417,660,o),
(260,660,cs),
(103,660,o),
(35,565,o),
(35,342,cs),
(35,96,o),
(103,-10,o),
(260,-10,cs)
);
},
{
closed = 1;
nodes = (
(215,125,o),
(195,190,o),
(195,342,cs),
(195,470,o),
(215,525,o),
(260,525,cs),
(305,525,o),
(325,470,o),
(325,342,cs),
(325,190,o),
(305,125,o),
(260,125,cs)
);
}
);
};
layerId = m01;
shapes = (
{
closed = 1;
nodes = (
(200,0,l),
(200,438,l),
(200,488,o),
(220,512,o),
(260,512,cs),
(300,512,o),
(320,488,o),
(320,438,cs),
(320,0,l),
(480,0,l),
(480,488,l),
(480,603,o),
(434,660,o),
(340,660,cs),
(267,660,o),
(216,634,o),
(187,581,c),
(194,525,l),
(194,650,l),
(40,650,l),
(40,0,l)
);
}
);
width = 520;
},
{
anchors = (
{
name = bottom;
pos = (265,0);
},
{
name = top;
pos = (265,650);
}
);
background = {
shapes = (
{
closed = 1;
nodes = (
(210,0,l),
(210,438,l),
(210,483,o),
(233,512,o),
(270,512,cs),
(307,512,o),
(330,483,o),
(330,438,cs),
(330,0,l),
(490,0,l),
(490,488,l),
(490,594,o),
(436,660,o),
(350,660,cs),
(270,660,o),
(207,613,o),
(197,541,c),
(204,525,l),
(204,650,l),
(50,650,l),
(50,0,l)
);
}
);
};
layerId = m002;
shapes = (
{
closed = 1;
nodes = (
(100,0,l),
(100,470,l),
(100,591,o),
(158,650,o),
(276,650,cs),
(379,650,o),
(430,591,o),
(430,470,cs),
(430,0,l),
(440,0,l),
(440,470,l),
(440,598,o),
(386,660,o),
(276,660,cs),
(180,660,o),
(122,621,o),
(100,542,c),
(100,521,l),
(100,650,l),
(90,650,l),
(90,0,l)
);
}
);
width = 530;
}
);
unicode = 110;
},
{
glyphname = o;
lastChange = "2024-08-03 06:32:58 +0000";
layers = (
{
anchors = (
{
name = bottom;
pos = (240,0);
},
{
name = center;
pos = (240,325);
},
{
name = ogonek;
pos = (432,10);
},
{
name = top;
pos = (240,650);
},
{
name = topright;
pos = (460,650);
}
);
background = {
shapes = (
{
closed = 1;
nodes = (
(180,0,l),
(180,438,l),
(180,483,o),
(203,512,o),
(240,512,cs),
(277,512,o),
(300,483,o),
(300,438,cs),
(300,0,l),
(460,0,l),
(460,488,l),
(460,594,o),
(406,660,o),
(320,660,cs),
(240,660,o),
(177,613,o),
(167,541,c),
(174,525,l),
(174,650,l),
(20,650,l),
(20,0,l)
);
}
);
};
layerId = m01;
shapes = (
{
closed = 1;
nodes = (
(397,-10,o),
(465,96,o),
(465,342,cs),
(465,565,o),
(397,660,o),
(240,660,cs),
(83,660,o),
(15,565,o),
(15,342,cs),
(15,96,o),
(83,-10,o),
(240,-10,cs)
);
},
{
closed = 1;
nodes = (
(195,125,o),
(175,190,o),
(175,342,cs),
(175,470,o),
(195,525,o),
(240,525,cs),
(285,525,o),
(305,470,o),
(305,342,cs),
(305,190,o),
(285,125,o),
(240,125,cs)
);
}
);
width = 480;
},
{
anchors = (
{
name = bottom;
pos = (240,0);
},
{
name = center;
pos = (240,325);
},
{
name = ogonek;
pos = (432,10);
},
{
name = top;
pos = (240,650);
},
{
name = topright;
pos = (460,650);
}
);
background = {
shapes = (
{
closed = 1;
nodes = (
(397,-10,o),
(465,96,o),
(465,342,cs),
(465,565,o),
(397,660,o),
(240,660,cs),
(83,660,o),
(15,565,o),
(15,342,cs),
(15,96,o),
(83,-10,o),
(240,-10,cs)
);
},
{
closed = 1;
nodes = (
(195,125,o),
(175,190,o),
(175,342,cs),
(175,470,o),
(195,525,o),
(240,525,cs),
(285,525,o),
(305,470,o),
(305,342,cs),
(305,190,o),
(285,125,o),
(240,125,cs)
);
}
);
};
layerId = m002;
shapes = (
{
closed = 1;
nodes = (
(364,-10,o),
(425,106,o),
(425,342,cs),
(425,556,o),
(364,660,o),
(240,660,cs),
(116,660,o),
(55,556,o),
(55,342,cs),
(55,106,o),
(116,-10,o),
(240,-10,cs)
);
},
{
closed = 1;
nodes = (
(123,0,o),
(65,112,o),
(65,342,cs),
(65,549,o),
(123,650,o),
(240,650,cs),
(357,650,o),
(415,549,o),
(415,342,cs),
(415,112,o),
(357,0,o),
(240,0,cs)
);
}
);
width = 480;
}
);
unicode = 111;
},
{
glyphname = oslash;
lastChange = "2024-08-03 06:46:44 +0000";
layers = (
{
anchors = (
{
name = top;
pos = (300,650);
}
);
layerId = m002;
shapes = (
{
ref = o;
},
{
closed = 1;
nodes = (
(89,0,l),
(100,0,l),
(400,650,l),
(389,650,l)
);
}
);
width = 480;
},
{
anchors = (
{
name = top;
pos = (300,650);
}
);
layerId = m01;
shapes = (
{
ref = o;
},
{
closed = 1;
nodes = (
(55,0,l),
(129,0,l),
(429,650,l),
(355,650,l)
);
}
);
width = 480;
}
);
unicode = 248;
},
{
glyphname = p;
lastChange = "2024-08-03 06:27:16 +0000";
layers = (
{
anchors = (
{
name = bottom;
pos = (255,0);
},
{
name = top;
pos = (255,650);
}
);
layerId = m01;
shapes = (
{
closed = 1;
nodes = (
(190,650,l),
(40,650,l),
(40,-200,l),
(190,-200,l)
);
},
{
closed = 1;
nodes = (
(193,660,o),
(135,556,o),
(135,342,cs),
(135,106,o),
(193,-10,o),
(320,-10,cs),
(437,-10,o),
(495,106,o),
(495,342,cs),
(495,556,o),
(437,660,o),
(320,660,cs)
);
},
{
closed = 1;
nodes = (
(317,525,o),
(340,465,o),
(340,342,cs),
(340,190,o),
(317,115,o),
(270,115,cs),
(230,115,o),
(200,190,o),
(200,342,cs),
(200,465,o),
(230,525,o),
(270,525,cs)
);
}
);
width = 510;
},
{
anchors = (
{
name = bottom;
pos = (270,0);
},
{
name = top;
pos = (270,650);
}
);
layerId = m002;
shapes = (
{
closed = 1;
nodes = (
(100,650,l),
(90,650,l),
(90,-200,l),
(100,-200,l)
);
},
{
closed = 1;
nodes = (
(157,660,o),
(90,544,o),
(90,308,cs),
(90,94,o),
(157,-10,o),
(295,-10,cs),
(423,-10,o),
(485,94,o),
(485,308,cs),
(485,544,o),
(423,660,o),
(295,660,cs)
);
},
{
closed = 1;
nodes = (
(416,650,o),
(475,538,o),
(475,308,cs),
(475,101,o),
(416,0,o),
(295,0,cs),
(164,0,o),
(100,101,o),
(100,308,cs),
(100,538,o),
(164,650,o),
(295,650,cs)
);
}
);
width = 540;
}
);
metricLeft = n;
metricRight = o;
unicode = 112;
},
{
glyphname = thorn;
lastChange = "2024-08-02 16:02:01 +0000";
layers = (
{
anchors = (
{
name = bottom;
pos = (270,0);
},
{
name = top;
pos = (270,650);
}
);
layerId = m002;
shapes = (
{
closed = 1;
nodes = (
(100,850,l),
(90,850,l),
(90,-200,l),
(100,-200,l)
);
},
{
closed = 1;
nodes = (
(157,660,o),
(90,544,o),
(90,308,cs),
(90,94,o),
(157,-10,o),
(295,-10,cs),
(423,-10,o),
(485,94,o),
(485,308,cs),
(485,544,o),
(423,660,o),
(295,660,cs)
);
},
{
closed = 1;
nodes = (
(416,650,o),
(475,538,o),
(475,308,cs),
(475,101,o),
(416,0,o),
(295,0,cs),
(164,0,o),
(100,101,o),
(100,308,cs),
(100,538,o),
(164,650,o),
(295,650,cs)
);
}
);
width = 540;
},
{
anchors = (
{
name = bottom;
pos = (300,0);
},
{
name = top;
pos = (300,850);
}
);
layerId = m01;
shapes = (
{
closed = 1;
nodes = (
(190,850,l),
(40,850,l),
(40,-200,l),
(190,-200,l)
);
},
{
closed = 1;
nodes = (
(193,660,o),
(135,556,o),
(135,342,cs),
(135,106,o),
(193,-10,o),
(320,-10,cs),
(437,-10,o),
(495,106,o),
(495,342,cs),
(495,556,o),
(437,660,o),
(320,660,cs)
);
},
{
closed = 1;
nodes = (
(317,525,o),
(340,465,o),
(340,342,cs),
(340,190,o),
(317,115,o),
(270,115,cs),
(230,115,o),
(200,190,o),
(200,342,cs),
(200,465,o),
(230,525,o),
(270,525,cs)
);
}
);
width = 510;
}
);
metricRight = o;
unicode = 254;
},
{
glyphname = q;
lastChange = "2024-08-03 06:27:10 +0000";
layers = (
{
anchors = (
{
name = bottom;
pos = (260,0);
},
{
name = top;
pos = (260,650);
}
);
layerId = m01;
shapes = (
{
closed = 1;
nodes = (
(480,-200,l),
(480,650,l),
(320,650,l),
(320,-200,l)
);
},
{
closed = 1;
nodes = (
(318,-10,o),
(375,106,o),
(375,342,cs),
(375,556,o),
(318,660,o),
(191,660,cs),
(73,660,o),
(15,556,o),
(15,342,cs),
(15,106,o),
(73,-10,o),
(191,-10,cs)
);
},
{
closed = 1;
nodes = (
(200,125,o),
(170,196,o),
(170,342,cs),
(170,465,o),
(200,525,o),
(240,525,cs),
(280,525,o),
(310,465,o),
(310,342,cs),
(310,196,o),
(280,125,o),
(240,125,cs)
);
}
);
width = 520;
},
{
anchors = (
{
name = bottom;
pos = (270,0);
},
{
name = top;
pos = (270,650);
}
);
layerId = m002;
shapes = (
{
closed = 1;
nodes = (
(450,-200,l),
(450,650,l),
(440,650,l),
(440,-200,l)
);
},
{
closed = 1;
nodes = (
(379,-10,o),
(450,94,o),
(450,308,cs),
(450,544,o),
(379,660,o),
(235,660,cs),
(114,660,o),
(55,544,o),
(55,308,cs),
(55,94,o),
(114,-10,o),
(235,-10,cs)
);
},
{
closed = 1;
nodes = (
(121,0,o),
(65,101,o),
(65,308,cs),
(65,538,o),
(121,650,o),
(235,650,cs),
(373,650,o),
(440,538,o),
(440,308,cs),
(440,101,o),
(373,0,o),
(235,0,cs)
);
}
);
width = 540;
}
);
metricLeft = o;
metricRight = n;
unicode = 113;
},
{
glyphname = r;
lastChange = "2024-08-03 06:26:33 +0000";
layers = (
{
anchors = (
{
name = bottom;
pos = (114,0);
},
{
name = top;
pos = (173,650);
}
);
layerId = m01;
shapes = (
{
closed = 1;
nodes = (
(200,0,l),
(200,390,l),
(200,454,o),
(235,486,o),
(306,486,cs),
(318,486,o),
(326,485,o),
(330,484,c),
(330,660,l),
(252,660,o),
(202,620,o),
(177,537,c),
(190,525,l),
(190,650,l),
(40,650,l),
(40,0,l)
);
}
);
width = 345;
},
{
anchors = (
{
name = bottom;
pos = (168,0);
},
{
name = top;
pos = (168,650);
}
);
background = {
shapes = (
{
closed = 1;
nodes = (
(195,0,l),
(195,145,o),
(195,362,o),
(195,390,cs),
(195,454,o),
(230,486,o),
(301,486,cs),
(313,486,o),
(321,485,o),
(325,484,c),
(325,660,l),
(247,660,o),
(197,620,o),
(172,537,c),
(185,525,l),
(185,650,l),
(35,650,l),
(35,0,l)
);
}
);
};
layerId = m002;
shapes = (
{
closed = 1;
nodes = (
(100,0,l),
(100,370,l),
(100,556,o),
(158,655,o),
(275,647,cs),
(277,647,o),
(279,647,o),
(281,647,c),
(281,657,l),
(170,665,o),
(109,587,o),
(95,444,c),
(100,412,l),
(100,650,l),
(90,650,l),
(90,0,l)
);
}
);
width = 336;
}
);
metricLeft = n;
metricRight = o;
unicode = 114;
},
{
glyphname = s;
lastChange = "2024-08-03 06:28:26 +0000";
layers = (
{
anchors = (
{
name = bottom;
pos = (217,0);
},
{
name = top;
pos = (220,650);
}
);
layerId = m01;
shapes = (
{
closed = 1;
nodes = (
(357,-10,o),
(424,52,o),
(424,180,cs),
(424,384,o),
(160,391,o),
(160,470,cs),
(160,517,o),
(176,540,o),
(220,540,cs),
(264,540,o),
(285,510,o),
(285,450,c),
(415,450,l),
(415,591,o),
(351,660,o),
(220,660,cs),
(82,660,o),
(15,598,o),
(15,470,cs),
(15,265,o),
(279,263,o),
(279,180,cs),
(279,133,o),
(263,110,o),
(220,110,cs),
(174,110,o),
(152,140,o),
(152,200,c),
(22,200,l),
(22,59,o),
(87,-10,o),
(220,-10,cs)
);
}
);
width = 439;
},
{
anchors = (
{
name = bottom;
pos = (214,0);
},
{
name = top;
pos = (214,650);
}
);
layerId = m002;
shapes = (
{
closed = 1;
nodes = (
(324,-10,o),
(378,44,o),
(371,155,cs),
(358,356,o),
(79,322,o),
(67,490,cs),
(59,597,o),
(108,650,o),
(217,650,cs),
(304,650,o),
(338,597,o),
(346,490,c),
(356,490,l),
(348,604,o),
(310,660,o),
(217,660,cs),
(102,660,o),
(48,604,o),
(56,490,cs),
(69,308,o),
(348,348,o),
(361,155,cs),
(368,51,o),
(317,0,o),
(207,0,cs),
(114,0,o),
(76,51,o),
(69,155,c),
(59,155,l),
(66,44,o),
(108,-10,o),
(207,-10,cs)
);
}
);
width = 427;
}
);
metricLeft = o;
metricRight = o;
unicode = 115;
},
{
glyphname = germandbls;
lastChange = "2024-08-02 09:17:18 +0000";
layers = (
{
anchors = (
{
name = bottom;
pos = (254,0);
},
{
name = top;
pos = (254,850);
}
);
layerId = m002;
shapes = (
{
closed = 1;
nodes = (
(140,0,l),
(140,650,l),
(130,650,l),
(130,0,l)
);
},
{
closed = 1;
nodes = (
(135,640,l),
(135,650,l),
(30,650,l),
(30,640,l)
);
},
{
closed = 1;
nodes = (
(140,650,l),
(140,780,o),
(169,844,o),
(270,844,c),
(270,855,l),
(163,855,o),
(130,788,o),
(130,650,c)
);
},
{
closed = 1;
nodes = (
(364,-18,o),
(458,46,o),
(451,160,cs),
(438,366,o),
(299,312,o),
(287,430,c),
(276,430,l),
(289,298,o),
(428,358,o),
(441,160,cs),
(448,53,o),
(357,-8,o),
(267,0,c),
(267,-10,l)
);
},
{
closed = 1;
nodes = (
(287,430,l),
(287,562,o),
(404,492,o),
(404,690,cs),
(404,801,o),
(373,855,o),
(270,855,c),
(270,844,l),
(367,844,o),
(394,793,o),
(394,690,cs),
(394,499,o),
(276,569,o),
(276,430,c)
);
}
);
width = 506;
},
{
anchors = (
{
name = bottom;
pos = (273,0);
},
{
name = top;
pos = (273,850);
}
);
background = {
shapes = (
{
closed = 1;
nodes = (
(200,0,l),
(200,650,l),
(190,650,l),
(190,0,l)
);
},
{
closed = 1;
nodes = (
(195,640,l),
(195,650,l),
(90,650,l),
(90,640,l)
);
},
{
closed = 1;
nodes = (
(200,650,l),
(200,780,o),
(249,844,o),
(350,844,c),
(350,855,l),
(243,855,o),
(190,788,o),
(190,650,c)
);
},
{
closed = 1;
nodes = (
(514,-10,o),
(558,46,o),
(551,160,cs),
(538,366,o),
(399,312,o),
(387,430,c),
(376,430,l),
(389,298,o),
(528,358,o),
(541,160,cs),
(548,53,o),
(507,0,o),
(417,0,cs),
(331,0,o),
(289,51,o),
(289,155,c),
(279,155,l),
(279,44,o),
(324,-10,o),
(417,-10,cs)
);
},
{
closed = 1;
nodes = (
(387,430,l),
(387,562,o),
(504,492,o),
(504,690,cs),
(504,801,o),
(453,855,o),
(350,855,c),
(350,844,l),
(447,844,o),
(494,793,o),
(494,690,cs),
(494,499,o),
(376,569,o),
(376,430,c)
);
}
);
};
layerId = m01;
shapes = (
{
closed = 1;
nodes = (
(220,0,l),
(220,650,l),
(70,650,l),
(70,0,l)
);
},
{
closed = 1;
nodes = (
(215,520,l),
(215,650,l),
(0,650,l),
(0,520,l)
);
},
{
closed = 1;
nodes = (
(220,650,l),
(220,697,o),
(236,720,o),
(270,720,c),
(270,855,l),
(136,855,o),
(70,788,o),
(70,650,c)
);
},
{
closed = 1;
nodes = (
(454,-10,o),
(531,64,o),
(531,215,cs),
(531,376,o),
(426,364,o),
(426,430,c),
(276,430,l),
(276,337,o),
(381,319,o),
(381,215,cs),
(381,155,o),
(353,125,o),
(297,125,c),
(297,-10,l)
);
},
{
closed = 1;
nodes = (
(426,430,l),
(424,496,o),
(494,489,o),
(494,650,cs),
(494,788,o),
(420,855,o),
(270,855,c),
(270,720,l),
(320,720,o),
(344,697,o),
(344,650,cs),
(344,546,o),
(276,523,o),
(276,430,c)
);
}
);
width = 546;
}
);
metricLeft = f;
metricRight = o;
unicode = 223;
},
{
glyphname = t;
lastChange = "2024-08-03 06:35:16 +0000";
layers = (
{
anchors = (
{
name = bottom;
pos = (150,0);
},
{
name = center;
pos = (150,325);
},
{
name = top;
pos = (150,750);
},
{
name = topright;
pos = (280,850);
}
);
layerId = m01;
shapes = (
{
closed = 1;
nodes = (
(60,50,o),
(109,-6,o),
(200,-6,cs),
(242,-6,o),
(280,-3,o),
(290,0,c),
(290,118,l),
(283,116,o),
(261,114,o),
(245,114,cs),
(225,114,o),
(210,134,o),
(210,175,cs),
(210,750,l),
(60,750,l),
(60,165,ls)
);
},
{
closed = 1;
nodes = (
(290,520,l),
(290,650,l),
(0,650,l),
(0,520,l)
);
}
);
width = 300;
},
{
anchors = (
{
name = bottom;
pos = (150,0);
},
{
name = center;
pos = (150,325);
},
{
name = top;
pos = (150,750);
},
{
name = topright;
pos = (280,850);
}
);
background = {
shapes = (
{
closed = 1;
nodes = (
(60,50,o),
(109,-6,o),
(200,-6,cs),
(242,-6,o),
(280,-3,o),
(290,0,c),
(290,118,l),
(283,116,o),
(261,114,o),
(245,114,cs),
(225,114,o),
(210,134,o),
(210,175,cs),
(210,750,l),
(60,750,l),
(60,165,ls)
);
},
{
closed = 1;
nodes = (
(290,520,l),
(290,650,l),
(0,650,l),
(0,520,l)
);
}
);
};
layerId = m002;
shapes = (
{
closed = 1;
nodes = (
(130,31,o),
(156,-10,o),
(210,-10,cs),
(225,-10,o),
(242,-9,o),
(260,-5,c),
(260,5,l),
(242,1,o),
(225,0,o),
(210,0,cs),
(163,0,o),
(140,38,o),
(140,116,cs),
(140,750,l),
(130,750,l),
(130,116,ls)
);
},
{
closed = 1;
nodes = (
(260,640,l),
(260,650,l),
(30,650,l),
(30,640,l)
);
}
);
width = 300;
}
);
unicode = 116;
},
{
glyphname = u;
lastChange = "2024-08-02 16:34:48 +0000";
layers = (
{
anchors = (
{
name = bottom;
pos = (260,0);
},
{
name = ogonek;
pos = (438,10);
},
{
name = top;
pos = (260,650);
},
{
name = topright;
pos = (500,650);
}
);
layerId = m01;
shapes = (
{
closed = 1;
nodes = (
(320,650,l),
(320,206,l),
(320,143,o),
(300,112,o),
(260,112,cs),
(220,112,o),
(200,143,o),
(200,206,cs),
(200,650,l),
(40,650,l),
(40,206,l),
(40,61,o),
(93,-10,o),
(200,-10,cs),
(292,-10,o),
(341,24,o),
(350,93,c),
(340,115,l),
(340,0,l),
(480,0,l),
(480,650,l)
);
}
);
width = 520;
},
{
anchors = (
{
name = bottom;
pos = (280,0);
},
{
name = ogonek;
pos = (504,10);
},
{
name = top;
pos = (280,650);
},
{
name = topright;
pos = (540,650);
}
);
background = {
shapes = (
{
closed = 1;
nodes = (
(360,650,l),
(360,206,l),
(360,143,o),
(340,112,o),
(300,112,cs),
(260,112,o),
(240,143,o),
(240,206,cs),
(240,650,l),
(80,650,l),
(80,206,l),
(80,61,o),
(133,-10,o),
(240,-10,cs),
(332,-10,o),
(381,24,o),
(390,93,c),
(380,115,l),
(380,0,l),
(520,0,l),
(520,650,l)
);
}
);
};
layerId = m002;
shapes = (
{
closed = 1;
nodes = (
(460,650,l),
(460,206,ls),
(460,68,o),
(401,0,o),
(280,0,c),
(159,0,o),
(100,68,o),
(100,206,cs),
(100,650,l),
(90,650,l),
(90,206,ls),
(90,61,o),
(152,-10,o),
(280,-10,cs),
(378,-10,o),
(437,36,o),
(460,129,c),
(460,172,l),
(460,0,l),
(470,0,l),
(470,650,l)
);
}
);
width = 560;
}
);
metricLeft = n;
metricRight = n;
unicode = 117;
},
{
glyphname = v;
lastChange = "2024-08-03 06:27:01 +0000";
layers = (
{
anchors = (
{
name = bottom;
pos = (220,0);
},
{
name = top;
pos = (220,650);
}
);
layerId = m01;
shapes = (
{
closed = 1;
nodes = (
(285,0,l),
(440,650,l),
(290,650,l),
(209,200,l),
(220,200,l),
(150,650,l),
(0,650,l),
(145,0,l)
);
}
);
width = 440;
},
{
anchors = (
{
name = bottom;
pos = (220,0);
},
{
name = top;
pos = (220,650);
}
);
background = {
shapes = (
{
closed = 1;
nodes = (
(285,0,l),
(440,650,l),
(290,650,l),
(209,200,l),
(220,200,l),
(150,650,l),
(0,650,l),
(145,0,l)
);
}
);
};
layerId = m002;
shapes = (
{
closed = 1;
nodes = (
(222,0,l),
(407,650,l),
(397,650,l),
(214,11,l),
(219,11,l),
(42,650,l),
(32,650,l),
(211,0,l)
);
}
);
width = 440;
}
);
unicode = 118;
},
{
glyphname = w;
lastChange = "2024-08-03 06:36:08 +0000";
layers = (
{
anchors = (
{
name = bottom;
pos = (350,0);
},
{
name = top;
pos = (350,650);
}
);
layerId = m01;
shapes = (
{
closed = 1;
nodes = (
(272,0,l),
(415,650,l),
(285,650,l),
(206,200,l),
(217,200,l),
(150,650,l),
(0,650,l),
(132,0,l)
);
},
{
closed = 1;
nodes = (
(578,0,l),
(700,650,l),
(550,650,l),
(492,200,l),
(503,200,l),
(414,650,l),
(284,650,l),
(438,0,l)
);
}
);
width = 700;
},
{
anchors = (
{
name = bottom;
pos = (350,0);
},
{
name = top;
pos = (350,650);
}
);
background = {
shapes = (
{
closed = 1;
nodes = (
(272,0,l),
(415,650,l),
(285,650,l),
(206,200,l),
(217,200,l),
(150,650,l),
(0,650,l),
(132,0,l)
);
},
{
closed = 1;
nodes = (
(578,0,l),
(700,650,l),
(550,650,l),
(492,200,l),
(503,200,l),
(414,650,l),
(284,650,l),
(438,0,l)
);
}
);
};
layerId = m002;
shapes = (
{
closed = 1;
nodes = (
(176,0,l),
(355,650,l),
(345,650,l),
(170,18,l),
(175,18,l),
(51,650,l),
(41,650,l),
(169,0,l)
);
},
{
closed = 1;
nodes = (
(541,0,l),
(660,650,l),
(650,650,l),
(535,18,l),
(539,18,l),
(355,650,l),
(345,650,l),
(533,0,l)
);
}
);
width = 700;
}
);
unicode = 119;
},
{
glyphname = x;
lastChange = "2024-08-02 07:37:23 +0000";
layers = (
{
anchors = (
{
name = bottom;
pos = (240,0);
},
{
name = top;
pos = (240,650);
}
);
layerId = m01;
shapes = (
{
closed = 1;
nodes = (
(480,0,l),
(162,650,l),
(1,650,l),
(325,0,l)
);
},
{
closed = 1;
nodes = (
(146,0,l),
(267,256,l),
(279,256,l),
(472,650,l),
(320,650,l),
(212,418,l),
(201,418,l),
(0,0,l)
);
}
);
width = 480;
},
{
anchors = (
{
name = bottom;
pos = (240,0);
},
{
name = top;
pos = (240,650);
}
);
background = {
shapes = (
{
closed = 1;
nodes = (
(480,0,l),
(162,650,l),
(1,650,l),
(325,0,l)
);
},
{
closed = 1;
nodes = (
(146,0,l),
(267,256,l),
(279,256,l),
(472,650,l),
(320,650,l),
(212,418,l),
(201,418,l),
(0,0,l)
);
}
);
};
layerId = m002;
shapes = (
{
closed = 1;
nodes = (
(421,0,l),
(72,650,l),
(61,650,l),
(410,0,l)
);
},
{
closed = 1;
nodes = (
(70,0,l),
(242,324,l),
(243,324,l),
(413,650,l),
(402,650,l),
(237,334,l),
(236,334,l),
(59,0,l)
);
}
);
width = 480;
}
);
unicode = 120;
},
{
glyphname = y;
lastChange = "2024-08-03 06:35:34 +0000";
layers = (
{
anchors = (
{
name = bottom;
pos = (220,0);
},
{
name = top;
pos = (220,650);
}
);
layerId = m01;
shapes = (
{
closed = 1;
nodes = (
(285,0,l),
(440,650,l),
(290,650,l),
(209,200,l),
(220,200,l),
(150,650,l),
(0,650,l),
(145,0,l)
);
},
{
closed = 1;
nodes = (
(134,-216,o),
(247,-144,o),
(285,0,c),
(145,0,l),
(135,-58,o),
(27,-86,o),
(0,-86,c),
(0,-216,l)
);
}
);
width = 440;
},
{
anchors = (
{
name = bottom;
pos = (220,0);
},
{
name = top;
pos = (220,650);
}
);
background = {
shapes = (
{
closed = 1;
nodes = (
(285,0,l),
(440,650,l),
(290,650,l),
(209,200,l),
(220,200,l),
(150,650,l),
(0,650,l),
(145,0,l)
);
},
{
closed = 1;
nodes = (
(134,-216,o),
(247,-144,o),
(285,0,c),
(145,0,l),
(135,-58,o),
(27,-86,o),
(0,-86,c),
(0,-216,l)
);
}
);
};
layerId = m002;
shapes = (
{
closed = 1;
nodes = (
(220,0,l),
(397,650,l),
(387,650,l),
(215,20,l),
(214,24,l),
(52,650,l),
(42,650,l),
(210,0,l)
);
},
{
closed = 1;
nodes = (
(123,-168,o),
(185,-107,o),
(220,0,c),
(210,0,l),
(174,-101,o),
(115,-158,o),
(30,-150,c),
(30,-160,l)
);
}
);
width = 440;
}
);
unicode = 121;
},
{
glyphname = z;
lastChange = "2024-08-02 07:37:23 +0000";
layers = (
{
anchors = (
{
name = bottom;
pos = (200,0);
},
{
name = center;
pos = (200,325);
},
{
name = top;
pos = (200,650);
}
);
layerId = m01;
shapes = (
{
closed = 1;
nodes = (
(375,0,l),
(375,150,l),
(192,150,l),
(375,525,l),
(375,650,l),
(25,650,l),
(25,500,l),
(206,500,l),
(25,125,l),
(25,0,l)
);
}
);
width = 400;
},
{
anchors = (
{
name = bottom;
pos = (200,0);
},
{
name = center;
pos = (200,325);
},
{
name = top;
pos = (200,650);
}
);
background = {
shapes = (
{
closed = 1;
nodes = (
(375,-1,l),
(375,149,l),
(189,149,l),
(375,530,l),
(375,655,l),
(25,655,l),
(25,505,l),
(207,505,l),
(25,124,l),
(25,-1,l)
);
}
);
};
layerId = m002;
shapes = (
{
closed = 1;
nodes = (
(355,0,l),
(355,10,l),
(58,10,l),
(355,645,l),
(355,650,l),
(45,650,l),
(45,640,l),
(342,640,l),
(45,5,l),
(45,0,l)
);
}
);
width = 400;
}
);
unicode = 122;
},
{
glyphname = zero;
lastChange = "2024-08-01 13:12:18 +0000";
layers = (
{
layerId = m01;
shapes = (
{
closed = 1;
nodes = (
(379,-10,o),
(435,117,o),
(435,412,cs),
(435,693,o),
(379,814,o),
(224,814,cs),
(71,814,o),
(15,693,o),
(15,412,cs),
(15,117,o),
(71,-10,o),
(224,-10,cs)
);
},
{
closed = 1;
nodes = (
(186,125,o),
(175,218,o),
(175,412,cs),
(175,592,o),
(186,679,o),
(224,679,cs),
(263,679,o),
(275,592,o),
(275,412,cs),
(275,218,o),
(263,125,o),
(224,125,cs)
);
}
);
width = 450;
},
{
layerId = m002;
shapes = (
{
closed = 1;
nodes = (
(402,-10,o),
(410,153,o),
(410,412,cs),
(410,656,o),
(402,810,o),
(229,810,cs),
(58,810,o),
(40,656,o),
(40,412,cs),
(40,153,o),
(58,-10,o),
(229,-10,cs)
);
},
{
closed = 1;
nodes = (
(64,0,o),
(50,159,o),
(50,412,cs),
(50,650,o),
(64,800,o),
(229,800,cs),
(395,800,o),
(400,650,o),
(400,412,cs),
(400,159,o),
(395,0,o),
(229,0,cs)
);
}
);
width = 450;
}
);
unicode = 48;
},
{
glyphname = one;
lastChange = "2024-08-01 13:11:52 +0000";
layers = (
{
layerId = m01;
shapes = (
{
closed = 1;
nodes = (
(95,0,l),
(250,0,l),
(250,800,l),
(95,800,l)
);
},
{
closed = 1;
nodes = (
(5,800,l),
(5,680,l),
(178,680,l),
(178,800,l)
);
}
);
width = 320;
},
{
layerId = m002;
shapes = (
{
closed = 1;
nodes = (
(163,0,l),
(173,0,l),
(173,800,l),
(163,800,l)
);
},
{
closed = 1;
nodes = (
(33,800,l),
(33,790,l),
(165,790,l),
(165,800,l)
);
}
);
width = 306;
}
);
unicode = 49;
},
{
glyphname = two;
lastChange = "2024-08-03 06:43:35 +0000";
layers = (
{
layerId = m01;
shapes = (
{
closed = 1;
nodes = (
(415,0,l),
(415,140,l),
(18,140,l),
(18,0,l)
);
},
{
closed = 1;
nodes = (
(87,815,o),
(20,736,o),
(20,575,c),
(170,575,l),
(170,645,o),
(195,680,o),
(225,680,cs),
(256,680,o),
(282,652,o),
(282,595,cs),
(282,405,o),
(18,325,o),
(18,120,c),
(160,120,l),
(160,240,o),
(432,350,o),
(432,595,cs),
(432,743,o),
(364,815,o),
(225,815,cs)
);
}
);
width = 460;
},
{
layerId = m002;
shapes = (
{
closed = 1;
nodes = (
(440,0,l),
(440,10,l),
(33,10,l),
(33,0,l)
);
},
{
closed = 1;
nodes = (
(132,810,o),
(69,744,o),
(47,610,c),
(57,610,l),
(79,738,o),
(139,800,o),
(240,800,cs),
(366,800,o),
(427,738,o),
(427,610,cs),
(427,435,o),
(22,154,o),
(33,10,c),
(43,10,l),
(32,152,o),
(437,429,o),
(437,610,cs),
(437,744,o),
(372,810,o),
(240,810,cs)
);
}
);
width = 480;
}
);
unicode = 50;
},
{
glyphname = three;
lastChange = "2024-08-01 13:12:04 +0000";
layers = (
{
layerId = m01;
shapes = (
{
closed = 1;
nodes = (
(373,-10,o),
(441,62,o),
(441,210,cs),
(441,383,o),
(333,423,o),
(163,423,c),
(163,353,l),
(231,353,o),
(291,303,o),
(291,210,cs),
(291,153,o),
(272,125,o),
(234,125,cs),
(197,125,o),
(179,160,o),
(179,230,c),
(29,230,l),
(29,69,o),
(96,-10,o),
(234,-10,cs)
);
},
{
closed = 1;
nodes = (
(333,382,o),
(431,422,o),
(431,595,cs),
(431,743,o),
(373,815,o),
(234,815,cs),
(96,815,o),
(39,736,o),
(39,575,c),
(189,575,l),
(189,645,o),
(197,680,o),
(234,680,cs),
(272,680,o),
(281,652,o),
(281,595,cs),
(281,502,o),
(231,452,o),
(163,452,c),
(163,382,l)
);
}
);
width = 470;
},
{
background = {
shapes = (
{
closed = 1;
nodes = (
(387,-10,o),
(455,62,o),
(455,210,cs),
(455,383,o),
(347,423,o),
(177,423,c),
(177,353,l),
(245,353,o),
(305,303,o),
(305,210,cs),
(305,153,o),
(286,125,o),
(248,125,cs),
(211,125,o),
(193,160,o),
(193,230,c),
(43,230,l),
(43,69,o),
(110,-10,o),
(248,-10,cs)
);
},
{
closed = 1;
nodes = (
(347,382,o),
(445,422,o),
(445,595,cs),
(445,743,o),
(387,815,o),
(248,815,cs),
(110,815,o),
(53,736,o),
(53,575,c),
(203,575,l),
(203,645,o),
(211,680,o),
(248,680,cs),
(286,680,o),
(295,652,o),
(295,595,cs),
(295,502,o),
(245,452,o),
(177,452,c),
(177,382,l)
);
}
);
};
layerId = m002;
shapes = (
{
closed = 1;
nodes = (
(375,-10,o),
(445,69,o),
(445,210,cs),
(445,348,o),
(367,422,o),
(227,422,c),
(227,414,l),
(361,414,o),
(435,341,o),
(435,210,cs),
(435,75,o),
(368,0,o),
(248,0,cs),
(145,0,o),
(77,68,o),
(63,190,c),
(53,190,l),
(67,61,o),
(139,-10,o),
(248,-10,cs)
);
},
{
closed = 1;
nodes = (
(361,416,o),
(435,479,o),
(435,595,cs),
(435,736,o),
(368,815,o),
(248,815,cs),
(145,815,o),
(67,744,o),
(63,615,c),
(73,615,l),
(77,737,o),
(152,805,o),
(248,805,cs),
(362,805,o),
(425,730,o),
(425,595,cs),
(425,485,o),
(354,424,o),
(227,424,c),
(227,416,l)
);
}
);
width = 498;
}
);
unicode = 51;
},
{
glyphname = four;
lastChange = "2024-08-03 06:43:44 +0000";
layers = (
{
layerId = m01;
shapes = (
{
closed = 1;
nodes = (
(245,0,l),
(385,0,l),
(385,800,l),
(245,800,l)
);
},
{
closed = 1;
nodes = (
(35,337,l),
(35,197,l),
(460,197,l),
(460,337,l)
);
},
{
closed = 1;
nodes = (
(245,800,l),
(35,337,l),
(123,337,l),
(333,800,l)
);
}
);
width = 480;
},
{
background = {
shapes = (
{
closed = 1;
nodes = (
(263,0,l),
(403,0,l),
(403,800,l),
(263,800,l)
);
},
{
closed = 1;
nodes = (
(53,337,l),
(53,217,l),
(478,217,l),
(478,337,l)
);
},
{
closed = 1;
nodes = (
(263,800,l),
(53,337,l),
(141,337,l),
(351,800,l)
);
}
);
};
layerId = m002;
shapes = (
{
closed = 1;
nodes = (
(369,0,l),
(379,0,l),
(379,800,l),
(369,800,l)
);
},
{
closed = 1;
nodes = (
(33,248,l),
(33,238,l),
(468,238,l),
(468,248,l)
);
},
{
closed = 1;
nodes = (
(369,800,l),
(33,248,l),
(44,248,l),
(380,800,l)
);
}
);
width = 491;
}
);
unicode = 52;
},
{
glyphname = five;
lastChange = "2024-08-03 11:58:58 +0000";
layers = (
{
layerId = m01;
shapes = (
{
closed = 1;
nodes = (
(404,660,l),
(404,800,l),
(37,800,l),
(37,660,l)
);
},
{
closed = 1;
nodes = (
(171,335,l),
(171,384,o),
(192,408,o),
(234,408,cs),
(272,408,o),
(291,366,o),
(291,280,cs),
(291,176,o),
(272,125,o),
(234,125,cs),
(197,125,o),
(179,160,o),
(179,230,c),
(29,230,l),
(29,69,o),
(96,-10,o),
(234,-10,cs),
(373,-10,o),
(441,85,o),
(441,280,cs),
(441,457,o),
(373,543,o),
(234,543,cs),
(131,543,o),
(81,475,o),
(81,335,c)
);
},
{
closed = 1;
nodes = (
(37,800,l),
(31,335,l),
(171,335,l),
(168,800,l)
);
}
);
width = 470;
},
{
background = {
shapes = (
{
closed = 1;
nodes = (
(428,680,l),
(428,800,l),
(91,800,l),
(91,680,l)
);
},
{
closed = 1;
nodes = (
(130,381,l),
(158,392,o),
(207,408,o),
(238,408,cs),
(290,408,o),
(315,359,o),
(315,280,cs),
(315,176,o),
(296,125,o),
(258,125,cs),
(221,125,o),
(203,160,o),
(203,230,c),
(53,230,l),
(53,69,o),
(120,-10,o),
(258,-10,cs),
(397,-10,o),
(465,85,o),
(465,280,cs),
(465,450,o),
(390,543,o),
(238,543,cs),
(188,543,o),
(103,508,o),
(52,457,c)
);
},
{
closed = 1;
nodes = (
(91,800,l),
(52,457,l),
(192,457,l),
(222,800,l)
);
}
);
};
layerId = m002;
shapes = (
{
closed = 1;
nodes = (
(428,790,l),
(428,800,l),
(101,800,l),
(101,790,l)
);
},
{
closed = 1;
nodes = (
(80,400,l),
(124,457,o),
(188,488,o),
(258,488,cs),
(378,488,o),
(445,414,o),
(445,240,cs),
(445,100,o),
(378,0,o),
(258,0,cs),
(155,0,o),
(88,68,o),
(73,190,c),
(63,190,l),
(78,61,o),
(149,-10,o),
(258,-10,cs),
(385,-10,o),
(455,94,o),
(455,240,cs),
(455,420,o),
(385,498,o),
(258,498,cs),
(189,498,o),
(122,465,o),
(72,407,c)
);
},
{
closed = 1;
nodes = (
(101,800,l),
(72,407,l),
(82,407,l),
(111,800,l)
);
}
);
width = 518;
},
{
associatedMasterId = m01;
layerId = "10961A5E-F3D2-44A9-9D7C-D9A0A5D41BC3";
name = "3. Aug. 24, 13:57";
shapes = (
{
closed = 1;
nodes = (
(404,660,l),
(404,800,l),
(67,800,l),
(67,660,l)
);
},
{
closed = 1;
nodes = (
(106,381,l),
(134,392,o),
(183,408,o),
(214,408,cs),
(266,408,o),
(291,359,o),
(291,280,cs),
(291,176,o),
(272,125,o),
(234,125,cs),
(197,125,o),
(179,160,o),
(179,230,c),
(29,230,l),
(29,69,o),
(96,-10,o),
(234,-10,cs),
(373,-10,o),
(441,85,o),
(441,280,cs),
(441,450,o),
(366,543,o),
(214,543,cs),
(164,543,o),
(79,508,o),
(28,457,c)
);
},
{
closed = 1;
nodes = (
(67,800,l),
(28,457,l),
(168,457,l),
(198,800,l)
);
}
);
width = 470;
}
);
unicode = 53;
},
{
glyphname = six;
lastChange = "2024-08-01 13:12:16 +0000";
layers = (
{
layerId = m01;
shapes = (
{
closed = 1;
nodes = (
(116,361,l),
(146,392,o),
(178,398,o),
(214,398,cs),
(266,398,o),
(291,359,o),
(291,280,cs),
(291,176,o),
(272,125,o),
(234,125,cs),
(197,125,o),
(179,176,o),
(179,280,c),
(29,280,l),
(29,85,o),
(96,-10,o),
(234,-10,cs),
(373,-10,o),
(441,85,o),
(441,280,cs),
(441,450,o),
(366,533,o),
(214,533,c),
(172,533,o),
(143,522,o),
(118,497,c)
);
},
{
closed = 1;
nodes = (
(81,280,o),
(127,280,o),
(179,280,c),
(181,540,o),
(253,656,o),
(398,691,c),
(355,817,l),
(136,776,o),
(29,599,o),
(29,280,cs)
);
}
);
width = 470;
},
{
background = {
shapes = (
{
closed = 1;
nodes = (
(150,361,l),
(180,392,o),
(212,398,o),
(248,398,cs),
(300,398,o),
(325,359,o),
(325,280,cs),
(325,176,o),
(306,125,o),
(268,125,cs),
(231,125,o),
(213,176,o),
(213,280,c),
(63,280,l),
(63,85,o),
(130,-10,o),
(268,-10,cs),
(407,-10,o),
(475,85,o),
(475,280,cs),
(475,450,o),
(400,533,o),
(248,533,c),
(152,497,l)
);
},
{
closed = 1;
nodes = (
(115,280,o),
(161,280,o),
(213,280,c),
(215,540,o),
(287,656,o),
(432,691,c),
(389,817,l),
(170,776,o),
(63,599,o),
(63,280,cs)
);
}
);
};
layerId = m002;
shapes = (
{
closed = 1;
nodes = (
(74,377,l),
(109,461,o),
(173,502,o),
(268,502,cs),
(400,502,o),
(465,429,o),
(465,280,cs),
(465,92,o),
(400,0,o),
(268,0,cs),
(137,0,o),
(73,92,o),
(73,280,c),
(63,280,l),
(63,85,o),
(130,-10,o),
(268,-10,cs),
(407,-10,o),
(475,85,o),
(475,280,cs),
(475,436,o),
(407,513,o),
(268,513,c),
(176,513,o),
(112,475,o),
(74,396,c)
);
},
{
closed = 1;
nodes = (
(115,280,o),
(21,280,o),
(73,280,c),
(75,595,o),
(180,769,o),
(392,808,c),
(389,817,l),
(170,776,o),
(63,600,o),
(63,280,cs)
);
}
);
width = 538;
}
);
unicode = 54;
},
{
glyphname = seven;
lastChange = "2024-08-03 06:43:41 +0000";
layers = (
{
layerId = m01;
shapes = (
{
closed = 1;
nodes = (
(203,0,l),
(405,682,l),
(405,802,l),
(5,802,l),
(5,662,l),
(326,662,l),
(282,731,l),
(39,0,l)
);
}
);
width = 400;
},
{
background = {
shapes = (
{
closed = 1;
nodes = (
(231,0,l),
(433,682,l),
(433,802,l),
(33,802,l),
(33,682,l),
(354,682,l),
(310,731,l),
(67,0,l)
);
}
);
};
layerId = m002;
shapes = (
{
closed = 1;
nodes = (
(108,0,l),
(413,792,l),
(413,802,l),
(53,802,l),
(53,792,l),
(408,792,l),
(405,797,l),
(97,0,l)
);
}
);
width = 456;
}
);
unicode = 55;
},
{
glyphname = eight;
lastChange = "2024-08-01 13:12:27 +0000";
layers = (
{
background = {
shapes = (
{
closed = 0;
nodes = (
(189,520,ls),
(189,624,o),
(208,675,o),
(246,675,cs),
(283,675,o),
(301,624,o),
(301,520,c),
(441,520,l),
(441,715,o),
(384,810,o),
(246,810,cs),
(107,810,o),
(49,715,o),
(49,520,cs)
);
},
{
closed = 0;
nodes = (
(441,520,ls),
(389,520,o),
(353,520,o),
(301,520,c)
);
},
{
closed = 1;
nodes = (
(189,176,o),
(208,125,o),
(246,125,cs),
(283,125,o),
(301,176,o),
(301,280,c),
(451,280,l),
(451,85,o),
(384,-10,o),
(246,-10,cs),
(107,-10,o),
(39,85,o),
(39,280,c),
(39,85,o),
(107,-10,o),
(246,-10,cs),
(384,-10,o),
(451,85,o),
(451,280,c),
(301,280,l),
(301,176,o),
(283,125,o),
(246,125,cs),
(208,125,o),
(189,176,o),
(189,280,c)
);
},
{
closed = 0;
nodes = (
(451,280,ls),
(399,280,o),
(353,280,o),
(301,280,c)
);
},
{
closed = 0;
nodes = (
(189,184,ls),
(189,288,o),
(208,339,o),
(246,339,cs),
(283,339,o),
(301,288,o),
(301,184,c),
(451,184,l),
(451,379,o),
(384,474,o),
(246,474,cs),
(107,474,o),
(39,379,o),
(39,184,cs)
);
},
{
closed = 0;
nodes = (
(49,630,ls),
(49,435,o),
(107,340,o),
(246,340,cs),
(384,340,o),
(441,435,o),
(441,630,c),
(301,630,l),
(301,526,o),
(283,475,o),
(246,475,cs),
(208,475,o),
(189,526,o),
(189,630,cs)
);
}
);
};
layerId = m01;
shapes = (
{
closed = 1;
nodes = (
(376,-11,o),
(460,78,o),
(460,239,cs),
(460,308,o),
(424,372,o),
(380,416,c),
(380,404,l),
(418,442,o),
(440,504,o),
(440,577,cs),
(440,727,o),
(370,811,o),
(247,811,cs),
(121,811,o),
(50,727,o),
(50,577,cs),
(50,504,o),
(72,443,o),
(111,404,c),
(111,417,l),
(65,371,o),
(30,308,o),
(30,239,cs),
(30,78,o),
(113,-11,o),
(245,-11,cs)
);
},
{
closed = 1;
nodes = (
(210,126,o),
(175,166,o),
(175,239,cs),
(175,305,o),
(210,341,o),
(245,341,cs),
(280,341,o),
(315,305,o),
(315,239,cs),
(315,166,o),
(280,126,o),
(245,126,cs)
);
},
{
closed = 1;
nodes = (
(210,476,o),
(185,512,o),
(185,577,cs),
(185,637,o),
(210,671,o),
(245,671,cs),
(280,671,o),
(305,637,o),
(305,577,cs),
(305,512,o),
(280,476,o),
(245,476,cs)
);
}
);
width = 490;
},
{
background = {
shapes = (
{
closed = 1;
nodes = (
(411,-10,o),
(473,65,o),
(473,239,cs),
(473,307,o),
(449,360,o),
(393,416,c),
(393,404,l),
(435,446,o),
(453,498,o),
(453,577,cs),
(453,739,o),
(398,808,o),
(270,808,cs),
(139,808,o),
(83,739,o),
(83,577,cs),
(83,499,o),
(101,447,o),
(144,404,c),
(144,417,l),
(87,360,o),
(63,307,o),
(63,239,cs),
(63,65,o),
(125,-10,o),
(268,-10,cs)
);
},
{
closed = 1;
nodes = (
(132,0,o),
(73,72,o),
(73,239,cs),
(73,356,o),
(132,406,o),
(268,406,cs),
(404,406,o),
(463,356,o),
(463,239,cs),
(463,72,o),
(404,0,o),
(268,0,cs)
);
},
{
closed = 1;
nodes = (
(146,411,o),
(93,461,o),
(93,577,cs),
(93,733,o),
(146,800,o),
(268,800,cs),
(390,800,o),
(443,733,o),
(443,577,cs),
(443,461,o),
(390,411,o),
(268,411,cs)
);
}
);
};
layerId = m002;
shapes = (
{
closed = 1;
nodes = (
(400,-10,o),
(473,72,o),
(473,219,cs),
(473,342,o),
(400,411,o),
(269,411,c),
(269,405,l),
(387,405,o),
(453,474,o),
(453,597,cs),
(453,733,o),
(388,808,o),
(270,808,cs),
(150,808,o),
(83,733,o),
(83,597,cs),
(83,474,o),
(149,405,o),
(267,405,c),
(267,411,l),
(136,411,o),
(63,342,o),
(63,219,cs),
(63,72,o),
(136,-10,o),
(268,-10,cs)
);
},
{
closed = 1;
nodes = (
(143,0,o),
(73,78,o),
(73,219,cs),
(73,337,o),
(143,403,o),
(268,403,cs),
(393,403,o),
(463,337,o),
(463,219,cs),
(463,78,o),
(393,0,o),
(268,0,cs)
);
},
{
closed = 1;
nodes = (
(156,413,o),
(93,479,o),
(93,597,cs),
(93,727,o),
(156,800,o),
(268,800,cs),
(380,800,o),
(443,728,o),
(443,599,cs),
(443,479,o),
(380,413,o),
(268,413,cs)
);
}
);
width = 536;
}
);
unicode = 56;
},
{
glyphname = nine;
lastChange = "2024-08-01 13:12:29 +0000";
layers = (
{
layerId = m01;
shapes = (
{
closed = 1;
nodes = (
(354,419,l),
(324,408,o),
(292,402,o),
(256,402,cs),
(204,402,o),
(179,441,o),
(179,520,cs),
(179,624,o),
(198,675,o),
(236,675,cs),
(273,675,o),
(291,624,o),
(291,520,c),
(441,520,l),
(441,715,o),
(374,810,o),
(236,810,cs),
(97,810,o),
(29,715,o),
(29,520,cs),
(29,350,o),
(104,267,o),
(256,267,c),
(291,267,o),
(324,272,o),
(352,283,c)
);
},
{
closed = 1;
nodes = (
(389,520,o),
(343,520,o),
(291,520,c),
(289,260,o),
(217,144,o),
(72,109,c),
(115,-17,l),
(334,24,o),
(441,201,o),
(441,520,cs)
);
}
);
width = 470;
},
{
layerId = m002;
shapes = (
{
closed = 1;
nodes = (
(464,386,l),
(429,302,o),
(365,261,o),
(270,261,cs),
(138,261,o),
(73,334,o),
(73,483,cs),
(73,671,o),
(138,763,o),
(270,763,cs),
(401,763,o),
(465,671,o),
(465,483,c),
(475,483,l),
(475,678,o),
(408,773,o),
(270,773,cs),
(131,773,o),
(63,678,o),
(63,483,cs),
(63,327,o),
(131,250,o),
(270,250,c),
(362,250,o),
(426,288,o),
(464,367,c)
);
},
{
closed = 1;
nodes = (
(423,483,o),
(517,483,o),
(465,483,c),
(463,168,o),
(358,-6,o),
(146,-45,c),
(149,-54,l),
(368,-13,o),
(475,163,o),
(475,483,cs)
);
}
);
width = 538;
}
);
unicode = 57;
},
{
glyphname = period;
lastChange = "2024-08-03 06:29:28 +0000";
layers = (
{
background = {
shapes = (
{
closed = 1;
nodes = (
(67,0,l),
(233,0,l),
(233,164,l),
(67,164,l)
);
}
);
};
layerId = m002;
shapes = (
{
closed = 1;
nodes = (
(133,0,l),
(167,0,l),
(167,34,l),
(133,34,l)
);
}
);
width = 300;
},
{
layerId = m01;
shapes = (
{
closed = 1;
nodes = (
(67,0,l),
(233,0,l),
(233,164,l),
(67,164,l)
);
}
);
width = 300;
}
);
unicode = 46;
},
{
glyphname = comma;
lastChange = "2024-08-03 06:29:30 +0000";
layers = (
{
background = {
shapes = (
{
closed = 1;
nodes = (
(67,0,l),
(233,0,l),
(233,164,l),
(67,164,l)
);
},
{
closed = 1;
nodes = (
(117,-148,l),
(233,0,l),
(142,0,l),
(75,-117,l)
);
}
);
};
layerId = m002;
shapes = (
{
closed = 1;
nodes = (
(133,0,l),
(167,0,l),
(167,34,l),
(133,34,l)
);
},
{
closed = 1;
nodes = (
(139,-51,l),
(167,0,l),
(147,0,l),
(130,-44,l)
);
}
);
width = 300;
},
{
layerId = m01;
shapes = (
{
closed = 1;
nodes = (
(67,0,l),
(233,0,l),
(233,164,l),
(67,164,l)
);
},
{
closed = 1;
nodes = (
(117,-148,l),
(233,0,l),
(142,0,l),
(75,-117,l)
);
}
);
width = 300;
}
);
unicode = 44;
},
{
glyphname = colon;
lastChange = "2024-08-03 06:27:58 +0000";
layers = (
{
layerId = m002;
shapes = (
{
closed = 1;
nodes = (
(133,0,l),
(167,0,l),
(167,34,l),
(133,34,l)
);
},
{
closed = 1;
nodes = (
(133,610,l),
(167,610,l),
(167,644,l),
(133,644,l)
);
}
);
width = 300;
},
{
layerId = m01;
shapes = (
{
closed = 1;
nodes = (
(67,0,l),
(233,0,l),
(233,164,l),
(67,164,l)
);
},
{
closed = 1;
nodes = (
(67,486,l),
(233,486,l),
(233,650,l),
(67,650,l)
);
}
);
width = 300;
}
);
unicode = 58;
},
{
glyphname = semicolon;
lastChange = "2024-08-03 06:26:27 +0000";
layers = (
{
layerId = m002;
shapes = (
{
closed = 1;
nodes = (
(133,0,l),
(167,0,l),
(167,34,l),
(133,34,l)
);
},
{
closed = 1;
nodes = (
(139,-51,l),
(167,0,l),
(147,0,l),
(130,-44,l)
);
},
{
closed = 1;
nodes = (
(133,610,l),
(167,610,l),
(167,644,l),
(133,644,l)
);
}
);
width = 300;
},
{
layerId = m01;
shapes = (
{
closed = 1;
nodes = (
(67,0,l),
(233,0,l),
(233,164,l),
(67,164,l)
);
},
{
closed = 1;
nodes = (
(117,-148,l),
(233,0,l),
(142,0,l),
(75,-117,l)
);
},
{
closed = 1;
nodes = (
(67,486,l),
(233,486,l),
(233,650,l),
(67,650,l)
);
}
);
width = 300;
}
);
unicode = 59;
},
{
glyphname = exclam;
lastChange = "2024-08-01 18:52:22 +0000";
layers = (
{
background = {
shapes = (
{
closed = 1;
nodes = (
(68,0,l),
(234,0,l),
(234,164,l),
(68,164,l)
);
},
{
closed = 1;
nodes = (
(200,265,l),
(253,850,l),
(47,850,l),
(104,265,l)
);
}
);
};
layerId = m002;
shapes = (
{
closed = 1;
nodes = (
(133,0,l),
(167,0,l),
(167,34,l),
(133,34,l)
);
},
{
closed = 1;
nodes = (
(157,265,l),
(155,850,l),
(145,850,l),
(147,265,l)
);
}
);
width = 300;
},
{
layerId = m01;
shapes = (
{
closed = 1;
nodes = (
(98,0,l),
(264,0,l),
(264,164,l),
(98,164,l)
);
},
{
closed = 1;
nodes = (
(230,265,l),
(283,850,l),
(77,850,l),
(134,265,l)
);
}
);
width = 360;
}
);
unicode = 33;
},
{
glyphname = exclamdown;
lastChange = "2024-08-01 18:54:57 +0000";
layers = (
{
layerId = m002;
shapes = (
{
closed = 1;
nodes = (
(167,850,l),
(133,850,l),
(133,816,l),
(167,816,l)
);
},
{
closed = 1;
nodes = (
(143,585,l),
(145,0,l),
(155,0,l),
(153,585,l)
);
}
);
width = 300;
},
{
layerId = m01;
shapes = (
{
closed = 1;
nodes = (
(265,867,l),
(99,867,l),
(99,703,l),
(265,703,l)
);
},
{
closed = 1;
nodes = (
(133,602,l),
(80,17,l),
(286,17,l),
(229,602,l)
);
}
);
width = 360;
}
);
unicode = 161;
},
{
glyphname = question;
lastChange = "2024-08-03 07:20:09 +0000";
layers = (
{
background = {
shapes = (
{
closed = 1;
nodes = (
(116,0,l),
(282,0,l),
(282,164,l),
(116,164,l)
);
},
{
closed = 1;
nodes = (
(246,268,l),
(265,416,l),
(341,416,o),
(389,511,o),
(389,661,cs),
(389,791,o),
(314,873,o),
(194,873,cs),
(76,873,o),
(2,792,o),
(2,664,c),
(152,664,l),
(152,669,o),
(150,636,o),
(150,678,cs),
(150,715,o),
(169,738,o),
(198,738,cs),
(223,738,o),
(239,707,o),
(239,658,cs),
(239,574,o),
(220,522,o),
(191,522,cs),
(122,522,l),
(149,268,l)
);
}
);
};
layerId = m002;
shapes = (
{
closed = 1;
nodes = (
(173,0,l),
(207,0,l),
(207,34,l),
(173,34,l)
);
},
{
closed = 1;
nodes = (
(198,213,l),
(198,423,l),
(294,473,o),
(362,577,o),
(362,673,cs),
(362,783,o),
(294,860,o),
(197,860,cs),
(99,860,o),
(29,799,o),
(29,713,c),
(39,713,l),
(39,793,o),
(104,850,o),
(197,850,cs),
(288,850,o),
(352,777,o),
(352,673,cs),
(352,580,o),
(284,479,o),
(188,429,c),
(188,213,l)
);
}
);
width = 391;
},
{
background = {
shapes = (
{
closed = 1;
nodes = (
(180,265,l),
(233,850,l),
(27,850,l),
(84,265,l)
);
}
);
};
layerId = m01;
shapes = (
{
closed = 1;
nodes = (
(126,0,l),
(292,0,l),
(292,164,l),
(126,164,l)
);
},
{
closed = 1;
nodes = (
(266,268,l),
(285,416,l),
(349,459,o),
(399,568,o),
(399,661,cs),
(399,779,o),
(313,873,o),
(204,873,cs),
(97,873,o),
(12,780,o),
(12,664,c),
(162,664,l),
(160,705,o),
(180,738,o),
(208,738,cs),
(231,738,o),
(249,703,o),
(249,658,cs),
(249,603,o),
(197,525,o),
(132,482,c),
(149,268,l)
);
}
);
width = 410;
}
);
unicode = 63;
},
{
glyphname = questiondown;
lastChange = "2024-08-01 18:55:17 +0000";
layers = (
{
layerId = m002;
shapes = (
{
closed = 1;
nodes = (
(248,860,l),
(214,860,l),
(214,826,l),
(248,826,l)
);
},
{
closed = 1;
nodes = (
(223,537,l),
(223,389,l),
(127,389,o),
(59,305,o),
(59,187,cs),
(59,77,o),
(127,0,o),
(224,0,cs),
(322,0,o),
(392,61,o),
(392,147,c),
(382,147,l),
(382,67,o),
(317,10,o),
(224,10,cs),
(133,10,o),
(69,83,o),
(69,187,cs),
(69,301,o),
(137,381,o),
(233,381,c),
(233,537,l)
);
}
);
width = 450;
},
{
layerId = m01;
shapes = (
{
closed = 1;
nodes = (
(305,873,l),
(139,873,l),
(139,709,l),
(305,709,l)
);
},
{
closed = 1;
nodes = (
(175,605,l),
(156,457,l),
(87,410,o),
(32,301,o),
(32,212,cs),
(32,94,o),
(118,0,o),
(227,0,cs),
(334,0,o),
(419,93,o),
(419,209,c),
(269,209,l),
(271,168,o),
(251,135,o),
(223,135,cs),
(200,135,o),
(182,170,o),
(182,215,cs),
(182,273,o),
(229,351,o),
(289,391,c),
(272,605,l)
);
}
);
width = 450;
}
);
unicode = 191;
},
{
glyphname = periodcentered;
lastChange = "2024-08-03 07:31:53 +0000";
layers = (
{
layerId = m002;
shapes = (
{
closed = 1;
nodes = (
(263,310,l),
(297,310,l),
(297,344,l),
(263,344,l)
);
}
);
width = 560;
},
{
layerId = m01;
shapes = (
{
closed = 1;
nodes = (
(160,250,l),
(326,250,l),
(326,414,l),
(160,414,l)
);
}
);
width = 486;
}
);
unicode = 183;
},
{
glyphname = bullet;
lastChange = "2024-08-03 07:32:26 +0000";
layers = (
{
layerId = m002;
shapes = (
{
closed = 1;
nodes = (
(317,245,o),
(331,259,o),
(331,277,cs),
(331,294,o),
(317,308,o),
(300,308,cs),
(282,308,o),
(268,294,o),
(268,277,cs),
(268,259,o),
(282,245,o),
(300,245,cs)
);
}
);
width = 600;
},
{
layerId = m01;
shapes = (
{
closed = 1;
nodes = (
(397,100,o),
(476,179,o),
(476,277,cs),
(476,374,o),
(397,453,o),
(300,453,cs),
(202,453,o),
(123,374,o),
(123,277,cs),
(123,179,o),
(202,100,o),
(300,100,cs)
);
}
);
width = 600;
}
);
unicode = 8226;
},
{
glyphname = asterisk;
lastChange = "2024-08-03 07:25:04 +0000";
layers = (
{
background = {
shapes = (
{
closed = 1;
nodes = (
(52,683,l),
(154,617,l),
(52,551,l),
(82,500,l),
(189,555,l),
(195,435,l),
(254,434,l),
(260,555,l),
(368,500,l),
(398,551,l),
(296,617,l),
(398,683,l),
(368,734,l),
(261,679,l),
(255,799,l),
(196,800,l),
(190,679,l),
(82,734,l)
);
}
);
};
layerId = m002;
shapes = (
{
closed = 1;
nodes = (
(86,771,l),
(217,697,l),
(86,623,l),
(92,613,l),
(221,690,l),
(219,540,l),
(230,539,l),
(229,690,l),
(358,613,l),
(364,623,l),
(233,697,l),
(364,771,l),
(358,781,l),
(229,704,l),
(231,854,l),
(220,855,l),
(221,704,l),
(92,781,l)
);
}
);
width = 450;
},
{
layerId = m01;
shapes = (
{
closed = 1;
nodes = (
(52,733,l),
(154,667,l),
(52,601,l),
(82,550,l),
(189,605,l),
(195,485,l),
(254,484,l),
(260,605,l),
(368,550,l),
(398,601,l),
(296,667,l),
(398,733,l),
(368,784,l),
(261,729,l),
(255,849,l),
(196,850,l),
(190,729,l),
(82,784,l)
);
}
);
width = 450;
}
);
unicode = 42;
},
{
glyphname = numbersign;
lastChange = "2024-08-03 07:59:51 +0000";
layers = (
{
layerId = m002;
shapes = (
{
closed = 1;
nodes = (
(75,-100,l),
(85,-100,l),
(245,850,l),
(235,850,l)
);
},
{
closed = 1;
nodes = (
(376,-100,l),
(386,-100,l),
(546,850,l),
(536,850,l)
);
},
{
closed = 1;
nodes = (
(80,545,l),
(640,545,l),
(640,555,l),
(80,555,l)
);
},
{
closed = 1;
nodes = (
(0,185,l),
(560,185,l),
(560,195,l),
(0,195,l)
);
}
);
width = 640;
},
{
layerId = m01;
shapes = (
{
closed = 1;
nodes = (
(95,-100,l),
(216,-100,l),
(346,850,l),
(225,850,l)
);
},
{
closed = 1;
nodes = (
(385,-100,l),
(506,-100,l),
(636,850,l),
(515,850,l)
);
},
{
closed = 1;
nodes = (
(70,465,l),
(660,465,l),
(700,645,l),
(110,645,l)
);
},
{
closed = 1;
nodes = (
(20,105,l),
(610,105,l),
(650,285,l),
(60,285,l)
);
}
);
width = 741;
}
);
unicode = 35;
},
{
glyphname = slash;
lastChange = "2024-08-01 13:15:36 +0000";
layers = (
{
layerId = m002;
shapes = (
{
closed = 1;
nodes = (
(55,-100,l),
(66,-100,l),
(366,850,l),
(355,850,l)
);
}
);
width = 421;
},
{
layerId = m01;
shapes = (
{
closed = 1;
nodes = (
(25,-100,l),
(159,-100,l),
(459,850,l),
(325,850,l)
);
}
);
width = 484;
}
);
metricLeft = O;
metricRight = O;
unicode = 47;
},
{
glyphname = backslash;
lastChange = "2024-08-03 07:34:39 +0000";
layers = (
{
layerId = m002;
shapes = (
{
closed = 1;
nodes = (
(55,850,l),
(355,-100,l),
(366,-100,l),
(66,850,l)
);
}
);
width = 421;
},
{
layerId = m01;
shapes = (
{
closed = 1;
nodes = (
(25,850,l),
(325,-100,l),
(459,-100,l),
(159,850,l)
);
}
);
width = 484;
}
);
unicode = 92;
},
{
glyphname = hyphen;
lastChange = "2024-08-03 06:30:16 +0000";
layers = (
{
layerId = m002;
shapes = (
{
closed = 1;
nodes = (
(20,385,l),
(280,385,l),
(280,395,l),
(20,395,l)
);
}
);
width = 300;
},
{
layerId = m01;
shapes = (
{
closed = 1;
nodes = (
(20,310,l),
(280,310,l),
(280,470,l),
(20,470,l)
);
}
);
width = 300;
}
);
unicode = 45;
},
{
glyphname = endash;
lastChange = "2024-08-03 07:30:28 +0000";
layers = (
{
layerId = m002;
shapes = (
{
closed = 1;
nodes = (
(20,385,l),
(580,385,l),
(580,395,l),
(20,395,l)
);
}
);
width = 600;
},
{
layerId = m01;
shapes = (
{
closed = 1;
nodes = (
(50,310,l),
(550,310,l),
(550,390,l),
(50,390,l)
);
}
);
width = 600;
}
);
unicode = 8211;
},
{
glyphname = emdash;
lastChange = "2024-08-03 07:30:52 +0000";
layers = (
{
layerId = m002;
shapes = (
{
closed = 1;
nodes = (
(0,385,l),
(600,385,l),
(600,395,l),
(0,395,l)
);
}
);
width = 600;
},
{
layerId = m01;
shapes = (
{
closed = 1;
nodes = (
(0,310,l),
(550,310,l),
(550,390,l),
(0,390,l)
);
}
);
width = 550;
}
);
unicode = 8212;
},
{
glyphname = underscore;
lastChange = "2024-08-03 07:31:09 +0000";
layers = (
{
layerId = m002;
shapes = (
{
closed = 1;
nodes = (
(0,-200,l),
(600,-200,l),
(600,-190,l),
(0,-190,l)
);
}
);
width = 600;
},
{
layerId = m01;
shapes = (
{
closed = 1;
nodes = (
(0,-200,l),
(550,-200,l),
(550,-120,l),
(0,-120,l)
);
}
);
width = 550;
}
);
unicode = 95;
},
{
glyphname = parenleft;
lastChange = "2024-08-03 07:21:41 +0000";
layers = (
{
layerId = m002;
shapes = (
{
closed = 1;
nodes = (
(160,-52,o),
(110,153,o),
(110,327,cs),
(110,499,o),
(160,702,o),
(230,850,c),
(220,850,l),
(153,708,o),
(100,500,o),
(100,326,cs),
(100,152,o),
(153,-58,o),
(220,-200,c),
(230,-200,l)
);
}
);
width = 330;
},
{
layerId = m01;
shapes = (
{
closed = 1;
nodes = (
(209,-52,o),
(168,153,o),
(168,327,cs),
(168,499,o),
(209,702,o),
(279,850,c),
(146,850,l),
(79,708,o),
(28,500,o),
(28,326,cs),
(28,152,o),
(79,-58,o),
(146,-200,c),
(279,-200,l)
);
}
);
width = 310;
}
);
unicode = 40;
},
{
glyphname = parenright;
lastChange = "2024-08-03 07:21:45 +0000";
layers = (
{
layerId = m002;
shapes = (
{
closed = 1;
nodes = (
(110,-200,l),
(177,-58,o),
(230,152,o),
(230,326,cs),
(230,500,o),
(177,708,o),
(110,850,c),
(100,850,l),
(170,702,o),
(220,499,o),
(220,327,cs),
(220,153,o),
(170,-52,o),
(100,-200,c)
);
}
);
width = 330;
},
{
layerId = m01;
shapes = (
{
closed = 1;
nodes = (
(171,-200,l),
(238,-58,o),
(289,150,o),
(289,324,cs),
(289,498,o),
(238,708,o),
(171,850,c),
(38,850,l),
(108,702,o),
(149,497,o),
(149,323,cs),
(149,151,o),
(108,-52,o),
(38,-200,c)
);
}
);
width = 320;
}
);
unicode = 41;
},
{
glyphname = braceleft;
lastChange = "2024-08-01 20:01:56 +0000";
layers = (
{
layerId = m002;
shapes = (
{
closed = 1;
nodes = (
(270,-200,l),
(221,-200,o),
(190,-175,o),
(190,-134,c),
(190,237,l),
(190,291,o),
(170,325,o),
(139,325,cs),
(109,325,l),
(109,320,l),
(129,320,l),
(160,320,o),
(179,288,o),
(179,237,c),
(182,-134,l),
(182,-181,o),
(216,-210,o),
(270,-210,c)
);
},
{
closed = 1;
nodes = (
(216,860,o),
(182,831,o),
(182,784,c),
(179,413,l),
(179,362,o),
(160,330,o),
(129,330,c),
(109,330,l),
(109,325,l),
(139,325,ls),
(170,325,o),
(190,359,o),
(190,413,c),
(190,784,l),
(190,825,o),
(221,850,o),
(270,850,c),
(270,860,l)
);
}
);
width = 380;
},
{
background = {
shapes = (
{
closed = 1;
nodes = (
(259,-52,o),
(218,153,o),
(218,327,cs),
(218,499,o),
(259,702,o),
(329,850,c),
(196,850,l),
(129,708,o),
(78,500,o),
(78,326,cs),
(78,152,o),
(129,-58,o),
(196,-200,c),
(329,-200,l)
);
}
);
};
layerId = m01;
shapes = (
{
closed = 1;
nodes = (
(335,-146,l),
(285,-146,o),
(255,-110,o),
(255,-63,c),
(255,237,l),
(255,277,o),
(227,325,o),
(172,325,cs),
(44,325,l),
(44,288,l),
(64,288,l),
(91,288,o),
(114,258,o),
(114,237,c),
(117,-65,l),
(117,-128,o),
(200,-210,o),
(335,-210,c)
);
},
{
closed = 1;
nodes = (
(200,860,o),
(117,778,o),
(117,715,c),
(114,413,l),
(114,392,o),
(91,362,o),
(64,362,c),
(44,362,l),
(44,325,l),
(172,325,ls),
(227,325,o),
(255,373,o),
(255,413,c),
(255,713,l),
(255,760,o),
(285,796,o),
(335,796,c),
(335,860,l)
);
}
);
width = 380;
}
);
unicode = 123;
},
{
glyphname = braceright;
lastChange = "2024-08-01 20:01:40 +0000";
layers = (
{
layerId = m002;
shapes = (
{
closed = 1;
nodes = (
(163,-210,o),
(197,-181,o),
(197,-134,c),
(200,237,l),
(200,288,o),
(219,320,o),
(250,320,c),
(270,320,l),
(270,325,l),
(240,325,ls),
(209,325,o),
(189,291,o),
(189,237,c),
(189,-134,l),
(189,-175,o),
(158,-200,o),
(109,-200,c),
(109,-210,l)
);
},
{
closed = 1;
nodes = (
(109,850,l),
(158,850,o),
(189,825,o),
(189,784,c),
(189,413,l),
(189,359,o),
(209,325,o),
(240,325,cs),
(270,325,l),
(270,330,l),
(250,330,l),
(219,330,o),
(200,362,o),
(200,413,c),
(197,784,l),
(197,831,o),
(163,860,o),
(109,860,c)
);
}
);
width = 380;
},
{
layerId = m01;
shapes = (
{
closed = 1;
nodes = (
(179,-210,o),
(262,-128,o),
(262,-65,c),
(265,237,l),
(265,258,o),
(288,288,o),
(315,288,c),
(335,288,l),
(335,325,l),
(207,325,ls),
(152,325,o),
(124,277,o),
(124,237,c),
(124,-63,l),
(124,-110,o),
(94,-146,o),
(44,-146,c),
(44,-210,l)
);
},
{
closed = 1;
nodes = (
(44,796,l),
(94,796,o),
(124,760,o),
(124,713,c),
(124,413,l),
(124,373,o),
(152,325,o),
(207,325,cs),
(335,325,l),
(335,362,l),
(315,362,l),
(288,362,o),
(265,392,o),
(265,413,c),
(262,715,l),
(262,778,o),
(179,860,o),
(44,860,c)
);
}
);
width = 380;
}
);
unicode = 125;
},
{
glyphname = bracketleft;
lastChange = "2024-08-03 07:22:19 +0000";
layers = (
{
layerId = m002;
shapes = (
{
closed = 1;
nodes = (
(220,-200,l),
(220,-190,l),
(140,-190,l),
(140,840,l),
(220,840,l),
(220,850,l),
(130,850,l),
(130,-200,l)
);
}
);
width = 350;
},
{
layerId = m01;
shapes = (
{
closed = 1;
nodes = (
(300,-200,l),
(300,-60,l),
(220,-60,l),
(220,710,l),
(300,710,l),
(300,850,l),
(80,850,l),
(80,-200,l)
);
}
);
width = 380;
}
);
unicode = 91;
},
{
glyphname = bracketright;
lastChange = "2024-08-03 07:22:23 +0000";
layers = (
{
layerId = m002;
shapes = (
{
closed = 1;
nodes = (
(220,850,l),
(130,850,l),
(130,840,l),
(210,840,l),
(210,-190,l),
(130,-190,l),
(130,-200,l),
(220,-200,l)
);
}
);
width = 350;
},
{
layerId = m01;
shapes = (
{
closed = 1;
nodes = (
(300,850,l),
(80,850,l),
(80,710,l),
(160,710,l),
(160,-60,l),
(80,-60,l),
(80,-200,l),
(300,-200,l)
);
}
);
width = 380;
}
);
unicode = 93;
},
{
glyphname = quotesinglbase;
lastChange = "2024-08-03 12:28:27 +0000";
layers = (
{
layerId = m002;
shapes = (
{
closed = 1;
nodes = (
(73,0,l),
(107,0,l),
(107,34,l),
(73,34,l)
);
},
{
closed = 1;
nodes = (
(79,-51,l),
(107,0,l),
(87,0,l),
(70,-44,l)
);
}
);
width = 177;
},
{
layerId = m01;
shapes = (
{
closed = 1;
nodes = (
(67,0,l),
(233,0,l),
(233,164,l),
(67,164,l)
);
},
{
closed = 1;
nodes = (
(117,-148,l),
(233,0,l),
(142,0,l),
(75,-117,l)
);
}
);
width = 300;
}
);
unicode = 8218;
},
{
glyphname = quotedblbase;
lastChange = "2024-08-03 10:19:26 +0000";
layers = (
{
layerId = m002;
shapes = (
{
closed = 1;
nodes = (
(73,0,l),
(107,0,l),
(107,34,l),
(73,34,l)
);
},
{
closed = 1;
nodes = (
(79,-51,l),
(107,0,l),
(87,0,l),
(70,-44,l)
);
},
{
closed = 1;
nodes = (
(133,0,l),
(167,0,l),
(167,34,l),
(133,34,l)
);
},
{
closed = 1;
nodes = (
(139,-51,l),
(167,0,l),
(147,0,l),
(130,-44,l)
);
}
);
width = 237;
},
{
layerId = m01;
shapes = (
{
closed = 1;
nodes = (
(53,0,l),
(219,0,l),
(219,164,l),
(53,164,l)
);
},
{
closed = 1;
nodes = (
(103,-148,l),
(219,0,l),
(128,0,l),
(61,-117,l)
);
},
{
closed = 1;
nodes = (
(263,0,l),
(429,0,l),
(429,164,l),
(263,164,l)
);
},
{
closed = 1;
nodes = (
(313,-148,l),
(429,0,l),
(338,0,l),
(271,-117,l)
);
}
);
width = 482;
}
);
unicode = 8222;
},
{
glyphname = quotedblleft;
lastChange = "2024-08-03 12:28:47 +0000";
layers = (
{
layerId = m002;
shapes = (
{
closed = 1;
nodes = (
(165,806,l),
(131,807,l),
(130,773,l),
(164,772,l)
);
},
{
closed = 1;
nodes = (
(161,857,l),
(131,807,l),
(151,806,l),
(170,850,l)
);
},
{
closed = 1;
nodes = (
(105,808,l),
(71,809,l),
(70,775,l),
(104,774,l)
);
},
{
closed = 1;
nodes = (
(101,859,l),
(71,809,l),
(91,808,l),
(110,852,l)
);
}
);
width = 240;
},
{
layerId = m01;
shapes = (
{
closed = 1;
nodes = (
(429,733,l),
(263,733,l),
(263,569,l),
(429,569,l)
);
},
{
closed = 1;
nodes = (
(379,881,l),
(263,733,l),
(354,733,l),
(421,850,l)
);
},
{
closed = 1;
nodes = (
(219,733,l),
(53,733,l),
(53,569,l),
(219,569,l)
);
},
{
closed = 1;
nodes = (
(169,881,l),
(53,733,l),
(144,733,l),
(211,850,l)
);
}
);
width = 482;
}
);
unicode = 8220;
},
{
glyphname = quotedblright;
lastChange = "2024-08-03 12:29:41 +0000";
layers = (
{
layerId = m002;
shapes = (
{
closed = 1;
nodes = (
(73,816,l),
(107,816,l),
(107,850,l),
(73,850,l)
);
},
{
closed = 1;
nodes = (
(79,765,l),
(107,816,l),
(87,816,l),
(70,772,l)
);
},
{
closed = 1;
nodes = (
(133,816,l),
(167,816,l),
(167,850,l),
(133,850,l)
);
},
{
closed = 1;
nodes = (
(139,765,l),
(167,816,l),
(147,816,l),
(130,772,l)
);
}
);
width = 237;
},
{
layerId = m01;
shapes = (
{
closed = 1;
nodes = (
(53,686,l),
(219,686,l),
(219,850,l),
(53,850,l)
);
},
{
closed = 1;
nodes = (
(103,538,l),
(219,686,l),
(128,686,l),
(61,569,l)
);
},
{
closed = 1;
nodes = (
(263,686,l),
(429,686,l),
(429,850,l),
(263,850,l)
);
},
{
closed = 1;
nodes = (
(313,538,l),
(429,686,l),
(338,686,l),
(271,569,l)
);
}
);
width = 482;
}
);
unicode = 8221;
},
{
glyphname = quoteleft;
lastChange = "2024-08-03 12:28:35 +0000";
layers = (
{
layerId = m002;
shapes = (
{
closed = 1;
nodes = (
(105,808,l),
(71,809,l),
(70,775,l),
(104,774,l)
);
},
{
closed = 1;
nodes = (
(101,859,l),
(71,809,l),
(91,808,l),
(110,852,l)
);
}
);
width = 180;
},
{
layerId = m01;
shapes = (
{
closed = 1;
nodes = (
(233,733,l),
(67,733,l),
(67,569,l),
(233,569,l)
);
},
{
closed = 1;
nodes = (
(183,881,l),
(67,733,l),
(158,733,l),
(225,850,l)
);
}
);
width = 300;
}
);
unicode = 8216;
},
{
glyphname = quoteright;
lastChange = "2024-08-03 10:22:37 +0000";
layers = (
{
layerId = m002;
shapes = (
{
closed = 1;
nodes = (
(133,816,l),
(167,816,l),
(167,850,l),
(133,850,l)
);
},
{
closed = 1;
nodes = (
(139,765,l),
(167,816,l),
(147,816,l),
(130,772,l)
);
}
);
width = 297;
},
{
layerId = m01;
shapes = (
{
closed = 1;
nodes = (
(67,686,l),
(233,686,l),
(233,850,l),
(67,850,l)
);
},
{
closed = 1;
nodes = (
(117,538,l),
(233,686,l),
(142,686,l),
(75,569,l)
);
}
);
width = 300;
}
);
unicode = 8217;
},
{
glyphname = guillemetleft;
lastChange = "2024-08-03 07:55:40 +0000";
layers = (
{
layerId = m002;
shapes = (
{
closed = 1;
nodes = (
(422,192,l),
(303,389,l),
(422,578,l),
(422,596,l),
(291,388,l),
(422,173,l)
);
},
{
closed = 1;
nodes = (
(262,192,l),
(143,388,l),
(262,578,l),
(262,596,l),
(131,388,l),
(262,173,l)
);
}
);
width = 553;
},
{
layerId = m01;
shapes = (
{
closed = 1;
nodes = (
(539,112,l),
(456,349,l),
(539,586,l),
(383,586,l),
(305,349,l),
(383,112,l)
);
},
{
closed = 1;
nodes = (
(289,112,l),
(206,349,l),
(289,586,l),
(133,586,l),
(55,349,l),
(133,112,l)
);
}
);
width = 594;
}
);
unicode = 171;
},
{
glyphname = guillemetright;
lastChange = "2024-08-03 07:55:28 +0000";
layers = (
{
layerId = m002;
shapes = (
{
closed = 1;
nodes = (
(262,381,l),
(131,596,l),
(131,577,l),
(250,381,l),
(131,191,l),
(131,173,l)
);
},
{
closed = 1;
nodes = (
(422,381,l),
(291,596,l),
(291,577,l),
(410,381,l),
(291,191,l),
(291,173,l)
);
}
);
width = 553;
},
{
layerId = m01;
shapes = (
{
closed = 1;
nodes = (
(289,349,l),
(211,586,l),
(55,586,l),
(138,349,l),
(55,112,l),
(211,112,l)
);
},
{
closed = 1;
nodes = (
(539,349,l),
(461,586,l),
(305,586,l),
(388,349,l),
(305,112,l),
(461,112,l)
);
}
);
width = 594;
}
);
unicode = 187;
},
{
glyphname = guilsinglleft;
lastChange = "2024-08-03 07:56:34 +0000";
layers = (
{
layerId = m002;
shapes = (
{
closed = 1;
nodes = (
(242,192,l),
(123,388,l),
(242,578,l),
(242,596,l),
(111,388,l),
(242,173,l)
);
}
);
width = 353;
},
{
layerId = m01;
shapes = (
{
closed = 1;
nodes = (
(307,112,l),
(204,349,l),
(307,586,l),
(141,586,l),
(43,349,l),
(141,112,l)
);
}
);
width = 350;
}
);
unicode = 8249;
},
{
glyphname = guilsinglright;
lastChange = "2024-08-03 07:56:42 +0000";
layers = (
{
layerId = m002;
shapes = (
{
closed = 1;
nodes = (
(242,388,l),
(111,596,l),
(111,577,l),
(230,388,l),
(111,192,l),
(111,173,l)
);
}
);
width = 353;
},
{
layerId = m01;
shapes = (
{
closed = 1;
nodes = (
(297,349,l),
(199,586,l),
(33,586,l),
(136,349,l),
(33,112,l),
(199,112,l)
);
}
);
width = 350;
}
);
unicode = 8250;
},
{
glyphname = quotedbl;
lastChange = "2024-08-03 10:23:48 +0000";
layers = (
{
layerId = m002;
shapes = (
{
closed = 1;
nodes = (
(155,718,l),
(167,784,l),
(167,800,l),
(133,800,l),
(133,784,l),
(146,718,l)
);
},
{
closed = 1;
nodes = (
(255,718,l),
(267,784,l),
(267,800,l),
(233,800,l),
(233,784,l),
(246,718,l)
);
}
);
width = 400;
},
{
layerId = m01;
shapes = (
{
closed = 1;
nodes = (
(177,553,l),
(220,800,l),
(220,850,l),
(80,850,l),
(80,800,l),
(125,553,l)
);
},
{
closed = 1;
nodes = (
(377,553,l),
(420,800,l),
(420,850,l),
(280,850,l),
(280,800,l),
(325,553,l)
);
}
);
width = 500;
}
);
unicode = 34;
},
{
glyphname = quotesingle;
lastChange = "2024-08-03 10:23:20 +0000";
layers = (
{
layerId = m002;
shapes = (
{
closed = 1;
nodes = (
(155,718,l),
(167,784,l),
(167,800,l),
(133,800,l),
(133,784,l),
(146,718,l)
);
}
);
width = 300;
},
{
layerId = m01;
shapes = (
{
closed = 1;
nodes = (
(177,553,l),
(220,800,l),
(220,850,l),
(80,850,l),
(80,800,l),
(125,553,l)
);
}
);
width = 300;
}
);
unicode = 39;
},
{
glyphname = at;
lastChange = "2024-08-03 11:45:40 +0000";
layers = (
{
layerId = m002;
shapes = (
{
closed = 1;
nodes = (
(523,-10,o),
(570,25,o),
(570,107,c),
(570,480,ls),
(570,606,o),
(523,660,o),
(414,660,cs),
(305,660,o),
(260,606,o),
(265,480,c),
(275,480,l),
(270,599,o),
(312,650,o),
(414,650,cs),
(516,650,o),
(560,599,o),
(560,480,cs),
(560,346,l),
(343,346,o),
(250,289,o),
(250,157,cs),
(250,40,o),
(299,-10,o),
(414,-10,cs)
);
},
{
closed = 1;
nodes = (
(306,0,o),
(260,47,o),
(260,157,cs),
(260,282,o),
(350,336,o),
(560,336,c),
(559,107,ls),
(559,32,o),
(515,0,o),
(414,0,cs)
);
},
{
closed = 1;
nodes = (
(570,336,l),
(710,336,o),
(770,267,o),
(770,107,cs),
(770,-108,o),
(663,-200,o),
(414,-200,c),
(414,-210,l),
(670,-210,o),
(780,-115,o),
(780,107,cs),
(780,274,o),
(717,346,o),
(570,346,c)
);
},
{
closed = 1;
nodes = (
(414,-200,l),
(170,-200,o),
(65,-41,o),
(65,330,cs),
(65,695,o),
(170,851,o),
(414,851,cs),
(655,851,o),
(758,723,o),
(758,423,c),
(768,423,l),
(768,730,o),
(662,861,o),
(414,861,cs),
(163,861,o),
(55,702,o),
(55,330,cs),
(55,-47,o),
(163,-209,o),
(414,-209,c)
);
}
);
width = 835;
},
{
layerId = m01;
shapes = (
{
closed = 1;
nodes = (
(591,-10,o),
(660,51,o),
(660,177,c),
(660,480,ls),
(660,601,o),
(591,660,o),
(450,660,cs),
(300,660,o),
(230,601,o),
(235,480,c),
(365,480,l),
(363,527,o),
(391,550,o),
(450,550,cs),
(504,550,o),
(530,527,o),
(530,480,cs),
(530,396,l),
(329,396,o),
(230,317,o),
(230,157,cs),
(230,45,o),
(302,-10,o),
(450,-10,cs)
);
},
{
closed = 1;
nodes = (
(390,101,o),
(360,119,o),
(360,157,cs),
(360,244,o),
(416,286,o),
(530,286,c),
(529,177,ls),
(528,126,o),
(502,101,o),
(450,101,cs)
);
},
{
closed = 1;
nodes = (
(660,286,l),
(714,286,o),
(740,250,o),
(740,177,cs),
(740,-9,o),
(645,-100,o),
(450,-100,c),
(450,-210,l),
(732,-210,o),
(870,-83,o),
(870,177,cs),
(870,324,o),
(801,396,o),
(660,396,c)
);
},
{
closed = 1;
nodes = (
(450,-100,l),
(252,-100,o),
(155,41,o),
(155,330,cs),
(155,613,o),
(252,751,o),
(450,751,cs),
(637,751,o),
(728,660,o),
(728,473,c),
(858,473,l),
(858,734,o),
(724,861,o),
(450,861,c),
(165,861,o),
(25,687,o),
(25,330,cs),
(25,-32,o),
(165,-209,o),
(450,-209,c)
);
}
);
width = 895;
}
);
metricLeft = O;
metricRight = O;
unicode = 64;
},
{
glyphname = ampersand;
lastChange = "2024-08-02 09:17:31 +0000";
layers = (
{
layerId = m002;
shapes = (
{
closed = 1;
nodes = (
(143,-10,o),
(33,83,o),
(33,215,cs),
(33,455,o),
(333,508,o),
(333,691,cs),
(333,758,o),
(287,805,o),
(222,805,cs),
(159,805,o),
(115,750,o),
(115,673,cs),
(115,640,o),
(148,573,o),
(195,511,cs),
(417,225,o),
(583,13,o),
(595,1,c),
(587,-6,l),
(508,95,o),
(376,264,o),
(189,503,cs),
(140,566,o),
(105,636,o),
(105,673,cs),
(105,756,o),
(153,815,o),
(222,815,cs),
(293,815,o),
(343,764,o),
(343,691,cs),
(343,508,o),
(43,452,o),
(43,212,cs),
(43,88,o),
(149,0,o),
(284,0,cs),
(449,0,o),
(565,135,o),
(565,325,cs),
(565,395,o),
(533,473,o),
(482,523,c),
(489,529,l),
(542,478,o),
(575,398,o),
(575,325,cs),
(575,129,o),
(454,-10,o),
(284,-10,cs)
);
}
);
width = 628;
},
{
background = {
shapes = (
{
closed = 1;
nodes = (
(432,72,o),
(298,231,o),
(150,406,cs),
(108,453,o),
(82,507,o),
(82,545,cs),
(82,616,o),
(111,660,o),
(157,660,cs),
(217,660,o),
(255,621,o),
(255,560,cs),
(255,411,o),
(66,368,o),
(66,213,cs),
(66,82,o),
(134,0,o),
(243,0,cs),
(381,0,o),
(468,125,o),
(468,323,cs),
(468,413,o),
(428,470,o),
(364,470,c),
(364,480,l),
(434,480,o),
(478,419,o),
(478,323,cs),
(478,118,o),
(387,-10,o),
(243,-10,cs),
(128,-10,o),
(56,76,o),
(56,213,cs),
(56,368,o),
(245,411,o),
(245,560,cs),
(245,615,o),
(211,650,o),
(157,650,cs),
(117,650,o),
(92,609,o),
(92,545,cs),
(92,513,o),
(117,463,o),
(156,414,cs),
(372,158,o),
(507,-2,o),
(505,0,c),
(498,-7,l)
);
}
);
};
layerId = m01;
shapes = (
{
closed = 1;
nodes = (
(146,-10,o),
(25,89,o),
(25,228,cs),
(25,406,o),
(334,458,o),
(334,592,cs),
(334,652,o),
(302,694,o),
(256,694,cs),
(209,694,o),
(176,660,o),
(176,612,cs),
(176,574,o),
(208,518,o),
(253,478,cs),
(253,478,o),
(432,311,o),
(686,75,c),
(611,-17,l),
(346,223,o),
(159,392,o),
(159,392,cs),
(96,449,o),
(51,540,o),
(51,612,cs),
(51,730,o),
(136,814,o),
(256,814,cs),
(372,814,o),
(454,722,o),
(454,592,cs),
(454,360,o),
(161,394,o),
(161,228,cs),
(161,159,o),
(226,100,o),
(304,100,cs),
(435,100,o),
(527,190,o),
(527,304,cs),
(527,367,o),
(506,426,o),
(477,446,c),
(543,541,l),
(595,504,o),
(632,406,o),
(632,304,cs),
(632,120,o),
(496,-10,o),
(304,-10,cs)
);
}
);
width = 711;
}
);
metricLeft = M;
metricRight = M;
unicode = 38;
},
{
glyphname = section;
lastChange = "2024-08-03 07:57:46 +0000";
layers = (
{
layerId = m002;
shapes = (
{
closed = 1;
nodes = (
(393,128,o),
(465,192,o),
(462,322,cs),
(457,557,o),
(134,514,o),
(128,701,cs),
(125,803,o),
(169,853,o),
(263,853,cs),
(359,853,o),
(408,796,o),
(413,681,c),
(423,681,l),
(417,803,o),
(364,863,o),
(263,863,cs),
(161,863,o),
(113,810,o),
(118,701,cs),
(122,506,o),
(444,551,o),
(452,322,cs),
(456,198,o),
(387,137,o),
(243,137,c),
(243,128,l)
);
},
{
closed = 1;
nodes = (
(354,-209,o),
(407,-157,o),
(404,-52,cs),
(398,163,o),
(74,124,o),
(67,327,cs),
(62,464,o),
(130,531,o),
(275,531,c),
(275,541,l),
(124,541,o),
(52,471,o),
(57,327,cs),
(64,112,o),
(388,159,o),
(394,-52,cs),
(397,-151,o),
(348,-199,o),
(244,-199,cs),
(147,-199,o),
(98,-144,o),
(93,-32,c),
(83,-32,l),
(86,-151,o),
(139,-209,o),
(244,-209,cs)
);
}
);
width = 522;
},
{
layerId = m01;
shapes = (
{
closed = 1;
nodes = (
(418,125,o),
(506,200,o),
(506,336,cs),
(506,563,o),
(189,571,o),
(189,689,cs),
(189,746,o),
(215,777,o),
(261,777,cs),
(305,777,o),
(319,727,o),
(319,637,c),
(446,637,l),
(446,787,o),
(380,871,o),
(261,871,cs),
(129,871,o),
(55,795,o),
(55,659,cs),
(55,431,o),
(372,429,o),
(372,306,cs),
(372,246,o),
(332,213,o),
(261,213,c),
(261,125,l)
);
},
{
closed = 1;
nodes = (
(393,-209,o),
(466,-134,o),
(466,2,cs),
(466,230,o),
(149,237,o),
(149,355,cs),
(149,416,o),
(189,450,o),
(261,450,c),
(261,537,l),
(103,537,o),
(15,461,o),
(15,325,cs),
(15,97,o),
(332,95,o),
(332,-28,cs),
(332,-84,o),
(307,-115,o),
(261,-115,cs),
(209,-115,o),
(180,-65,o),
(180,25,c),
(63,25,l),
(63,-125,o),
(134,-209,o),
(261,-209,cs)
);
}
);
width = 521;
}
);
unicode = 167;
},
{
glyphname = degree;
lastChange = "2024-08-03 07:53:15 +0000";
layers = (
{
layerId = m002;
shapes = (
{
closed = 1;
nodes = (
(304,496,o),
(366,559,o),
(366,648,cs),
(366,737,o),
(304,800,o),
(216,800,cs),
(128,800,o),
(66,737,o),
(66,648,cs),
(66,559,o),
(128,496,o),
(216,496,cs)
);
},
{
closed = 1;
nodes = (
(134,506,o),
(76,565,o),
(76,648,cs),
(76,731,o),
(134,790,o),
(216,790,cs),
(298,790,o),
(356,731,o),
(356,648,cs),
(356,565,o),
(298,506,o),
(216,506,cs)
);
}
);
width = 432;
},
{
layerId = m01;
shapes = (
{
closed = 1;
nodes = (
(300,496,o),
(366,563,o),
(366,648,cs),
(366,733,o),
(300,800,o),
(216,800,cs),
(132,800,o),
(66,733,o),
(66,648,cs),
(66,563,o),
(132,496,o),
(216,496,cs)
);
},
{
closed = 1;
nodes = (
(183,586,o),
(156,613,o),
(156,648,cs),
(156,683,o),
(183,710,o),
(216,710,cs),
(249,710,o),
(276,683,o),
(276,648,cs),
(276,613,o),
(249,586,o),
(216,586,cs)
);
}
);
width = 432;
}
);
unicode = 176;
},
{
glyphname = bar;
lastChange = "2024-08-01 20:03:13 +0000";
layers = (
{
layerId = m002;
shapes = (
{
closed = 1;
nodes = (
(260,850,l),
(250,850,l),
(250,-200,l),
(260,-200,l)
);
}
);
width = 510;
},
{
layerId = m01;
shapes = (
{
closed = 1;
nodes = (
(320,850,l),
(180,850,l),
(180,-200,l),
(320,-200,l)
);
}
);
width = 500;
}
);
unicode = 124;
},
{
glyphname = euro;
lastChange = "2024-07-31 11:33:07 +0000";
layers = (
{
layerId = m01;
shapes = (
{
closed = 1;
nodes = (
(454,564,l),
(454,732,o),
(387,814,o),
(249,814,cs),
(99,814,o),
(25,685,o),
(25,422,cs),
(25,132,o),
(99,-10,o),
(249,-10,cs),
(385,-10,o),
(452,71,o),
(452,237,c),
(299,237,l),
(299,169,o),
(283,135,o),
(249,135,cs),
(209,135,o),
(190,229,o),
(190,422,cs),
(190,588,o),
(209,669,o),
(249,669,cs),
(283,669,o),
(300,634,o),
(300,564,c)
);
},
{
closed = 1;
nodes = (
(365,340,l),
(365,480,l),
(92,480,l),
(92,340,l)
);
}
);
width = 480;
},
{
layerId = m002;
shapes = (
{
closed = 1;
nodes = (
(440,644,l),
(425,750,o),
(354,809,o),
(247,809,cs),
(109,809,o),
(33,671,o),
(33,422,cs),
(33,144,o),
(109,-11,o),
(247,-11,cs),
(353,-11,o),
(423,49,o),
(438,157,c),
(426,157,l),
(411,55,o),
(345,-1,o),
(247,-1,cs),
(116,-1,o),
(43,150,o),
(43,422,cs),
(43,664,o),
(116,799,o),
(247,799,cs),
(347,799,o),
(414,744,o),
(429,644,c)
);
},
{
closed = 1;
nodes = (
(281,418,l),
(281,428,l),
(38,428,l),
(38,418,l)
);
}
);
width = 473;
}
);
unicode = 8364;
},
{
glyphname = dieresiscomb;
lastChange = "2024-08-02 16:48:04 +0000";
layers = (
{
anchors = (
{
name = _top;
pos = (150,650);
},
{
name = top;
pos = (150,834);
}
);
layerId = m002;
shapes = (
{
closed = 1;
nodes = (
(68,800,l),
(102,800,l),
(102,834,l),
(68,834,l)
);
},
{
closed = 1;
nodes = (
(198,800,l),
(232,800,l),
(232,834,l),
(198,834,l)
);
}
);
width = 300;
},
{
anchors = (
{
name = _top;
pos = (150,650);
},
{
name = top;
pos = (150,864);
}
);
layerId = m01;
shapes = (
{
closed = 1;
nodes = (
(-3,700,l),
(123,700,l),
(123,864,l),
(-3,864,l)
);
},
{
closed = 1;
nodes = (
(177,700,l),
(303,700,l),
(303,864,l),
(177,864,l)
);
}
);
width = 300;
}
);
unicode = 776;
},
{
glyphname = dotaccentcomb;
lastChange = "2024-08-02 07:36:52 +0000";
layers = (
{
anchors = (
{
name = _top;
pos = (150,650);
},
{
name = top;
pos = (150,850);
}
);
layerId = m002;
shapes = (
{
closed = 1;
nodes = (
(142,808,l),
(158,808,l),
(158,850,l),
(142,850,l)
);
}
);
width = 300;
},
{
anchors = (
{
name = _top;
pos = (150,650);
},
{
name = top;
pos = (150,850);
}
);
layerId = m01;
shapes = (
{
closed = 1;
nodes = (
(67,716,l),
(233,716,l),
(233,850,l),
(67,850,l)
);
}
);
width = 300;
}
);
unicode = 775;
},
{
glyphname = gravecomb;
lastChange = "2024-08-02 16:28:53 +0000";
layers = (
{
anchors = (
{
name = _top;
pos = (150,650);
},
{
name = top;
pos = (150,826);
}
);
layerId = m002;
shapes = (
{
closed = 1;
nodes = (
(199,752,l),
(207,765,l),
(101,826,l),
(93,813,l)
);
}
);
width = 300;
},
{
anchors = (
{
name = _top;
pos = (150,650);
},
{
name = top;
pos = (150,850);
}
);
layerId = m01;
shapes = (
{
closed = 1;
nodes = (
(77,696,l),
(223,696,l),
(143,830,l),
(-3,830,l)
);
}
);
width = 300;
}
);
unicode = 768;
},
{
glyphname = acutecomb;
lastChange = "2024-08-02 16:26:12 +0000";
layers = (
{
anchors = (
{
name = _top;
pos = (150,650);
},
{
name = top;
pos = (150,826);
}
);
layerId = m002;
shapes = (
{
closed = 1;
nodes = (
(199,826,l),
(93,765,l),
(101,752,l),
(207,813,l)
);
}
);
width = 300;
},
{
anchors = (
{
name = _top;
pos = (117,650);
},
{
name = top;
pos = (150,850);
}
);
layerId = m01;
shapes = (
{
closed = 1;
nodes = (
(117,830,l),
(37,696,l),
(183,696,l),
(263,830,l)
);
}
);
width = 300;
}
);
unicode = 769;
},
{
glyphname = hungarumlautcomb;
lastChange = "2024-08-02 07:36:52 +0000";
layers = (
{
anchors = (
{
name = _top;
pos = (150,650);
},
{
name = top;
pos = (150,846);
}
);
layerId = m002;
shapes = (
{
closed = 1;
nodes = (
(124,846,l),
(63,740,l),
(76,732,l),
(137,838,l)
);
},
{
closed = 1;
nodes = (
(224,846,l),
(163,740,l),
(176,732,l),
(237,838,l)
);
}
);
width = 300;
},
{
anchors = (
{
name = _top;
pos = (150,650);
},
{
name = top;
pos = (150,850);
}
);
layerId = m01;
shapes = (
{
closed = 1;
nodes = (
(37,850,l),
(-23,716,l),
(103,716,l),
(163,850,l)
);
},
{
closed = 1;
nodes = (
(197,850,l),
(137,716,l),
(263,716,l),
(323,850,l)
);
}
);
width = 300;
}
);
unicode = 779;
},
{
glyphname = caroncomb.alt;
lastChange = "2024-08-02 07:36:52 +0000";
layers = (
{
anchors = (
{
name = _topright;
pos = (93,850);
}
);
layerId = m002;
shapes = (
{
closed = 1;
nodes = (
(174,846,l),
(113,740,l),
(126,732,l),
(187,838,l)
);
}
);
width = 300;
},
{
anchors = (
{
name = _topright;
pos = (47,850);
}
);
layerId = m01;
shapes = (
{
closed = 1;
nodes = (
(107,850,l),
(67,716,l),
(193,716,l),
(233,850,l)
);
}
);
width = 300;
}
);
},
{
glyphname = circumflexcomb;
lastChange = "2024-08-02 16:31:55 +0000";
layers = (
{
anchors = (
{
name = _top;
pos = (150,650);
},
{
name = top;
pos = (150,837);
}
);
layerId = m002;
shapes = (
{
closed = 1;
nodes = (
(150,837,l),
(63,751,l),
(74,741,l),
(161,826,l)
);
},
{
closed = 1;
nodes = (
(150,837,l),
(139,826,l),
(226,741,l),
(237,751,l)
);
}
);
width = 300;
},
{
anchors = (
{
name = _top;
pos = (150,650);
},
{
name = top;
pos = (150,850);
}
);
layerId = m01;
shapes = (
{
closed = 1;
nodes = (
(72,830,l),
(-18,696,l),
(98,696,l),
(188,830,l)
);
},
{
closed = 1;
nodes = (
(228,830,l),
(112,830,l),
(202,696,l),
(318,696,l)
);
}
);
width = 300;
}
);
unicode = 770;
},
{
glyphname = caroncomb;
lastChange = "2024-08-02 07:36:52 +0000";
layers = (
{
anchors = (
{
name = _top;
pos = (150,650);
},
{
name = top;
pos = (150,837);
}
);
layerId = m002;
shapes = (
{
closed = 1;
nodes = (
(74,837,l),
(63,827,l),
(150,741,l),
(161,752,l)
);
},
{
closed = 1;
nodes = (
(226,837,l),
(139,752,l),
(150,741,l),
(237,827,l)
);
}
);
width = 300;
},
{
anchors = (
{
name = _top;
pos = (150,650);
},
{
name = top;
pos = (150,850);
}
);
layerId = m01;
shapes = (
{
closed = 1;
nodes = (
(108,850,l),
(-18,850,l),
(42,716,l),
(168,716,l)
);
},
{
closed = 1;
nodes = (
(192,850,l),
(132,716,l),
(258,716,l),
(318,850,l)
);
}
);
width = 300;
}
);
unicode = 780;
},
{
glyphname = brevecomb;
lastChange = "2024-08-02 16:26:44 +0000";
layers = (
{
anchors = (
{
name = _top;
pos = (150,650);
},
{
name = top;
pos = (150,828);
}
);
background = {
shapes = (
{
closed = 1;
nodes = (
(74,837,l),
(63,827,l),
(150,741,l),
(161,752,l)
);
},
{
closed = 1;
nodes = (
(226,837,l),
(139,752,l),
(150,741,l),
(237,827,l)
);
}
);
};
layerId = m002;
shapes = (
{
closed = 1;
nodes = (
(200,741,o),
(236,777,o),
(236,828,c),
(226,828,l),
(226,783,o),
(195,751,o),
(150,751,cs),
(105,751,o),
(73,783,o),
(73,828,c),
(63,828,l),
(63,777,o),
(99,741,o),
(150,741,c)
);
}
);
width = 300;
},
{
anchors = (
{
name = _top;
pos = (150,650);
},
{
name = top;
pos = (150,850);
}
);
background = {
shapes = (
{
closed = 1;
nodes = (
(108,850,l),
(-18,850,l),
(42,716,l),
(168,716,l)
);
},
{
closed = 1;
nodes = (
(192,850,l),
(132,716,l),
(258,716,l),
(318,850,l)
);
}
);
};
layerId = m01;
shapes = (
{
closed = 1;
nodes = (
(238,696,o),
(280,752,o),
(280,830,c),
(192,830,l),
(192,801,o),
(175,781,o),
(151,781,cs),
(126,781,o),
(108,801,o),
(108,830,c),
(20,830,l),
(20,752,o),
(63,696,o),
(150,696,cs)
);
}
);
width = 300;
}
);
unicode = 774;
},
{
glyphname = ringcomb;
lastChange = "2024-08-02 16:35:11 +0000";
layers = (
{
anchors = (
{
name = _top;
pos = (150,650);
},
{
name = top;
pos = (150,845);
}
);
layerId = m002;
shapes = (
{
closed = 1;
nodes = (
(105,774,o),
(124,755,o),
(150,755,cs),
(176,755,o),
(194,774,o),
(194,800,cs),
(194,826,o),
(176,845,o),
(150,845,cs),
(124,845,o),
(105,826,o),
(105,800,cs)
);
},
{
closed = 1;
nodes = (
(115,820,o),
(130,835,o),
(150,835,cs),
(170,835,o),
(184,820,o),
(184,800,cs),
(184,780,o),
(170,765,o),
(150,765,cs),
(130,765,o),
(115,780,o),
(115,800,cs)
);
}
);
width = 300;
},
{
anchors = (
{
name = _top;
pos = (150,650);
},
{
name = top;
pos = (150,872);
}
);
layerId = m01;
shapes = (
{
closed = 1;
nodes = (
(70,715,o),
(103,684,o),
(150,684,cs),
(197,684,o),
(230,715,o),
(230,758,cs),
(230,801,o),
(197,832,o),
(150,832,cs),
(103,832,o),
(70,801,o),
(70,758,cs)
);
},
{
closed = 1;
nodes = (
(123,773,o),
(134,783,o),
(151,783,cs),
(166,783,o),
(177,773,o),
(177,758,cs),
(177,743,o),
(166,733,o),
(151,733,cs),
(134,733,o),
(123,743,o),
(123,758,cs)
);
}
);
width = 300;
}
);
unicode = 778;
},
{
glyphname = tildecomb;
lastChange = "2024-08-02 16:35:30 +0000";
layers = (
{
anchors = (
{
name = _top;
pos = (150,650);
},
{
name = top;
pos = (150,799);
}
);
background = {
shapes = (
{
closed = 1;
nodes = (
(200,741,o),
(236,777,o),
(236,828,c),
(226,828,l),
(226,783,o),
(195,751,o),
(150,751,cs),
(105,751,o),
(73,783,o),
(73,828,c),
(63,828,l),
(63,777,o),
(99,741,o),
(150,741,c)
);
}
);
};
layerId = m002;
shapes = (
{
closed = 1;
nodes = (
(73,744,l),
(73,772,o),
(90,789,o),
(116,789,cs),
(150,789,o),
(152,744,o),
(192,744,cs),
(220,744,o),
(237,765,o),
(237,799,c),
(227,799,l),
(227,771,o),
(213,754,o),
(192,754,cs),
(158,754,o),
(156,799,o),
(116,799,cs),
(83,799,o),
(63,778,o),
(63,744,c)
);
}
);
width = 300;
},
{
anchors = (
{
name = _top;
pos = (150,650);
},
{
name = top;
pos = (150,851);
}
);
background = {
shapes = (
{
closed = 1;
nodes = (
(238,716,o),
(280,772,o),
(280,850,c),
(192,850,l),
(192,821,o),
(175,801,o),
(151,801,cs),
(126,801,o),
(108,821,o),
(108,850,c),
(20,850,l),
(20,772,o),
(63,716,o),
(150,716,cs)
);
},
{
closed = 1;
nodes = (
(142,850,o),
(100,794,o),
(100,716,c),
(188,716,l),
(188,745,o),
(205,765,o),
(229,765,cs),
(254,765,o),
(272,745,o),
(272,716,c),
(360,716,l),
(360,794,o),
(317,850,o),
(230,850,cs)
);
}
);
};
layerId = m01;
shapes = (
{
closed = 1;
nodes = (
(48,707,l),
(48,736,o),
(64,757,o),
(87,757,cs),
(137,757,o),
(160,707,o),
(210,707,cs),
(274,707,o),
(289,763,o),
(289,841,c),
(253,841,l),
(253,812,o),
(235,792,o),
(210,792,cs),
(160,792,o),
(127,841,o),
(77,841,cs),
(21,841,o),
(11,785,o),
(11,707,c)
);
}
);
width = 300;
}
);
unicode = 771;
},
{
glyphname = macroncomb;
lastChange = "2024-08-02 07:36:52 +0000";
layers = (
{
anchors = (
{
name = _top;
pos = (140,650);
},
{
name = top;
pos = (140,791);
}
);
layerId = m002;
shapes = (
{
closed = 1;
nodes = (
(220,781,l),
(220,791,l),
(60,791,l),
(60,781,l)
);
}
);
width = 300;
},
{
anchors = (
{
name = _top;
pos = (150,650);
},
{
name = top;
pos = (150,850);
}
);
layerId = m01;
shapes = (
{
closed = 1;
nodes = (
(20,716,l),
(280,716,l),
(280,850,l),
(20,850,l)
);
}
);
width = 300;
}
);
unicode = 772;
},
{
glyphname = hookabovecomb;
lastChange = "2024-08-02 16:30:37 +0000";
layers = (
{
anchors = (
{
name = _top;
pos = (159,650);
},
{
name = top;
pos = (159,799);
}
);
layerId = m002;
shapes = (
{
closed = 1;
nodes = (
(184,691,o),
(199,720,o),
(191,754,cs),
(181,787,o),
(153,805,o),
(124,797,c),
(127,788,l),
(151,794,o),
(174,779,o),
(181,752,cs),
(190,724,o),
(178,700,o),
(152,693,c),
(156,684,l)
);
}
);
width = 300;
},
{
anchors = (
{
name = _top;
pos = (150,650);
},
{
name = top;
pos = (150,862);
}
);
layerId = m01;
shapes = (
{
closed = 1;
nodes = (
(214,715,o),
(211,770,o),
(170,811,cs),
(133,848,o),
(81,848,o),
(45,812,c),
(85,771,l),
(98,785,o),
(117,785,o),
(131,772,cs),
(148,754,o),
(151,732,o),
(138,718,c),
(178,678,l)
);
}
);
width = 300;
}
);
unicode = 777;
},
{
glyphname = commaturnedabovecomb;
lastChange = "2024-08-02 07:36:52 +0000";
layers = (
{
anchors = (
{
name = _top;
pos = (150,650);
},
{
name = top;
pos = (150,832);
}
);
layerId = m002;
shapes = (
{
closed = 1;
nodes = (
(165,781,l),
(131,781,l),
(131,747,l),
(165,747,l)
);
},
{
closed = 1;
nodes = (
(159,832,l),
(131,781,l),
(151,781,l),
(168,825,l)
);
}
);
width = 300;
},
{
anchors = (
{
name = _top;
pos = (150,650);
},
{
name = top;
pos = (150,998);
}
);
layerId = m01;
shapes = (
{
closed = 1;
nodes = (
(233,850,l),
(67,850,l),
(67,686,l),
(233,686,l)
);
},
{
closed = 1;
nodes = (
(183,998,l),
(67,850,l),
(158,850,l),
(225,967,l)
);
}
);
width = 300;
}
);
unicode = 786;
},
{
glyphname = horncomb;
lastChange = "2024-08-02 16:22:17 +0000";
layers = (
{
anchors = (
{
name = _topright;
pos = (153,650);
},
{
name = topright;
pos = (237,646);
}
);
layerId = m002;
shapes = (
{
closed = 1;
nodes = (
(188,474,o),
(217,507,o),
(217,553,cs),
(217,646,l),
(207,646,l),
(207,553,l),
(207,513,o),
(181,484,o),
(145,484,cs),
(128,484,o),
(102,493,o),
(83,506,c),
(83,493,l),
(105,482,o),
(132,474,o),
(147,474,cs)
);
}
);
width = 300;
},
{
anchors = (
{
name = _topright;
pos = (153,650);
},
{
name = topright;
pos = (297,646);
}
);
layerId = m01;
shapes = (
{
closed = 1;
nodes = (
(238,434,o),
(277,464,o),
(277,513,cs),
(277,646,l),
(187,646,l),
(187,593,l),
(187,551,o),
(171,524,o),
(145,524,cs),
(127,524,o),
(103,532,o),
(83,546,c),
(83,453,l),
(106,441,o),
(143,434,o),
(177,434,cs)
);
}
);
width = 300;
}
);
unicode = 795;
},
{
glyphname = dotbelowcomb;
lastChange = "2024-08-02 16:25:04 +0000";
layers = (
{
anchors = (
{
name = _bottom;
pos = (150,0);
},
{
name = bottom;
pos = (150,-150);
}
);
layerId = m002;
shapes = (
{
closed = 1;
nodes = (
(133,-150,l),
(167,-150,l),
(167,-116,l),
(133,-116,l)
);
}
);
width = 300;
},
{
anchors = (
{
name = _bottom;
pos = (150,0);
},
{
name = bottom;
pos = (150,-250);
}
);
layerId = m01;
shapes = (
{
closed = 1;
nodes = (
(91,-166,l),
(209,-166,l),
(209,-50,l),
(91,-50,l)
);
}
);
width = 300;
}
);
unicode = 803;
},
{
glyphname = commaaccentcomb;
lastChange = "2024-08-02 07:36:52 +0000";
layers = (
{
anchors = (
{
name = _bottom;
pos = (150,0);
},
{
name = bottom;
pos = (150,-114);
}
);
layerId = m002;
shapes = (
{
closed = 1;
nodes = (
(126,-114,l),
(187,-8,l),
(174,0,l),
(113,-106,l)
);
}
);
width = 300;
},
{
anchors = (
{
name = _bottom;
pos = (150,0);
},
{
name = bottom;
pos = (150,-134);
}
);
layerId = m01;
shapes = (
{
closed = 1;
nodes = (
(107,0,l),
(67,-134,l),
(193,-134,l),
(233,0,l)
);
}
);
width = 300;
}
);
unicode = 806;
},
{
glyphname = commaaccentcomb.loclMAH;
lastChange = "2024-08-02 16:24:35 +0000";
layers = (
{
anchors = (
{
name = _bottom;
pos = (149,0);
}
);
layerId = m002;
shapes = (
{
closed = 1;
nodes = (
(133,-150,l),
(167,-150,l),
(167,-116,l),
(133,-116,l)
);
},
{
closed = 1;
nodes = (
(139,-201,l),
(167,-150,l),
(147,-150,l),
(130,-194,l)
);
}
);
width = 300;
},
{
anchors = (
{
name = _bottom;
pos = (150,0);
}
);
layerId = m01;
shapes = (
{
closed = 1;
nodes = (
(91,-168,l),
(209,-168,l),
(209,-51,l),
(91,-51,l)
);
},
{
closed = 1;
nodes = (
(127,-273,l),
(209,-168,l),
(144,-168,l),
(97,-251,l)
);
}
);
width = 300;
}
);
},
{
glyphname = cedillacomb;
lastChange = "2024-08-02 07:36:52 +0000";
layers = (
{
anchors = (
{
name = _bottom;
pos = (166,0);
},
{
name = bottom;
pos = (166,-145);
}
);
layerId = m002;
shapes = (
{
closed = 1;
nodes = (
(144,-83,l),
(187,-8,l),
(174,0,l),
(131,-75,l)
);
},
{
closed = 1;
nodes = (
(133,-140,o),
(150,-145,o),
(162,-145,cs),
(190,-145,o),
(209,-128,o),
(209,-103,cs),
(209,-80,o),
(192,-63,o),
(168,-63,cs),
(157,-63,o),
(145,-70,o),
(138,-79,c),
(144,-83,l),
(151,-77,o),
(161,-73,o),
(168,-73,cs),
(186,-73,o),
(199,-85,o),
(199,-103,cs),
(199,-122,o),
(184,-135,o),
(162,-135,cs),
(152,-135,o),
(138,-130,o),
(129,-124,c),
(123,-132,l)
);
}
);
width = 300;
},
{
anchors = (
{
name = _bottom;
pos = (172,0);
},
{
name = bottom;
pos = (172,-180);
}
);
layerId = m01;
shapes = (
{
closed = 1;
nodes = (
(128,0,l),
(107,-70,l),
(172,-70,l),
(193,0,l)
);
},
{
closed = 1;
nodes = (
(108,-170,o),
(141,-180,o),
(164,-180,cs),
(218,-180,o),
(255,-147,o),
(255,-99,cs),
(255,-55,o),
(222,-22,o),
(176,-22,cs),
(155,-22,o),
(131,-35,o),
(118,-53,c),
(142,-53,l),
(149,-47,o),
(165,-70,o),
(172,-70,cs),
(190,-70,o),
(203,-82,o),
(203,-100,cs),
(203,-119,o),
(188,-132,o),
(166,-132,cs),
(156,-132,o),
(142,-127,o),
(133,-121,c),
(89,-155,l)
);
}
);
width = 300;
}
);
unicode = 807;
},
{
glyphname = ogonekcomb;
lastChange = "2024-08-02 07:36:52 +0000";
layers = (
{
anchors = (
{
name = _ogonek;
pos = (175,2);
}
);
layerId = m002;
shapes = (
{
closed = 1;
nodes = (
(165,-133,o),
(175,-130,o),
(175,-125,cs),
(175,-121,o),
(165,-118,o),
(150,-118,cs),
(125,-118,o),
(107,-102,o),
(107,-80,cs),
(107,-43,o),
(134,-10,o),
(171,0,c),
(157,2,l),
(120,-8,o),
(93,-42,o),
(93,-80,cs),
(93,-111,o),
(117,-133,o),
(150,-133,cs)
);
}
);
width = 300;
},
{
anchors = (
{
name = _ogonek;
pos = (228,0);
}
);
layerId = m01;
shapes = (
{
closed = 1;
nodes = (
(194,-165,o),
(228,-151,o),
(228,-131,cs),
(228,-114,o),
(207,-102,o),
(177,-102,cs),
(147,-102,o),
(126,-90,o),
(126,-74,c),
(126,-54,o),
(154,-24,o),
(194,0,c),
(129,0,l),
(88,-24,o),
(59,-61,o),
(59,-90,cs),
(59,-134,o),
(95,-165,o),
(147,-165,cs)
);
}
);
width = 300;
}
);
unicode = 808;
},
{
glyphname = commaturnedmod;
lastChange = "2024-08-02 07:35:55 +0000";
layers = (
{
layerId = m002;
shapes = (
{
closed = 1;
nodes = (
(174,766,l),
(113,660,l),
(126,652,l),
(187,758,l)
);
}
